SplineFontDB: 3.0
FontName: UnifrakturCook
FullName: UnifrakturCook
FamilyName: UnifrakturCook
Weight: Bold
Copyright: Copyright (c) 2010 j. 'mach' wust with Reserved Font Name UnifrakturCook.\nCopyright (c) 2009 Peter Wiegel.\n\nThis Font Software is licensed under the SIL Open Font License, Version 1.1.

StartChar: .notdef
Encoding: 1114112 -1 0
Width: 2027
Flags: W
HStem: -115 15<-36.2147 25> -51 36<-22.6851 -10.0024> 36 18<-9.84448 12> 87 18<919.781 936.812> 92 30<862 865 960.605 972> 105 41<972.003 991 1136 1147 1185.06 1208.78> 110 17<1106 1114 1152 1172> 122 3<54 55.9995> 136 38<85 89.9065> 167.5 32.5<673.938 829.499> 195 30<95.0627 100> 291 24<120.531 200 220 333.34> 312 18<92.4746 161> 325 20<1001.47 1060.73> 335 34<735.483 751.937 781 786> 374 22<781.001 789> 402 20<1287 1295> 476 20<597.281 645.172 1377.28 1471.3> 571 15<637.001 650.857 1375.62 1384.84> 652 19<1464 1469.93> 655 2<561 566> 665 16<469 479.875> 684 20<410 414.906 1544 1643.34> 1356 29<961.989 1054.34> 1436 28<874.936 1023.22 1086.7 1194.11 1286.86 1305.94> 1485 15<955 956.052 1467 1539.44> 1500 5<1414.23 1439> 1517 22<957.094 975.418 1287 1314> 1539 17<727 747 799.064 890.384> 1541 5<704 719 732 747> 1590 15<915.084 948.185 1159.13 1180> 1682 18<1188.74 1243.88> 1725 24<898.031 906> 1854 27<1060.35 1171.41> 1871 31<845.261 1073.37> 2066 18<744.49 752> 2094 16<1280.7 1300.12>
VStem: -125 17<-50.5813 1.84229> -110 17<22.5645 82.3926> -95 19<-150.626 -100.096 -39 -15.1162> -85 11<48.6147 61> -61 10<-115 -113> -10 17<-14.8282 9.65247> 0 5<61.0156 63.9996> 39 15<-88 -59.9062 231.011 254> 54 2<122.001 125> 66 29<129.075 132 222.182 230 233.085 270.947> 92 3<227 230> 144 15<186.55 233.809> 200 20<315.063 321.832> 291 39<409.978 604.96> 464 17<668.094 674> 510 30<630 651.844> 561 25<609 615 630 640> 584 22<596 606> 594 41<623.581 640> 625 10<586.031 589> 630 44<1545.61 1677.36> 660 49<1656.83 1792.91> 727 30<474 524.594> 786 23<547.969 598.132 1810.44 1924.47> 806 34<1323.73 1406.95> 830 35<202.315 338.254> 830 17<146.059 164.406> 889 20<138.692 190> 896 28<1615.16 1655.76> 899 15<1615 1629.88> 907.5 6.5<1761 1811.53> 914 5<1797 1812> 955 36<207 320> 965 7<148.513 153.999> 989 42<396.805 788.102> 1034 18<1486.43 1510> 1036 6<1560.88 1561> 1085 24<438.095 582.375 585.812 635.875 637.722 799.304 1566 1571> 1106.5 19.5<800.106 858.869 1587.7 1605> 1134 33<161.411 206.875> 1152 3<1749 1810> 1162 8<1727 1736.55> 1187 3<1744 1805> 1190 47.5<230.969 358> 1233.5 17.5<1847.92 1974.87> 1244 12<156.311 180.53> 1249 18<1325.2 1415.58 1827.16 1850.17> 1300 45<858.169 1179.92> 1319 100<1921.77 1968.4> 1334 33<474 478.906 500.13 570.844> 1349 61<1500.16 1506.94 1685.82 1838.42> 1380 39<1794.34 1916.16> 1419 32<1559.41 1646.59> 1544 12<669 670.813> 1607 39<1819.42 1922.86> 1676 44<1422.96 1656.94> 1741 49<430.437 557.828> 1837 49<1435.91 1789.7>
LayerCount: 2
Fore
SplineSet
1290 2110 m 1,0,-1
 1297 2110 l 2,1,2
 1300 2110 1300 2110 1310.5 2089.5 c 128,-1,3
 1321 2069 1321 2069 1335 2040.5 c 128,-1,4
 1349 2012 1349 2012 1364.5 1985.5 c 128,-1,5
 1380 1959 1380 1959 1387 1942 c 1,6,7
 1400 1917 1400 1917 1409.5 1894 c 128,-1,8
 1419 1871 1419 1871 1419 1844 c 0,9,10
 1419 1822 1419 1822 1414.5 1804.5 c 128,-1,11
 1410 1787 1410 1787 1410 1766 c 0,12,13
 1410 1722 1410 1722 1430.5 1679 c 128,-1,14
 1451 1636 1451 1636 1451 1597 c 0,15,16
 1451 1546 1451 1546 1412 1512 c 1,17,18
 1412 1505 1412 1505 1425.5 1505 c 128,-1,19
 1439 1505 1439 1505 1439 1500 c 1,20,-1
 1402 1500 l 1,21,22
 1390 1495 1390 1495 1380 1485 c 1,23,-1
 1490 1444 l 1,24,25
 1490 1441 1490 1441 1491 1441 c 128,-1,26
 1492 1441 1492 1441 1492 1439 c 1,27,-1
 1490 1436 l 1,28,-1
 1487 1439 l 1,29,30
 1482 1439 1482 1439 1477 1444 c 1,31,32
 1475 1444 1475 1444 1472 1439 c 1,33,34
 1470 1439 1470 1439 1468.5 1444 c 128,-1,35
 1467 1449 1467 1449 1461 1449 c 0,36,37
 1459 1449 1459 1449 1456 1446 c 1,38,-1
 1441 1454 l 1,39,-1
 1436 1454 l 2,40,41
 1421 1454 1421 1454 1403 1464.5 c 128,-1,42
 1385 1475 1385 1475 1370 1475 c 0,43,44
 1354 1475 1354 1475 1344 1467 c 1,45,-1
 1339 1461 l 1,46,47
 1336 1459 1336 1459 1336 1456 c 0,48,49
 1336 1454 1336 1454 1339 1454 c 1,50,-1
 1375 1434 l 1,51,-1
 1356 1439 l 1,52,53
 1349 1444 1349 1444 1342.5 1445 c 128,-1,54
 1336 1446 1336 1446 1331 1451 c 1,55,56
 1326 1449 1326 1449 1314 1447.5 c 128,-1,57
 1302 1446 1302 1446 1292 1438.5 c 128,-1,58
 1282 1431 1282 1431 1274.5 1416.5 c 128,-1,59
 1267 1402 1267 1402 1267 1377 c 0,60,61
 1267 1319 1267 1319 1295.5 1255.5 c 128,-1,62
 1324 1192 1324 1192 1334 1129 c 1,63,64
 1351 1057 1351 1057 1345 986.5 c 128,-1,65
 1339 916 1339 916 1356 850 c 1,66,67
 1359 850 1359 850 1380.5 887 c 128,-1,68
 1402 924 1402 924 1429 969 c 128,-1,69
 1456 1014 1456 1014 1480.5 1053 c 128,-1,70
 1505 1092 1505 1092 1512 1101 c 1,71,72
 1539 1150 1539 1150 1568 1195.5 c 128,-1,73
 1597 1241 1597 1241 1617 1295 c 1,74,-1
 1625 1311 l 1,75,76
 1631 1356 1631 1356 1653.5 1405 c 128,-1,77
 1676 1454 1676 1454 1676 1531 c 0,78,79
 1676 1575 1676 1575 1666 1614.5 c 128,-1,80
 1656 1654 1656 1654 1642.5 1692 c 128,-1,81
 1629 1730 1629 1730 1618 1768.5 c 128,-1,82
 1607 1807 1607 1807 1607 1846 c 0,83,84
 1607 1881 1607 1881 1619 1909 c 128,-1,85
 1631 1937 1631 1937 1671 1974 c 1,86,-1
 1676 1974 l 2,87,88
 1682 1974 1682 1974 1697 1979 c 1,89,-1
 1761 1964 l 1,90,91
 1792 1942 1792 1942 1816.5 1901.5 c 128,-1,92
 1841 1861 1841 1861 1856 1810 c 128,-1,93
 1871 1759 1871 1759 1878.5 1706.5 c 128,-1,94
 1886 1654 1886 1654 1886 1610 c 0,95,96
 1886 1490 1886 1490 1836.5 1357 c 128,-1,97
 1787 1224 1787 1224 1690 1082 c 1,98,99
 1690 1080 1690 1080 1682 1077 c 1,100,101
 1666 1055 1666 1055 1639 1020 c 128,-1,102
 1612 985 1612 985 1586.5 949.5 c 128,-1,103
 1561 914 1561 914 1543.5 884.5 c 128,-1,104
 1526 855 1526 855 1526 842 c 1,105,106
 1497 801 1497 801 1475.5 755 c 128,-1,107
 1454 709 1454 709 1454 674 c 1,108,109
 1456 671 1456 671 1461 671 c 0,110,111
 1467 671 1467 671 1472 675 c 128,-1,112
 1477 679 1477 679 1490 679 c 1,113,114
 1556 704 1556 704 1615 704 c 0,115,116
 1666 704 1666 704 1695 676 c 1,117,-1
 1736 625 l 1,118,119
 1756 586 1756 586 1773 538.5 c 128,-1,120
 1790 491 1790 491 1790 445 c 0,121,122
 1790 384 1790 384 1741 342 c 128,-1,123
 1692 300 1692 300 1629 273 c 128,-1,124
 1566 246 1566 246 1507.5 231.5 c 128,-1,125
 1449 217 1449 217 1431 212 c 1,126,127
 1387 210 1387 210 1338.5 198.5 c 128,-1,128
 1290 187 1290 187 1262 181 c 1,129,130
 1255 166 1255 166 1256 146.5 c 128,-1,131
 1257 127 1257 127 1229 122 c 1,132,-1
 1216 125 l 1,133,134
 1195 105 1195 105 1147 105 c 0,135,136
 1134 105 1134 105 1127.5 108.5 c 128,-1,137
 1121 112 1121 112 1116 112 c 0,138,139
 1114 112 1114 112 1112.5 111 c 128,-1,140
 1111 110 1111 110 1109 110 c 2,141,-1
 1106 110 l 1,142,-1
 1070 130 l 1,143,-1
 1057 156 l 1,144,-1
 1014 156 l 1,145,-1
 996 110 l 1,146,147
 985 105 985 105 977 105 c 0,148,149
 967 105 967 105 947 110 c 1,150,-1
 942 92 l 1,151,152
 937 87 937 87 931.5 87 c 128,-1,153
 926 87 926 87 924 85 c 2,154,-1
 919 82 l 1,155,-1
 884 107 l 1,156,157
 881 102 l 1,158,-1
 877 102 l 1,159,-1
 877 107 l 1,160,161
 872 105 872 105 871 102.5 c 128,-1,162
 870 100 870 100 867 97 c 0,163,164
 865 95 865 95 865 92 c 1,165,-1
 860 92 l 1,166,167
 847 100 847 100 838.5 118 c 128,-1,168
 830 136 830 136 830 161 c 1,169,170
 814 169 814 169 793 167.5 c 128,-1,171
 772 166 772 166 755 171 c 1,172,-1
 699 179 l 1,173,174
 684 179 684 179 657 184.5 c 128,-1,175
 630 190 630 190 605.5 195 c 128,-1,176
 581 200 581 200 560.5 206 c 128,-1,177
 540 212 540 212 535 217 c 1,178,179
 420 246 420 246 363.5 268.5 c 128,-1,180
 307 291 307 291 271 291 c 2,181,-1
 212 291 l 1,182,-1
 195 297 l 1,183,-1
 120 284 l 1,184,185
 154 249 154 249 159 207 c 1,186,187
 159 192 159 192 149 174 c 1,188,-1
 97 151 l 1,189,-1
 90 139 l 1,190,191
 87 136 87 136 85 136 c 1,192,193
 85 132 85 132 66 115 c 1,194,-1
 36 110 l 1,195,-1
 29 117 l 1,196,-1
 -20 139 l 1,197,198
 -29 139 -29 139 -29 122 c 2,199,-1
 -29 117 l 2,200,201
 -29 115 -29 115 -25 115 c 1,202,-1
 34 87 l 1,203,204
 39 76 39 76 39 71 c 0,205,206
 39 64 39 64 34 54 c 1,207,-1
 20 41 l 1,208,209
 17 41 17 41 2 36 c 1,210,-1
 -10 36 l 1,211,-1
 -34 46 l 1,212,-1
 -59 74 l 1,213,-1
 -74 61 l 1,214,215
 -74 49 -74 49 -61.5 44 c 128,-1,216
 -49 39 -49 39 -33.5 32 c 128,-1,217
 -18 25 -18 25 -5.5 17.5 c 128,-1,218
 7 10 7 10 7 -8 c 0,219,220
 7 -15 7 -15 2 -25 c 1,221,-1
 2 -31 l 1,222,223
 17 -41 17 -41 35.5 -43.5 c 128,-1,224
 54 -46 54 -46 54 -71 c 0,225,226
 54 -100 54 -100 41.5 -107.5 c 128,-1,227
 29 -115 29 -115 10 -115 c 0,228,229
 -3 -115 -3 -115 -17 -112.5 c 128,-1,230
 -31 -110 -31 -110 -44 -110 c 1,231,232
 -49 -113 -49 -113 -49 -113 c 1,233,234
 -51 -113 -51 -113 -51 -115 c 2,235,-1
 0 -213 l 1,236,-1
 -5 -223 l 1,237,238
 -10 -223 -10 -223 -20.5 -209 c 128,-1,239
 -31 -195 -31 -195 -40 -177 c 128,-1,240
 -49 -159 -49 -159 -55 -142 c 128,-1,241
 -61 -125 -61 -125 -61 -120 c 0,242,243
 -61 -110 -61 -110 -59 -105 c 0,244,245
 -59 -103 -59 -103 -61 -100 c 1,246,-1
 -74 -100 l 1,247,248
 -76 -103 -76 -103 -76 -115 c 0,249,250
 -76 -120 -76 -120 -76 -129.5 c 128,-1,251
 -76 -139 -76 -139 -74 -151 c 1,252,-1
 -39 -208 l 1,253,-1
 -44 -218 l 1,254,-1
 -51 -218 l 1,255,256
 -61 -193 -61 -193 -78 -168.5 c 128,-1,257
 -95 -144 -95 -144 -95 -110 c 1,258,259
 -88 -103 -88 -103 -88 -95 c 0,260,261
 -88 -93 -88 -93 -106.5 -69.5 c 128,-1,262
 -125 -46 -125 -46 -125 -23 c 0,263,264
 -125 -8 -125 -8 -115 7 c 2,265,-1
 -105 22 l 1,266,267
 -110 39 -110 39 -110 46 c 0,268,269
 -110 82 -110 82 -89.5 96 c 128,-1,270
 -69 110 -69 110 -66 122 c 1,271,272
 -64 136 -64 136 -52.5 155 c 128,-1,273
 -41 174 -41 174 -28 193 c 128,-1,274
 -15 212 -15 212 -6.5 224.5 c 0,275,-1
 2 237 l 1,276,-1
 10 259 l 1,277,-1
 29 271 l 1,278,-1
 36 271 l 1,279,-1
 64 312 l 1,280,-1
 120 330 l 1,281,-1
 161 330 l 1,282,-1
 212 351 l 1,283,-1
 317 374 l 1,284,285
 320 376 320 376 320 379 c 0,286,287
 291 464 291 464 291 527 c 0,288,289
 291 586 291 586 310.5 614 c 128,-1,290
 330 642 330 642 364 676 c 1,291,-1
 405 704 l 1,292,293
 407 704 407 704 409.5 705 c 128,-1,294
 412 706 412 706 415 706 c 1,295,-1
 435 714 l 1,296,-1
 432 714 l 1,297,-1
 435 714 l 2,298,299
 437 714 437 714 442 716 c 1,300,301
 476 711 476 711 521 695 c 128,-1,302
 566 679 566 679 601 655 c 1,303,304
 604 655 604 655 612 674.5 c 128,-1,305
 620 694 620 694 630 719.5 c 128,-1,306
 640 745 640 745 650 769.5 c 128,-1,307
 660 794 660 794 665 804 c 0,308,309
 691 850 691 850 700 900 c 128,-1,310
 709 950 709 950 715.5 1003.5 c 128,-1,311
 722 1057 722 1057 728.5 1111 c 128,-1,312
 735 1165 735 1165 757 1216 c 1,313,314
 762 1265 762 1265 784 1312 c 128,-1,315
 806 1359 806 1359 806 1405 c 0,316,317
 806 1410 806 1410 805 1417 c 128,-1,318
 804 1424 804 1424 804 1429 c 1,319,-1
 765 1451 l 1,320,-1
 722 1439 l 1,321,-1
 709 1441 l 1,322,323
 681 1434 681 1434 661.5 1417 c 128,-1,324
 642 1400 642 1400 615 1400 c 0,325,326
 609 1400 609 1400 606.5 1401 c 128,-1,327
 604 1402 604 1402 601 1402 c 1,328,-1
 735 1461 l 1,329,-1
 696 1492 l 1,330,331
 694 1492 694 1492 672 1482 c 128,-1,332
 650 1472 650 1472 647 1472 c 1,333,334
 655 1480 655 1480 691 1497 c 1,335,336
 669 1521 669 1521 649.5 1545 c 128,-1,337
 630 1569 630 1569 630 1605 c 256,338,339
 630 1641 630 1641 645 1671.5 c 128,-1,340
 660 1702 660 1702 660 1736 c 0,341,342
 660 1764 660 1764 655 1793 c 128,-1,343
 650 1822 650 1822 642 1859 c 1,344,345
 642 1884 642 1884 658 1922.5 c 128,-1,346
 674 1961 674 1961 692.5 1996.5 c 128,-1,347
 711 2032 711 2032 728 2058 c 128,-1,348
 745 2084 745 2084 747 2084 c 2,349,-1
 760 2084 l 2,350,351
 767 2084 767 2084 776.5 2059.5 c 128,-1,352
 786 2035 786 2035 797.5 2005.5 c 128,-1,353
 809 1976 809 1976 820.5 1950.5 c 128,-1,354
 832 1925 832 1925 845 1917 c 1,355,356
 857 1907 857 1907 871.5 1904.5 c 128,-1,357
 886 1902 886 1902 899 1902 c 0,358,359
 919 1902 919 1902 938 1904.5 c 128,-1,360
 957 1907 957 1907 977 1907 c 0,361,362
 1014 1907 1014 1907 1049.5 1894 c 128,-1,363
 1085 1881 1085 1881 1116 1881 c 0,364,365
 1134 1881 1134 1881 1149.5 1883.5 c 128,-1,366
 1165 1886 1165 1886 1176 1899 c 128,-1,367
 1187 1912 1187 1912 1200.5 1943 c 128,-1,368
 1214 1974 1214 1974 1229 2030 c 1,369,370
 1246 2101 1246 2101 1290 2110 c 1,0,-1
1319 2025 m 0,371,372
 1319 2027 1319 2027 1316.5 2037 c 128,-1,373
 1314 2047 1314 2047 1309.5 2060.5 c 128,-1,374
 1305 2074 1305 2074 1301 2084 c 128,-1,375
 1297 2094 1297 2094 1295 2094 c 0,376,377
 1285 2094 1285 2094 1276 2080 c 128,-1,378
 1267 2066 1267 2066 1262 2050.5 c 128,-1,379
 1257 2035 1257 2035 1253 2023.5 c 128,-1,380
 1249 2012 1249 2012 1249 2017 c 1,381,382
 1251 2005 1251 2005 1251 1989.5 c 128,-1,383
 1251 1974 1251 1974 1251 1961 c 2,384,-1
 1251 1917 l 2,385,386
 1251 1871 1251 1871 1262 1837 c 1,387,388
 1260 1832 1260 1832 1255 1827 c 1,389,390
 1231 1856 1231 1856 1233.5 1898 c 128,-1,391
 1236 1940 1236 1940 1231 1976 c 1,392,393
 1219 1935 1219 1935 1200.5 1894.5 c 128,-1,394
 1182 1854 1182 1854 1129 1854 c 0,395,396
 1099 1854 1099 1854 1062.5 1866.5 c 128,-1,397
 1026 1879 1026 1879 991 1879 c 0,398,399
 970 1879 970 1879 948 1875 c 128,-1,400
 926 1871 926 1871 911 1871 c 0,401,402
 832 1871 832 1871 799 1935 c 1,403,404
 794 1932 794 1932 801.5 1910.5 c 128,-1,405
 809 1889 809 1889 809 1832 c 1,406,407
 801 1812 801 1812 794 1807 c 1,408,409
 791 1807 791 1807 786 1812 c 1,410,-1
 786 1861 l 2,411,412
 786 1886 786 1886 782.5 1905.5 c 128,-1,413
 779 1925 779 1925 774.5 1942 c 128,-1,414
 770 1959 770 1959 766 1975 c 128,-1,415
 762 1991 762 1991 762 2012 c 1,416,417
 767 2012 767 2012 770 2015 c 1,418,-1
 765 2059 l 2,419,420
 765 2061 765 2061 757 2069 c 1,421,422
 750 2064 750 2064 750 2064 c 2,423,424
 752 2066 752 2066 752 2066 c 1,425,426
 747 2066 747 2066 733 2032.5 c 128,-1,427
 719 1999 719 1999 704 1958 c 128,-1,428
 689 1917 689 1917 677 1883 c 128,-1,429
 665 1849 665 1849 665 1849 c 1,430,431
 665 1815 665 1815 687 1790.5 c 128,-1,432
 709 1766 709 1766 709 1739 c 0,433,434
 709 1715 709 1715 704 1698.5 c 128,-1,435
 699 1682 699 1682 691.5 1669 c 128,-1,436
 684 1656 684 1656 679 1646 c 128,-1,437
 674 1636 674 1636 674 1620 c 0,438,439
 674 1605 674 1605 681.5 1574.5 c 128,-1,440
 689 1544 689 1544 701 1544 c 1,441,-1
 719 1546 l 1,442,-1
 719 1541 l 1,443,-1
 704 1539 l 1,444,-1
 714 1512 l 1,445,-1
 727 1507 l 1,446,-1
 891 1541 l 1,447,-1
 757 1539 l 1,448,449
 757 1541 757 1541 760 1544 c 1,450,451
 755 1549 l 1,452,-1
 757 1551 l 1,453,-1
 799 1554 l 1,454,455
 801 1556 801 1556 809 1556 c 2,456,-1
 830 1556 l 1,457,-1
 884 1556 l 2,458,459
 904 1556 904 1556 929.5 1553.5 c 128,-1,460
 955 1551 955 1551 955 1541 c 0,461,462
 955 1539 955 1539 950 1539 c 2,463,-1
 957 1539 l 2,464,465
 967 1539 967 1539 977 1536 c 1,466,467
 977 1524 977 1524 972 1517 c 1,468,-1
 962 1517 l 1,469,470
 955 1502 955 1502 955 1500 c 1,471,-1
 957 1500 l 1,472,473
 942 1485 942 1485 916.5 1485 c 128,-1,474
 891 1485 891 1485 872 1477 c 1,475,476
 872 1472 872 1472 894 1468 c 128,-1,477
 916 1464 916 1464 937 1464 c 0,478,479
 972 1464 972 1464 1003 1474.5 c 128,-1,480
 1034 1485 1034 1485 1034 1505 c 0,481,482
 1034 1517 1034 1517 1008 1538 c 128,-1,483
 982 1559 982 1559 977 1575 c 1,484,485
 982 1585 l 1,486,-1
 982 1590 l 1,487,488
 1009 1597 1009 1597 1062 1597 c 1,489,490
 1104 1587 1104 1587 1109 1571 c 1,491,-1
 1109 1566 l 1,492,-1
 1052 1510 l 1,493,-1
 1052 1495 l 1,494,495
 1055 1485 1055 1485 1062 1485 c 1,496,-1
 1090 1477 l 2,497,498
 1104 1472 1104 1472 1115 1468 c 128,-1,499
 1126 1464 1126 1464 1147 1464 c 0,500,501
 1190 1464 1190 1464 1216 1482 c 1,502,-1
 1092 1502 l 1,503,-1
 1077 1517 l 1,504,505
 1080 1534 1080 1534 1090 1536 c 1,506,507
 1092 1534 1092 1534 1106 1534 c 0,508,509
 1111 1534 1111 1534 1118.5 1534 c 128,-1,510
 1126 1534 1126 1534 1139 1536 c 1,511,512
 1197 1536 1197 1536 1255.5 1530 c 128,-1,513
 1314 1524 1314 1524 1372 1521 c 1,514,515
 1385 1541 1385 1541 1402 1558 c 128,-1,516
 1419 1575 1419 1575 1419 1600 c 0,517,518
 1419 1617 1419 1617 1408 1638 c 128,-1,519
 1397 1659 1397 1659 1383.5 1679.5 c 128,-1,520
 1370 1700 1370 1700 1359.5 1720.5 c 128,-1,521
 1349 1741 1349 1741 1349 1756 c 0,522,523
 1349 1779 1349 1779 1364.5 1799.5 c 128,-1,524
 1380 1820 1380 1820 1380 1849 c 0,525,526
 1380 1895 1380 1895 1355.5 1938 c 128,-1,527
 1331 1981 1331 1981 1319 2025 c 0,371,372
-69 -15 m 1,528,-1
 -74 -15 l 2,529,530
 -71 -15 -71 -15 -71 -39 c 1,531,-1
 -61 -46 l 1,532,533
 -54 -44 -54 -44 -44 -34 c 1,534,-1
 -69 -15 l 1,528,-1
-95 2 m 1,535,-1
 -103 2 l 1,536,537
 -108 -3 -108 -3 -108 -20 c 0,538,539
 -108 -56 -108 -56 -69.5 -78 c 128,-1,540
 -31 -100 -31 -100 12 -100 c 2,541,-1
 25 -100 l 1,542,-1
 39 -88 l 1,543,544
 39 -64 39 -64 31 -59 c 1,545,-1
 7 -51 l 1,546,547
 -13 -51 -13 -51 -23 -49 c 1,548,-1
 -49 -56 l 1,549,550
 -49 -59 -49 -59 -50 -59 c 128,-1,551
 -51 -59 -51 -59 -51 -61 c 0,552,553
 -51 -64 -51 -64 -44 -64 c 1,554,-1
 -13 -59 l 1,555,-1
 7 -61 l 1,556,557
 12 -71 12 -71 12 -71 c 1,558,559
 12 -74 12 -74 15 -74 c 1,560,561
 5 -85 5 -85 -10 -88 c 1,562,563
 -46 -83 -46 -83 -69.5 -67 c 128,-1,564
 -93 -51 -93 -51 -93 -23 c 0,565,566
 -93 -8 -93 -8 -88 0 c 1,567,-1
 -90 2 l 1,568,-1
 -95 2 l 1,535,-1
-69 95 m 1,569,-1
 -71 97 l 1,570,571
 -74 97 -74 97 -83.5 84 c 128,-1,572
 -93 71 -93 71 -93 59 c 0,573,574
 -93 17 -93 17 -62 1 c 128,-1,575
 -31 -15 -31 -15 -20 -15 c 0,576,577
 -10 -15 -10 -15 -10 -8 c 0,578,579
 -10 -3 -10 -3 -20.5 13 c 128,-1,580
 -31 29 -31 29 -44 29 c 0,581,582
 -49 29 -49 29 -49 22 c 1,583,-1
 -36 15 l 1,584,-1
 -29 0 l 1,585,586
 -29 -3 -29 -3 -36 -3 c 1,587,588
 -49 2 -49 2 -67 18 c 128,-1,589
 -85 34 -85 34 -85 56 c 0,590,591
 -85 69 -85 69 -75.5 77 c 128,-1,592
 -66 85 -66 85 -66 90 c 0,593,594
 -66 92 -66 92 -67.5 92 c 128,-1,595
 -69 92 -69 92 -69 95 c 1,569,-1
-34 156 m 1,596,-1
 -44 151 l 1,597,-1
 -54 110 l 1,598,599
 -49 100 -49 100 -49 97 c 2,600,-1
 -49 95 l 1,601,-1
 -36 79 l 1,602,603
 -34 71 -34 71 -29 61 c 1,604,-1
 -10 59 l 1,605,606
 -5 54 -5 54 -3 54 c 0,607,608
 2 54 2 54 4.5 55 c 128,-1,609
 7 56 7 56 12 56 c 1,610,611
 17 54 l 1,612,-1
 22 69 l 1,613,-1
 5 87 l 1,614,-1
 -23 95 l 1,615,-1
 7 69 l 1,616,617
 5 66 l 1,618,-1
 7 64 l 1,619,620
 5 64 5 64 5 62.5 c 128,-1,621
 5 61 5 61 2 61 c 0,622,623
 0 61 0 61 0 65 c 128,-1,624
 0 69 0 69 -5 69 c 2,625,-1
 -13 69 l 1,626,627
 -29 71 -29 71 -44 122 c 1,628,-1
 -34 156 l 1,596,-1
-10 179 m 1,629,-1
 -13 179 l 1,630,631
 -13 176 -13 176 -14 176 c 128,-1,632
 -15 176 -15 176 -15 174 c 0,633,634
 -15 161 -15 161 8 143 c 128,-1,635
 31 125 31 125 56 125 c 1,636,637
 56 122 56 122 54 122 c 1,638,-1
 54 132 l 1,639,-1
 12 154 l 1,640,-1
 -10 179 l 1,629,-1
2 210 m 1,641,642
 0 207 0 207 0 202 c 1,643,644
 10 179 10 179 28 165 c 128,-1,645
 46 151 46 151 59 151 c 0,646,647
 66 151 66 151 69 154 c 1,648,-1
 17 184 l 1,649,-1
 2 210 l 1,641,642
95 230 m 1,650,-1
 95 222 l 1,651,652
 97 225 97 225 100 225 c 1,653,654
 92 227 92 227 92 230 c 1,655,-1
 95 230 l 1,650,-1
36 254 m 1,656,-1
 34 256 l 1,657,-1
 22 251 l 1,658,659
 20 244 20 244 20 232 c 0,660,661
 20 212 20 212 29.5 202 c 128,-1,662
 39 192 39 192 82 171 c 1,663,664
 92 174 92 174 100 174 c 1,665,-1
 64 192 l 1,666,667
 39 217 39 217 39 254 c 1,668,-1
 36 254 l 1,656,-1
192 322 m 1,669,670
 171 312 171 312 146.5 312 c 128,-1,671
 122 312 122 312 103.5 309.5 c 128,-1,672
 85 307 85 307 72 294 c 128,-1,673
 59 281 59 281 59 246 c 0,674,675
 59 232 59 232 67.5 216 c 128,-1,676
 76 200 76 200 90 192 c 1,677,-1
 120 181 l 1,678,-1
 132 184 l 2,679,680
 141 187 141 187 144 195 c 1,681,682
 144 230 144 230 128 248 c 128,-1,683
 112 266 112 266 97 271 c 1,684,685
 90 271 90 271 90 264 c 0,686,687
 90 259 90 259 102.5 250 c 128,-1,688
 115 241 115 241 127 220 c 1,689,690
 127 215 127 215 117 197 c 1,691,692
 112 195 112 195 112 195 c 1,693,694
 105 195 105 195 95 205 c 2,695,-1
 82 217 l 1,696,-1
 76 217 l 2,697,698
 74 217 74 217 74 220 c 1,699,-1
 71 217 l 1,700,-1
 74 217 l 1,701,702
 66 227 66 227 66 246 c 0,703,704
 66 271 66 271 79 284 c 128,-1,705
 92 297 92 297 111 302 c 128,-1,706
 130 307 130 307 149.5 308.5 c 128,-1,707
 169 310 169 310 184 315 c 1,708,-1
 192 315 l 2,709,710
 200 315 200 315 200 320 c 2,711,-1
 200 322 l 1,712,-1
 192 322 l 1,669,670
1055 325 m 2,713,-1
 999 320 l 1,714,715
 999 300 999 300 995 279.5 c 128,-1,716
 991 259 991 259 991 237 c 0,717,718
 991 207 991 207 1006 192 c 1,719,-1
 1047 197 l 1,720,721
 1062 259 1062 259 1062 305 c 0,722,723
 1062 310 1062 310 1062 317.5 c 128,-1,724
 1062 325 1062 325 1055 325 c 2,713,-1
310 345 m 1,725,-1
 232 337 l 1,726,727
 220 332 220 332 220 320 c 0,728,729
 220 317 220 317 222 315 c 1,730,-1
 337 312 l 1,731,-1
 320 345 l 1,732,-1
 310 345 l 1,725,-1
786 374 m 1,733,-1
 784 374 l 1,734,735
 781 371 781 371 781 369 c 1,736,737
 784 369 784 369 784 367.5 c 128,-1,738
 784 366 784 366 786 366 c 1,739,-1
 786 369 l 1,740,741
 789 371 789 371 789 374 c 1,742,-1
 786 374 l 1,733,-1
745 386 m 1,743,-1
 740 389 l 1,744,745
 735 379 735 379 735 381 c 1,746,747
 735 376 735 376 740 376 c 1,748,749
 742 374 742 374 747 374 c 0,750,751
 750 374 750 374 752 376 c 1,752,753
 750 381 750 381 745 386 c 1,743,-1
1287 405 m 1,754,755
 1270 402 1270 402 1270 389 c 1,756,-1
 1275 389 l 2,757,758
 1282 389 1282 389 1295 402 c 1,759,760
 1287 402 1287 402 1287 405 c 1,754,755
669 584 m 1,761,-1
 660 574 l 2,762,763
 657 571 657 571 652 571 c 2,764,-1
 642 571 l 2,765,766
 637 571 637 571 637 569 c 1,767,-1
 701 550 l 1,768,-1
 669 584 l 1,761,-1
1727 586 m 1,769,-1
 1725 550 l 1,770,771
 1679 535 1679 535 1634.5 522.5 c 128,-1,772
 1590 510 1590 510 1551 502 c 128,-1,773
 1512 494 1512 494 1486.5 489 c 128,-1,774
 1461 484 1461 484 1456 481 c 1,775,776
 1441 479 1441 479 1430 477.5 c 128,-1,777
 1419 476 1419 476 1405 476 c 0,778,779
 1385 476 1385 476 1377 479 c 1,780,781
 1375 476 1375 476 1375 474 c 2,782,-1
 1410 399 l 1,783,784
 1407 394 1407 394 1402 394 c 256,785,786
 1397 394 1397 394 1395 399 c 2,787,-1
 1387 412 l 2,788,789
 1385 415 1385 415 1382 415 c 1,790,791
 1356 396 1356 396 1319 378.5 c 128,-1,792
 1282 361 1282 361 1255 359 c 1,793,794
 1239 327 1239 327 1237.5 294 c 128,-1,795
 1236 261 1236 261 1234 230 c 1,796,797
 1236 217 1236 217 1251 212 c 1,798,799
 1400 241 1400 241 1479.5 260 c 128,-1,800
 1559 279 1559 279 1602.5 302 c 128,-1,801
 1646 325 1646 325 1668 355.5 c 128,-1,802
 1690 386 1690 386 1725 435 c 1,803,804
 1741 476 1741 476 1741 517 c 0,805,806
 1741 552 1741 552 1727 586 c 1,769,-1
645 601 m 2,807,-1
 642 604 l 1,808,809
 635 589 635 589 635 586 c 1,810,-1
 637 586 l 1,811,-1
 640 586 l 1,812,813
 650 589 650 589 652 596 c 1,814,815
 650 596 650 596 645 601 c 2,807,-1
349 606 m 1,816,-1
 345 606 l 1,817,818
 330 555 330 555 330 515 c 0,819,820
 330 499 330 499 333.5 463 c 128,-1,821
 337 427 337 427 344 390.5 c 128,-1,822
 351 354 351 354 358.5 327 c 128,-1,823
 366 300 366 300 374 300 c 1,824,825
 501 256 501 256 618 228 c 128,-1,826
 735 200 735 200 811 200 c 0,827,828
 835 200 835 200 847 202 c 1,829,830
 847 212 847 212 846 233 c 128,-1,831
 845 254 845 254 842.5 275.5 c 128,-1,832
 840 297 840 297 833.5 314.5 c 128,-1,833
 827 332 827 332 819 340 c 1,834,835
 809 335 809 335 794 335 c 2,836,-1
 770 335 l 1,837,-1
 760 335 l 1,838,-1
 742 335 l 2,839,840
 699 335 699 335 689 320 c 128,-1,841
 679 305 679 305 665 291 c 1,842,843
 647 297 647 297 647 296 c 128,-1,844
 647 295 647 295 647 300 c 1,845,-1
 719 447 l 1,846,847
 669 466 669 466 626.5 477.5 c 128,-1,848
 584 489 584 489 541.5 503 c 128,-1,849
 499 517 499 517 453 540.5 c 128,-1,850
 407 564 407 564 351 606 c 1,851,-1
 349 606 l 1,816,-1
617 625 m 1,852,853
 611 622 611 622 609 617 c 2,854,-1
 604 606 l 1,855,856
 604 601 604 601 605 598.5 c 128,-1,857
 606 596 606 596 606 594 c 2,858,-1
 606 589 l 1,859,860
 601 576 601 576 599 576 c 1,861,-1
 599 584 l 1,862,863
 606 579 606 579 610.5 576.5 c 128,-1,864
 615 574 615 574 620 574 c 0,865,866
 622 574 622 574 623.5 579 c 128,-1,867
 625 584 625 584 625 589 c 1,868,-1
 615 604 l 1,869,-1
 622 620 l 1,870,-1
 625 620 l 1,871,872
 622 622 622 622 621 622 c 128,-1,873
 620 622 620 622 617 625 c 1,852,853
1526 637 m 1,874,875
 1521 637 1521 637 1519 633.5 c 128,-1,876
 1517 630 1517 630 1512 630 c 256,877,878
 1507 630 1507 630 1507 633.5 c 128,-1,879
 1507 637 1507 637 1505 637 c 1,880,881
 1497 630 1497 630 1497 625 c 256,882,883
 1497 620 1497 620 1502 620 c 1,884,-1
 1534 632 l 1,885,886
 1529 635 1529 635 1529 635 c 1,887,888
 1526 635 1526 635 1526 637 c 1,874,875
1464 652 m 1,889,-1
 1439 640 l 1,890,-1
 1375 594 l 1,891,892
 1380 589 1380 589 1385 589 c 0,893,894
 1402 589 1402 589 1436 597.5 c 128,-1,895
 1470 606 1470 606 1487 620 c 1,896,-1
 1480 627 l 1,897,-1
 1470 622 l 1,898,-1
 1459 635 l 1,899,-1
 1470 652 l 1,900,-1
 1464 652 l 1,889,-1
555 660 m 1,901,-1
 552 652 l 1,902,903
 547 647 547 647 537 642 c 1,904,905
 537 640 537 640 538.5 636 c 128,-1,906
 540 632 540 632 540 630 c 1,907,-1
 527 617 l 1,908,-1
 589 586 l 1,909,-1
 584 596 l 1,910,911
 584 609 584 609 586.5 607.5 c 128,-1,912
 589 606 589 606 594 611 c 1,913,-1
 594 640 l 1,914,-1
 586 640 l 1,915,916
 586 627 586 627 574 627 c 1,917,-1
 574 609 l 1,918,-1
 564 604 l 1,919,920
 550 609 550 609 550 615 c 1,921,922
 555 625 l 1,923,-1
 561 630 l 1,924,-1
 561 640 l 2,925,926
 561 657 561 657 564 657 c 0,927,928
 566 657 566 657 566 655 c 1,929,-1
 555 660 l 1,901,-1
1661 665 m 1,930,-1
 1641 652 l 1,931,932
 1629 650 1629 650 1619.5 646 c 128,-1,933
 1610 642 1610 642 1598.5 636 c 128,-1,934
 1587 630 1587 630 1566.5 620.5 c 128,-1,935
 1546 611 1546 611 1510 599 c 1,936,937
 1480 594 1480 594 1446 584 c 128,-1,938
 1412 574 1412 574 1385 569 c 1,939,940
 1380 571 1380 571 1375 571 c 1,941,942
 1367 566 1367 566 1367 564 c 2,943,-1
 1367 552 l 1,944,-1
 1367 527 l 2,945,946
 1367 504 1367 504 1377 500 c 128,-1,947
 1387 496 1387 496 1402 496 c 0,948,949
 1451 496 1451 496 1510 513 c 128,-1,950
 1569 530 1569 530 1620 557 c 0,951,952
 1634 564 1634 564 1660.5 575 c 128,-1,953
 1687 586 1687 586 1707 606 c 1,954,-1
 1707 615 l 1,955,956
 1690 645 1690 645 1661 665 c 1,930,-1
525 676 m 1,957,-1
 520 679 l 1,958,-1
 517 665 l 1,959,-1
 504 657 l 1,960,961
 501 642 501 642 496 637 c 1,962,-1
 507 627 l 1,963,964
 507 620 507 620 510 620 c 1,965,966
 510 622 510 622 512 625 c 2,967,-1
 530 674 l 2,968,969
 530 676 530 676 525 676 c 1,957,-1
410 679 m 1,970,-1
 371 650 l 1,971,-1
 364 637 l 1,972,973
 359 632 359 632 359 630 c 1,974,-1
 410 586 l 1,975,976
 430 581 430 581 459.5 565.5 c 128,-1,977
 489 550 489 550 527.5 531 c 128,-1,978
 566 512 566 512 614 495.5 c 128,-1,979
 662 479 662 479 722 474 c 1,980,-1
 727 496 l 2,981,982
 727 499 727 499 730 501 c 1,983,984
 730 512 730 512 719 525 c 1,985,-1
 669 532 l 1,986,-1
 652 542 l 1,987,988
 601 550 601 550 569 572 c 128,-1,989
 537 594 537 594 512 599 c 1,990,991
 486 615 486 615 460.5 627.5 c 128,-1,992
 435 640 435 640 417 662 c 1,993,-1
 415 676 l 1,994,995
 412 679 412 679 410 679 c 1,970,-1
471 681 m 1,996,-1
 479 681 l 2,997,998
 481 681 481 681 481 674 c 1,999,1000
 484 671 484 671 480 668 c 128,-1,1001
 476 665 476 665 471 665 c 0,1002,1003
 464 665 464 665 464 674 c 1,1004,-1
 469 681 l 1,1005,-1
 471 681 l 1,996,-1
1587 684 m 1,1006,-1
 1544 681 l 1,1007,1008
 1539 665 1539 665 1534 665 c 1,1009,-1
 1534 671 l 2,1010,1011
 1534 665 1534 665 1535 662.5 c 128,-1,1012
 1536 660 1536 660 1536 657 c 0,1013,1014
 1536 655 1536 655 1534 655 c 1,1015,-1
 1544 669 l 1,1016,1017
 1544 671 1544 671 1546 671 c 2,1018,-1
 1554 671 l 1,1019,1020
 1556 665 1556 665 1556 660 c 0,1021,1022
 1556 652 1556 652 1550 647 c 128,-1,1023
 1544 642 1544 642 1544 637 c 2,1024,-1
 1544 640 l 1,1025,1026
 1546 640 1546 640 1548.5 638.5 c 128,-1,1027
 1551 637 1551 637 1556 637 c 1,1028,1029
 1577 647 1577 647 1603 658 c 128,-1,1030
 1629 669 1629 669 1644 684 c 1,1031,-1
 1587 684 l 1,1006,-1
447 694 m 1,1032,1033
 435 689 435 689 433.5 687.5 c 128,-1,1034
 432 686 432 686 432 681 c 256,1035,1036
 432 676 432 676 437 671 c 1,1037,-1
 466 650 l 1,1038,1039
 471 650 471 650 472.5 646 c 128,-1,1040
 474 642 474 642 479 642 c 2,1041,-1
 481 642 l 1,1042,1043
 481 645 481 645 480 645 c 128,-1,1044
 479 645 479 645 479 647 c 0,1045,1046
 479 657 479 657 486 671 c 0,1047,1048
 489 679 489 679 494 686 c 1,1049,1050
 496 686 496 686 499 684 c 1,1051,-1
 447 694 l 1,1032,1033
1339 804 m 1,1052,-1
 1267 422 l 1,1053,-1
 1309 422 l 1,1054,-1
 1321 430 l 1,1055,-1
 1356 435 l 1,1056,1057
 1356 450 1356 450 1345 462 c 128,-1,1058
 1334 474 1334 474 1334 507 c 0,1059,1060
 1334 547 1334 547 1340 570.5 c 128,-1,1061
 1346 594 1346 594 1355.5 607 c 128,-1,1062
 1365 620 1365 620 1378.5 628.5 c 128,-1,1063
 1392 637 1392 637 1407 650 c 1,1064,-1
 1392 691 l 1,1065,-1
 1339 804 l 1,1052,-1
719 837 m 1,1066,-1
 714 837 l 1,1067,1068
 699 821 699 821 685 795.5 c 128,-1,1069
 671 770 671 770 659 743 c 128,-1,1070
 647 716 647 716 641 690.5 c 128,-1,1071
 635 665 635 665 635 652 c 0,1072,1073
 635 637 635 637 654.5 620.5 c 128,-1,1074
 674 604 674 604 696.5 582.5 c 128,-1,1075
 719 561 719 561 738 532.5 c 128,-1,1076
 757 504 757 504 757 469 c 0,1077,1078
 757 437 757 437 747 410 c 1,1079,1080
 750 399 750 399 760 399 c 2,1081,-1
 816 396 l 1,1082,1083
 806 425 806 425 800 457 c 128,-1,1084
 794 489 794 489 790 519.5 c 128,-1,1085
 786 550 786 550 781 574.5 c 128,-1,1086
 776 599 776 599 767 615 c 1,1087,1088
 735 694 735 694 719 837 c 1,1066,-1
1249 1416 m 1,1089,1090
 1234 1400 1234 1400 1174 1382.5 c 128,-1,1091
 1114 1365 1114 1365 1055 1351 c 1,1092,1093
 1034 1356 1034 1356 1016.5 1356 c 128,-1,1094
 999 1356 999 1356 977 1365 c 1,1095,1096
 940 1367 940 1367 903.5 1382 c 128,-1,1097
 867 1397 867 1397 840 1407 c 1,1098,-1
 840 1390 l 2,1099,1100
 840 1362 840 1362 829.5 1332 c 128,-1,1101
 819 1302 819 1302 809 1277 c 1,1102,1103
 784 1204 784 1204 773 1133 c 128,-1,1104
 762 1062 762 1062 762 989 c 0,1105,1106
 762 891 762 891 775.5 795 c 128,-1,1107
 789 699 789 699 806 601 c 1,1108,1109
 837 494 837 494 846 394.5 c 128,-1,1110
 855 295 855 295 870 192 c 1,1111,1112
 867 184 867 184 859.5 179 c 128,-1,1113
 852 174 852 174 850 169 c 1,1114,-1
 847 149 l 2,1115,1116
 847 146 847 146 852 146 c 1,1117,-1
 852 149 l 1,1118,-1
 855 149 l 1,1119,1120
 857 151 857 151 860 151 c 1,1121,1122
 865 146 865 146 867 141 c 1,1123,-1
 862 122 l 1,1124,-1
 870 122 l 1,1125,-1
 889 190 l 1,1126,-1
 899 195 l 1,1127,1128
 904 190 904 190 906.5 191 c 128,-1,1129
 909 192 909 192 909 184 c 0,1130,1131
 909 171 909 171 904 157.5 c 128,-1,1132
 899 144 899 144 899 132 c 0,1133,1134
 899 115 899 115 904 110 c 1,1135,1136
 904 125 904 125 909 125 c 1,1137,1138
 919 120 919 120 920 112.5 c 128,-1,1139
 921 105 921 105 924 105 c 0,1140,1141
 931 105 931 105 937 110 c 1,1142,1143
 935 122 935 122 927 135.5 c 128,-1,1144
 919 149 919 149 919 161 c 0,1145,1146
 919 164 919 164 920 170 c 128,-1,1147
 921 176 921 176 926 176 c 256,1148,1149
 931 176 931 176 941.5 149 c 128,-1,1150
 952 122 952 122 965 117 c 0,1151,1152
 967 117 967 117 968.5 118.5 c 128,-1,1153
 970 120 970 120 972 120 c 1,1154,-1
 972 117 l 1,1155,-1
 965 151 l 1,1156,1157
 967 154 967 154 972 154 c 1,1158,1159
 972 151 972 151 985 139 c 1,1160,1161
 989 139 989 139 989 135.5 c 128,-1,1162
 989 132 989 132 991 132 c 1,1163,-1
 991 139 l 1,1164,-1
 989 139 l 1,1165,1166
 989 141 989 141 992.5 148.5 c 128,-1,1167
 996 156 996 156 996 169 c 0,1168,1169
 996 179 996 179 982 192 c 1,1170,-1
 980 192 l 2,1171,1172
 977 192 977 192 975 195 c 1,1173,-1
 960 207 l 1,1174,1175
 955 220 955 220 955 234.5 c 128,-1,1176
 955 249 955 249 955 261 c 0,1177,1178
 955 327 955 327 972 404 c 128,-1,1179
 989 481 989 481 989 564 c 0,1180,1181
 989 637 989 637 982 709 c 128,-1,1182
 975 781 975 781 970 847 c 0,1183,1184
 970 850 970 850 972.5 855 c 128,-1,1185
 975 860 975 860 980 860 c 0,1186,1187
 991 860 991 860 1001 825.5 c 128,-1,1188
 1011 791 1011 791 1017.5 745 c 128,-1,1189
 1024 699 1024 699 1027.5 652.5 c 128,-1,1190
 1031 606 1031 606 1031 586 c 0,1191,1192
 1031 527 1031 527 1022.5 468.5 c 128,-1,1193
 1014 410 1014 410 1001 351 c 1,1194,1195
 1016 345 1016 345 1026 345 c 0,1196,1197
 1047 345 1047 345 1067 359 c 1,1198,-1
 1070 396 l 2,1199,1200
 1072 422 1072 422 1073.5 445.5 c 128,-1,1201
 1075 469 1075 469 1075 491 c 0,1202,1203
 1075 527 1075 527 1073.5 564 c 128,-1,1204
 1072 601 1072 601 1072 637 c 0,1205,1206
 1072 660 1072 660 1077 697.5 c 128,-1,1207
 1082 735 1082 735 1090.5 772 c 128,-1,1208
 1099 809 1099 809 1106.5 835.5 c 128,-1,1209
 1114 862 1114 862 1121 862 c 1,1210,1211
 1126 857 1126 857 1126 847 c 0,1212,1213
 1126 832 1126 832 1119 809 c 1,1214,1215
 1111 752 1111 752 1108.5 697 c 128,-1,1216
 1106 642 1106 642 1106 584 c 0,1217,1218
 1106 532 1106 532 1107.5 478.5 c 128,-1,1219
 1109 425 1109 425 1109 374 c 0,1220,1221
 1109 312 1109 312 1099.5 281.5 c 128,-1,1222
 1090 251 1090 251 1085 212 c 1,1223,1224
 1096 187 1096 187 1091.5 168 c 128,-1,1225
 1087 149 1087 149 1109 127 c 1,1226,-1
 1114 127 l 1,1227,-1
 1116 159 l 1,1228,-1
 1126 164 l 1,1229,-1
 1136 146 l 1,1230,-1
 1141 146 l 1,1231,1232
 1147 151 1147 151 1147 161 c 0,1233,1234
 1147 174 1147 174 1134 205 c 0,1235,1236
 1134 207 1134 207 1139 212 c 1,1237,1238
 1152 212 1152 212 1159.5 191.5 c 128,-1,1239
 1167 171 1167 171 1167 161 c 0,1240,1241
 1167 149 1167 149 1159.5 138 c 128,-1,1242
 1152 127 1152 127 1152 120 c 1,1243,-1
 1172 122 l 1,1244,1245
 1177 127 1177 127 1177 132 c 2,1246,-1
 1177 139 l 1,1247,-1
 1175 136 l 1,1248,-1
 1185 141 l 1,1249,1250
 1187 139 1187 139 1195 139 c 1,1251,1252
 1209 151 1209 151 1209 166 c 0,1253,1254
 1209 187 1209 187 1195.5 192 c 128,-1,1255
 1182 197 1182 197 1182 205 c 0,1256,1257
 1182 207 1182 207 1182 212 c 128,-1,1258
 1182 217 1182 217 1187 217 c 1,1259,1260
 1197 212 1197 212 1203 209.5 c 128,-1,1261
 1209 207 1209 207 1211 205 c 1,1262,-1
 1229 159 l 1,1263,-1
 1239 156 l 1,1264,1265
 1244 166 1244 166 1244 171 c 0,1266,1267
 1244 184 1244 184 1231 205 c 1,1268,-1
 1197 217 l 1,1269,1270
 1190 241 1190 241 1190 264 c 0,1271,1272
 1190 300 1190 300 1200.5 335.5 c 128,-1,1273
 1211 371 1211 371 1224 407 c 1,1274,1275
 1300 679 1300 679 1300 940 c 0,1276,1277
 1300 1136 1300 1136 1260 1319 c 1,1278,1279
 1249 1341 1249 1341 1249 1416 c 1,1089,1090
1039 1467 m 1,1280,1281
 1019 1459 1019 1459 1014 1454 c 1,1282,-1
 1052 1459 l 1,1283,-1
 1042 1467 l 1,1284,-1
 1039 1467 l 1,1280,1281
832 1470 m 1,1285,-1
 796 1467 l 1,1286,1287
 794 1459 794 1459 794 1456 c 0,1288,1289
 794 1451 794 1451 827 1438.5 c 128,-1,1290
 860 1426 860 1426 903.5 1414 c 128,-1,1291
 947 1402 947 1402 990.5 1393.5 c 128,-1,1292
 1034 1385 1034 1385 1055 1385 c 1,1293,1294
 1106 1380 1106 1380 1161 1404.5 c 128,-1,1295
 1216 1429 1216 1429 1241 1444 c 2,1296,-1
 1275 1464 l 1,1297,1298
 1270 1467 1270 1467 1266 1465.5 c 128,-1,1299
 1262 1464 1262 1464 1257 1470 c 1,1300,1301
 1224 1464 1224 1464 1194.5 1450 c 128,-1,1302
 1165 1436 1165 1436 1134 1436 c 0,1303,1304
 1119 1436 1119 1436 1107.5 1441 c 128,-1,1305
 1096 1446 1096 1446 1090 1446 c 0,1306,1307
 1077 1446 1077 1446 1061 1436 c 128,-1,1308
 1045 1426 1045 1426 1024 1426 c 0,1309,1310
 999 1426 999 1426 980 1441 c 1,1311,1312
 967 1436 967 1436 945 1436 c 0,1313,1314
 914 1436 914 1436 885.5 1446 c 128,-1,1315
 857 1456 857 1456 832 1470 c 1,1285,-1
1472 1497 m 1,1316,-1
 1554 1485 l 1,1317,-1
 1467 1492 l 1,1318,1319
 1461 1502 1461 1502 1461 1502 c 257,1320,1321
 1472 1497 l 1,1316,-1
899 1517 m 1,1322,1323
 881 1512 881 1512 854 1509.5 c 128,-1,1324
 827 1507 827 1507 803 1504.5 c 128,-1,1325
 779 1502 779 1502 759.5 1499.5 c 128,-1,1326
 740 1497 740 1497 737 1490 c 1,1327,-1
 755 1475 l 1,1328,-1
 765 1472 l 1,1329,-1
 921 1515 l 1,1330,-1
 899 1517 l 1,1322,1323
732 1549 m 1,1331,-1
 747 1546 l 1,1332,-1
 747 1541 l 1,1333,-1
 727 1546 l 1,1334,-1
 732 1549 l 1,1331,-1
1036 1580 m 1,1335,-1
 1001 1575 l 1,1336,-1
 999 1571 l 2,1337,1338
 999 1569 999 1569 1001 1569 c 2,1339,-1
 1034 1559 l 2,1340,1341
 1036 1559 1036 1559 1036 1560 c 128,-1,1342
 1036 1561 1036 1561 1039 1561 c 256,1343,1344
 1042 1561 1042 1561 1042 1560 c 128,-1,1345
 1042 1559 1042 1559 1045 1559 c 1,1346,-1
 1055 1536 l 1,1347,1348
 1060 1556 1060 1556 1063.5 1560 c 128,-1,1349
 1067 1564 1067 1564 1077 1564 c 2,1350,-1
 1082 1564 l 1,1351,1352
 1082 1566 1082 1566 1083.5 1566 c 128,-1,1353
 1085 1566 1085 1566 1085 1569 c 2,1354,-1
 1085 1571 l 1,1355,-1
 1036 1580 l 1,1335,-1
875 1692 m 2,1356,1357
 909 1695 909 1695 947 1670.5 c 128,-1,1358
 985 1646 985 1646 985 1607 c 0,1359,1360
 985 1590 985 1590 977 1590 c 0,1361,1362
 972 1590 972 1590 969.5 1596 c 128,-1,1363
 967 1602 967 1602 960 1602 c 1,1364,1365
 947 1597 947 1597 939 1593.5 c 128,-1,1366
 931 1590 931 1590 919 1590 c 0,1367,1368
 877 1590 877 1590 845 1622 c 1,1369,-1
 821 1661 l 1,1370,-1
 819 1666 l 1,1371,-1
 799 1674 l 1,1372,1373
 796 1674 796 1674 796 1679 c 2,1374,-1
 796 1682 l 2,1375,1376
 796 1685 796 1685 799 1687 c 1,1377,-1
 875 1692 l 2,1356,1357
960 1837 m 1,1378,-1
 926 1725 l 1,1379,-1
 911 1725 l 2,1380,1381
 909 1725 909 1725 909 1727 c 1,1382,-1
 906 1730 l 1,1383,-1
 894 1727 l 2,1384,1385
 891 1727 891 1727 889 1730 c 1,1386,-1
 872 1830 l 1,1387,1388
 877 1822 877 1822 883 1809.5 c 128,-1,1389
 889 1797 889 1797 892.5 1783 c 128,-1,1390
 896 1769 896 1769 898.5 1759 c 128,-1,1391
 901 1749 901 1749 904 1749 c 0,1392,1393
 906 1749 906 1749 907.5 1773 c 128,-1,1394
 909 1797 909 1797 914 1812 c 1,1395,-1
 919 1761 l 1,1396,1397
 921 1759 l 1,1398,-1
 924 1761 l 1,1399,-1
 957 1837 l 1,1400,-1
 960 1837 l 1,1378,-1
1272 1707 m 1,1401,-1
 1282 1705 l 1,1402,-1
 1282 1695 l 2,1403,1404
 1282 1690 1282 1690 1272 1687 c 1,1405,1406
 1231 1595 1231 1595 1180 1595 c 0,1407,1408
 1167 1595 1167 1595 1155.5 1598.5 c 128,-1,1409
 1144 1602 1144 1602 1131 1605 c 1,1410,1411
 1126 1605 1126 1605 1126 1596 c 128,-1,1412
 1126 1587 1126 1587 1121 1587 c 0,1413,1414
 1106 1587 1106 1587 1106 1607 c 0,1415,1416
 1106 1636 1106 1636 1134 1663 c 128,-1,1417
 1162 1690 1162 1690 1204 1702 c 1,1418,1419
 1211 1702 1211 1702 1220 1701 c 128,-1,1420
 1229 1700 1229 1700 1236 1700 c 0,1421,1422
 1251 1700 1251 1700 1272 1707 c 1,1401,-1
1236 1795 m 1,1423,-1
 1219 1741 l 1,1424,1425
 1214 1739 1214 1739 1211 1739 c 0,1426,1427
 1209 1739 1209 1739 1209 1736 c 1,1428,-1
 1234 1795 l 1,1429,-1
 1236 1795 l 1,1423,-1
1190 1805 m 1,1430,-1
 1190 1741 l 1,1431,1432
 1185 1739 1185 1739 1180 1739 c 0,1433,1434
 1177 1739 1177 1739 1177 1736 c 2,1435,-1
 1177 1732 l 1,1436,1437
 1182 1736 1182 1736 1182 1736 c 1,1438,1439
 1182 1732 1182 1732 1177 1744 c 1,1440,-1
 1187 1805 l 1,1441,-1
 1190 1805 l 1,1430,-1
1155 1810 m 1,1442,-1
 1170 1732 l 2,1443,1444
 1170 1727 1170 1727 1162 1727 c 1,1445,1446
 1152 1749 1152 1749 1152 1769.5 c 128,-1,1447
 1152 1790 1152 1790 1152 1810 c 1,1448,-1
 1155 1810 l 1,1442,-1
852 1666 m 1,1449,-1
 850 1666 l 1,1450,-1
 850 1664 l 2,1451,1452
 850 1649 850 1649 872 1625 c 1,1453,-1
 899 1615 l 1,1454,1455
 899 1620 899 1620 897.5 1622.5 c 128,-1,1456
 896 1625 896 1625 896 1631 c 0,1457,1458
 896 1651 896 1651 906 1661 c 1,1459,-1
 852 1666 l 1,1449,-1
1707 1964 m 1,1460,1461
 1671 1951 1671 1951 1658.5 1931.5 c 128,-1,1462
 1646 1912 1646 1912 1646 1881 c 0,1463,1464
 1646 1864 1646 1864 1654 1841 c 1,1465,1466
 1720 1712 1720 1712 1720 1577 c 0,1467,1468
 1720 1492 1720 1492 1694.5 1410.5 c 128,-1,1469
 1669 1329 1669 1329 1629.5 1253 c 128,-1,1470
 1590 1177 1590 1177 1542.5 1108 c 128,-1,1471
 1495 1039 1495 1039 1454 982 c 1,1472,1473
 1434 942 1434 942 1408 904.5 c 128,-1,1474
 1382 867 1382 867 1372 816 c 1,1475,1476
 1375 809 1375 809 1382.5 787 c 128,-1,1477
 1390 765 1390 765 1400 742 c 128,-1,1478
 1410 719 1410 719 1419.5 701.5 c 128,-1,1479
 1429 684 1429 684 1434 684 c 1,1480,-1
 1436 686 l 1,1481,1482
 1444 740 1444 740 1469.5 780.5 c 128,-1,1483
 1495 821 1495 821 1515 870 c 1,1484,1485
 1546 924 1546 924 1581.5 987 c 128,-1,1486
 1617 1050 1617 1050 1664 1119 c 0,1487,1488
 1736 1226 1736 1226 1786.5 1350.5 c 128,-1,1489
 1837 1475 1837 1475 1837 1644 c 0,1490,1491
 1837 1710 1837 1710 1822 1795.5 c 128,-1,1492
 1807 1881 1807 1881 1764 1932 c 1,1493,-1
 1754 1942 l 2,1494,1495
 1751 1945 1751 1945 1751 1949 c 1,1496,1497
 1751 1945 1751 1945 1754 1942 c 1,1498,1499
 1732 1964 1732 1964 1712 1964 c 2,1500,-1
 1707 1964 l 1,1460,1461
924 1656 m 1,1501,-1
 921 1656 l 1,1502,1503
 924 1651 924 1651 924 1644 c 0,1504,1505
 924 1634 924 1634 919 1624.5 c 128,-1,1506
 914 1615 914 1615 914 1607 c 1,1507,1508
 919 1607 919 1607 920 1606 c 128,-1,1509
 921 1605 921 1605 926 1605 c 0,1510,1511
 937 1605 937 1605 957 1615 c 1,1512,1513
 952 1622 952 1622 924 1656 c 1,1501,-1
1172 1664 m 1,1514,1515
 1152 1654 1152 1654 1146.5 1638 c 128,-1,1516
 1141 1622 1141 1622 1141 1620 c 2,1517,-1
 1141 1617 l 1,1518,-1
 1165 1610 l 1,1519,1520
 1170 1610 1170 1610 1171 1611 c 128,-1,1521
 1172 1612 1172 1612 1175 1612 c 2,1522,-1
 1180 1612 l 1,1523,1524
 1170 1631 1170 1631 1170 1649 c 0,1525,1526
 1170 1659 1170 1659 1172 1664 c 1,1514,1515
1209 1682 m 1,1527,1528
 1204 1676 1204 1676 1198 1676 c 128,-1,1529
 1192 1676 1192 1676 1190 1674 c 2,1530,-1
 1185 1671 l 1,1531,1532
 1185 1666 1185 1666 1192 1664 c 1,1533,-1
 1197 1615 l 1,1534,1535
 1221 1631 1221 1631 1231 1650 c 128,-1,1536
 1241 1669 1241 1669 1244 1682 c 1,1537,-1
 1209 1682 l 1,1527,1528
1239 1495 m 1,1538,-1
 1295 1475 l 1,1539,1540
 1311 1477 1311 1477 1311 1485 c 1,1541,-1
 1239 1495 l 1,1538,-1
1287 1510 m 1,1542,-1
 1336 1495 l 1,1543,-1
 1339 1497 l 1,1544,1545
 1341 1497 1341 1497 1341 1498.5 c 128,-1,1546
 1341 1500 1341 1500 1344 1500 c 1,1547,1548
 1344 1505 1344 1505 1341 1507 c 1,1549,-1
 1287 1510 l 1,1542,-1
EndSplineSet
EndChar

StartChar: comma
Encoding: 44 44 4
Width: 502
Flags: W
VStem: 15 485
LayerCount: 2
Fore
SplineSet
234 545 m 1,0,-1
 500 140 l 1,1,-1
 15 -510 l 1,2,-1
 234 545 l 1,0,-1
EndSplineSet
EndChar

StartChar: period
Encoding: 46 46 5
Width: 505
Flags: W
HStem: 31 480
VStem: 12 480
LayerCount: 2
Fore
SplineSet
252 511 m 1,0,-1
 492 271 l 1,1,-1
 252 31 l 1,2,-1
 12 271 l 1,3,-1
 252 511 l 1,0,-1
EndSplineSet
EndChar

StartChar: longs_c_h
Encoding: 1114115 -1 6
Width: 1787
Flags: W
VStem: 46 79<-381.228 -328.023> 139 269<245.094 1066.65> 989 245<440.778 739.558 1010 1208.88>
LayerCount: 2
Fore
SplineSet
701 1164 m 1,0,1
 664 1186 664 1186 565.5 1207.5 c 128,-1,2
 467 1229 467 1229 416 1235 c 1,3,4
 381 1185 381 1185 365 1160 c 1,5,6
 414 1057 414 1057 408 839.5 c 128,-1,7
 402 622 402 622 399 434 c 0,8,9
 397 351 397 351 337 153.5 c 128,-1,10
 277 -44 277 -44 125 -419 c 1,11,12
 94 -388 94 -388 46 -378 c 1,13,14
 115 -130 115 -130 132 219.5 c 128,-1,15
 149 569 149 569 139 960 c 0,16,17
 136 1042 136 1042 57 1106 c 1,18,19
 144 1197 144 1197 208 1279.5 c 128,-1,20
 272 1362 272 1362 359 1455 c 1,21,22
 481 1455 481 1455 590 1437 c 128,-1,23
 699 1419 699 1419 801 1404 c 0,24,25
 951 1381 951 1381 1098.5 1393.5 c 128,-1,26
 1246 1406 1246 1406 1419 1519 c 1,27,28
 1484 1471 1484 1471 1515 1447 c 1,29,30
 1361 1380 1361 1380 1297.5 1285.5 c 128,-1,31
 1234 1191 1234 1191 1234 1059 c 2,32,-1
 1234 941 l 1,33,-1
 1457 1110 l 1,34,35
 1754 830 1754 830 1722 470 c 128,-1,36
 1690 110 1690 110 1416 -309 c 1,37,-1
 1269 -263 l 1,38,39
 1497 -10 1497 -10 1493 305 c 128,-1,40
 1489 620 1489 620 1232 841 c 1,41,-1
 1231 471 l 2,42,43
 1230 396 1230 396 1277.5 357.5 c 128,-1,44
 1325 319 1325 319 1390 292 c 1,45,46
 1334 231 1334 231 1279 170 c 128,-1,47
 1224 109 1224 109 1169 49 c 1,48,-1
 921 237 l 1,49,-1
 754 62 l 1,50,51
 447 279 447 279 454 564 c 1,52,53
 456 699 456 699 539 832.5 c 128,-1,54
 622 966 622 966 810 1127 c 1,55,56
 854 1097 854 1097 899 1068 c 128,-1,57
 944 1039 944 1039 989 1010 c 1,58,-1
 990 1082 l 2,59,60
 990 1147 990 1147 942 1213 c 128,-1,61
 894 1279 894 1279 826 1319 c 1,62,-1
 701 1164 l 1,0,1
982 440 m 1,63,64
 985 465 985 465 985 477 c 2,65,-1
 987 709 l 1,66,67
 934 746 934 746 882.5 786 c 128,-1,68
 831 826 831 826 772 854 c 0,69,70
 737 870 737 870 709 841 c 1,71,72
 629 752 629 752 659 634.5 c 128,-1,73
 689 517 689 517 802 401 c 1,74,75
 896 302 896 302 982 440 c 1,63,64
EndSplineSet
Ligature2: "'rlig' Required Ligatures in Latin lookup 2-1" longs afii301 c afii301 h
Ligature2: "'liga' Standard Ligatures lookup 0-1" longs c h
Ligature2: "'liga' Standard Ligatures lookup 0-1" longs c_h
EndChar

StartChar: longs_s
Encoding: 1114116 -1 7
Width: 1278
Flags: W
HStem: 31 21G<788.5 964> 1060 20G<686.5 896.5>
VStem: 35 79<-381.638 -328.023> 127 269.5<245.094 1070.73>
LayerCount: 2
Fore
SplineSet
709 1146 m 1,0,1
 509 1222 509 1222 405 1235 c 1,2,3
 370 1185 370 1185 354 1160 c 1,4,5
 402 1057 402 1057 396.5 839.5 c 128,-1,6
 391 622 391 622 387 434 c 0,7,8
 386 351 386 351 326 153.5 c 128,-1,9
 266 -44 266 -44 114 -419 c 1,10,11
 82 -388 82 -388 35 -378 c 1,12,13
 104 -130 104 -130 120.5 219.5 c 128,-1,14
 137 569 137 569 127 960 c 0,15,16
 125 1042 125 1042 46 1106 c 1,17,18
 132 1197 132 1197 196.5 1279.5 c 128,-1,19
 261 1362 261 1362 347 1455 c 1,20,21
 447 1455 447 1455 554 1437.5 c 128,-1,22
 661 1420 661 1420 889 1366 c 1,23,24
 844 1310 844 1310 799 1255.5 c 128,-1,25
 754 1201 754 1201 709 1146 c 1,0,1
408 217 m 1,26,-1
 582 399 l 1,27,28
 488 525 488 525 449 684 c 1,29,30
 569 882 569 882 804 1080 c 1,31,32
 989 1029 989 1029 1228 984 c 1,33,-1
 1252 990 l 1,34,-1
 1243 981 l 1,35,-1
 1064 797 l 1,36,-1
 1228 386 l 1,37,38
 1042 247 1042 247 886 31 c 1,39,40
 691 146 691 146 408 217 c 1,26,-1
894 622 m 1,41,-1
 654 375 l 1,42,43
 784 300 784 300 891.5 288.5 c 128,-1,44
 999 277 999 277 1026 315 c 1,45,46
 1057 362 1057 362 1010 444 c 128,-1,47
 963 526 963 526 894 622 c 1,41,-1
779 604 m 1,48,-1
 973 804 l 1,49,50
 697 879 697 879 672 835 c 1,51,52
 648 790 648 790 779 604 c 1,48,-1
EndSplineSet
Ligature2: "'rlig' Required Ligatures in Latin lookup 2-1" longs afii301 s
Ligature2: "'liga' Standard Ligatures lookup 0-1" longs s
EndChar

StartChar: t_z
Encoding: 1114117 -1 8
Width: 1019
Flags: W
HStem: 31 21G<280.5 345.5> 875 205<382 642.558>
VStem: 135 245<369.328 875>
LayerCount: 2
Fore
SplineSet
645 870 m 1,0,1
 574 870 574 870 509.5 875 c 128,-1,2
 445 880 445 880 382 880 c 1,3,-1
 380 454 l 2,4,5
 380 379 380 379 393.5 369 c 128,-1,6
 407 359 407 359 540 275 c 1,7,8
 484 214 484 214 429 152.5 c 128,-1,9
 374 91 374 91 317 31 c 1,10,11
 244 87 244 87 170 143.5 c 128,-1,12
 96 200 96 200 24 256 c 1,13,14
 91 315 91 315 112.5 365 c 128,-1,15
 134 415 134 415 135 460 c 2,16,-1
 139 875 l 1,17,-1
 52 875 l 1,18,-1
 52 954 l 1,19,20
 139 1079 139 1079 224.5 1205 c 128,-1,21
 310 1331 310 1331 396 1459 c 1,22,-1
 447 1451 l 1,23,24
 424 1342 424 1342 402 1263 c 128,-1,25
 380 1184 380 1184 376 1080 c 1,26,27
 477 1071 477 1071 588 1070 c 128,-1,28
 699 1069 699 1069 856 1084 c 1,29,-1
 926 1005 l 1,30,-1
 739 717 l 1,31,32
 1005 459 1005 459 883.5 122 c 128,-1,33
 762 -215 762 -215 362 -479 c 1,34,-1
 357 -299 l 1,35,36
 547 -223 547 -223 621.5 -93.5 c 128,-1,37
 696 36 696 36 711 127 c 1,38,39
 741 327 741 327 436 474 c 1,40,-1
 645 870 l 1,0,1
EndSplineSet
Ligature2: "'rlig' Required Ligatures in Latin lookup 2-1" t afii301 z
Ligature2: "'liga' Standard Ligatures lookup 0-1" t z
Ligature2: "'rlig' Required Ligatures in Latin lookup 2-1" t z
EndChar

StartChar: f_t
Encoding: 1114118 -1 9
Width: 1037
Flags: W
HStem: 31 21G<742.5 807.5> 875 221<407 600 846 1024>
VStem: 41 83<-350.36 -298.965> 134 269.5<257.685 875> 596 246<369.328 875>
LayerCount: 2
Fore
SplineSet
611 1096 m 1,0,-1
 857 1459 l 1,1,-1
 909 1451 l 1,2,3
 885 1342 885 1342 867.5 1271.5 c 128,-1,4
 850 1201 850 1201 846 1096 c 1,5,-1
 1024 1096 l 1,6,-1
 1024 880 l 1,7,-1
 845 880 l 1,8,-1
 842 454 l 2,9,10
 841 379 841 379 855 369 c 128,-1,11
 869 359 869 359 1001 275 c 1,12,13
 945 214 945 214 890 152.5 c 128,-1,14
 835 91 835 91 780 31 c 1,15,16
 705 87 705 87 632 143.5 c 128,-1,17
 559 200 559 200 485 256 c 1,18,19
 552 315 552 315 574 365 c 128,-1,20
 596 415 596 415 596 460 c 2,21,-1
 600 875 l 1,22,-1
 407 875 l 1,23,24
 407 782 407 782 403.5 662 c 128,-1,25
 400 542 400 542 399 456 c 1,26,27
 396 374 396 374 336 177 c 128,-1,28
 276 -20 276 -20 124 -395 c 1,29,30
 86 -358 86 -358 41 -346 c 1,31,32
 110 -100 110 -100 127 249.5 c 128,-1,33
 144 599 144 599 134 991 c 0,34,35
 131 1072 131 1072 52 1136 c 1,36,37
 139 1227 139 1227 210 1316 c 128,-1,38
 281 1405 281 1405 367 1497 c 1,39,40
 460 1486 460 1486 553.5 1466 c 128,-1,41
 647 1446 647 1446 749 1426 c 1,42,43
 704 1371 704 1371 659 1316 c 128,-1,44
 614 1261 614 1261 569 1206 c 1,45,46
 495 1249 495 1249 416 1259 c 1,47,48
 399 1232 399 1232 364 1182 c 1,49,50
 379 1150 379 1150 389 1096 c 1,51,-1
 611 1096 l 1,0,-1
EndSplineSet
Ligature2: "'rlig' Required Ligatures in Latin lookup 2-1" f afii301 t
Ligature2: "'liga' Standard Ligatures lookup 0-1" f t
EndChar

StartChar: t
Encoding: 116 116 10
Width: 580
Flags: W
HStem: 31 21G<275.5 340.5> 880 216<380 556>
VStem: 130 245<369.328 875>
LayerCount: 2
Fore
SplineSet
47 954 m 1,0,1
 134 1079 134 1079 219.5 1205 c 128,-1,2
 305 1331 305 1331 391 1459 c 1,3,-1
 442 1451 l 1,4,5
 419 1342 419 1342 401.5 1271.5 c 128,-1,6
 384 1201 384 1201 380 1096 c 1,7,-1
 556 1096 l 1,8,-1
 556 880 l 1,9,-1
 377 880 l 1,10,-1
 375 454 l 2,11,12
 375 379 375 379 388.5 369 c 128,-1,13
 402 359 402 359 535 275 c 1,14,15
 479 214 479 214 424 152.5 c 128,-1,16
 369 91 369 91 312 31 c 1,17,18
 239 87 239 87 165 143.5 c 128,-1,19
 91 200 91 200 19 256 c 1,20,21
 86 315 86 315 107.5 365 c 128,-1,22
 129 415 129 415 130 460 c 2,23,-1
 134 875 l 1,24,-1
 47 875 l 1,25,-1
 47 954 l 1,0,1
EndSplineSet
EndChar

StartChar: uniFB02
Encoding: 64258 64258 11
Width: 1005
Flags: W
HStem: 829 252<405 519> 1515 20G<833.737 857.5>
VStem: 131 270<252.286 829> 591 244<352.328 1204.69>
LayerCount: 2
Fore
SplineSet
694 1440 m 1,0,-1
 871 1535 l 1,1,2
 844 1415 844 1415 839.5 1286 c 128,-1,3
 835 1157 835 1157 835 1024 c 2,4,-1
 831 437 l 2,5,6
 831 362 831 362 845 352 c 128,-1,7
 859 342 859 342 991 259 c 1,8,9
 935 197 935 197 879.5 136 c 128,-1,10
 824 75 824 75 769 15 c 1,11,12
 695 71 695 71 621 127.5 c 128,-1,13
 547 184 547 184 475 240 c 1,14,15
 542 299 542 299 563.5 349 c 128,-1,16
 585 399 585 399 586 444 c 2,17,-1
 591 1049 l 2,18,19
 591 1081 591 1081 590.5 1122.5 c 128,-1,20
 590 1164 590 1164 586 1206 c 1,21,22
 511 1247 511 1247 414 1259 c 1,23,24
 396 1232 396 1232 361 1182 c 1,25,26
 380 1141 380 1141 390 1081 c 1,27,-1
 519 1081 l 1,28,-1
 519 829 l 1,29,-1
 405 829 l 1,30,31
 405 735 405 735 401 638.5 c 128,-1,32
 397 542 397 542 396 456 c 1,33,34
 394 374 394 374 334 177 c 128,-1,35
 274 -20 274 -20 121 -395 c 1,36,37
 84 -358 84 -358 39 -346 c 1,38,39
 107 -100 107 -100 124 249.5 c 128,-1,40
 141 599 141 599 131 991 c 0,41,42
 129 1072 129 1072 50 1136 c 1,43,44
 136 1227 136 1227 207.5 1316 c 128,-1,45
 279 1405 279 1405 365 1497 c 1,46,47
 440 1489 440 1489 524.5 1472.5 c 128,-1,48
 609 1456 609 1456 694 1440 c 1,0,-1
EndSplineSet
Ligature2: "'rlig' Required Ligatures in Latin lookup 2-1" f afii301 l
Ligature2: "'liga' Standard Ligatures lookup 0-1" f l
EndChar

StartChar: uniFB01
Encoding: 64257 64257 12
Width: 933
Flags: W
HStem: 31 21G<682.322 723.393> 829 252<405 560.891>
VStem: 131 270<252.286 829> 554 255<309.812 827.764>
LayerCount: 2
Fore
SplineSet
726 1427 m 1,0,1
 843 1401 843 1401 918 1387 c 1,2,3
 873 1331 873 1331 828 1276 c 128,-1,4
 783 1221 783 1221 738 1167 c 1,5,6
 676 1189 676 1189 594 1209 c 1,7,-1
 726 1427 l 1,0,1
550 1223 m 1,8,9
 464 1252 464 1252 414 1259 c 1,10,11
 396 1232 396 1232 361 1182 c 1,12,13
 380 1141 380 1141 390 1081 c 1,14,-1
 639 1081 l 1,15,-1
 639 1079 l 1,16,-1
 639 1080 l 1,17,-1
 862 975 l 1,18,19
 851 934 851 934 836.5 895 c 128,-1,20
 822 856 822 856 822 815 c 1,21,-1
 809 409 l 1,22,23
 806 356 806 356 837.5 323.5 c 128,-1,24
 869 291 869 291 907 275 c 1,25,-1
 707 31 l 1,26,-1
 496 202 l 1,27,28
 554 271 554 271 554 340 c 1,29,-1
 561 794 l 2,30,31
 561 809 561 809 552 829 c 1,32,-1
 405 829 l 1,33,34
 405 735 405 735 401 638.5 c 128,-1,35
 397 542 397 542 396 456 c 1,36,37
 394 374 394 374 334 177 c 128,-1,38
 274 -20 274 -20 121 -395 c 1,39,40
 84 -358 84 -358 39 -346 c 1,41,42
 107 -100 107 -100 124 249.5 c 128,-1,43
 141 599 141 599 131 991 c 0,44,45
 129 1072 129 1072 50 1136 c 1,46,47
 136 1227 136 1227 207.5 1316 c 128,-1,48
 279 1405 279 1405 365 1497 c 1,49,50
 457 1486 457 1486 636 1446 c 0,51,52
 660 1441 660 1441 682 1436 c 1,53,-1
 550 1223 l 1,8,9
EndSplineSet
Ligature2: "'rlig' Required Ligatures in Latin lookup 2-1" f afii301 i
Ligature2: "'liga' Standard Ligatures lookup 0-1" f i
EndChar

StartChar: uniFB00
Encoding: 64256 64256 13
Width: 1030
Flags: W
HStem: 829 252<410 599 869 1016>
VStem: 136 270<252.286 829> 583 276<241.322 796.745> 599 266<265.942 829>
LayerCount: 2
Fore
SplineSet
1054 1202 m 1,0,1
 979 1246 979 1246 876 1259 c 1,2,3
 859 1232 859 1232 824 1182 c 1,4,5
 840 1149 840 1149 854 1081 c 1,6,-1
 1016 1081 l 1,7,-1
 1016 829 l 1,8,-1
 869 829 l 1,9,10
 869 735 869 735 865 638.5 c 128,-1,11
 861 542 861 542 859 456 c 1,12,13
 856 374 856 374 796.5 177 c 128,-1,14
 737 -20 737 -20 585 -395 c 1,15,16
 545 -356 545 -356 502 -346 c 1,17,18
 564 -125 564 -125 583 179.5 c 128,-1,19
 602 484 602 484 599 829 c 1,20,-1
 410 829 l 1,21,22
 410 735 410 735 406 638.5 c 128,-1,23
 402 542 402 542 401 456 c 1,24,25
 399 374 399 374 339 177 c 128,-1,26
 279 -20 279 -20 126 -395 c 1,27,28
 89 -358 89 -358 44 -346 c 1,29,30
 112 -100 112 -100 129 249.5 c 128,-1,31
 146 599 146 599 136 991 c 0,32,33
 134 1072 134 1072 55 1136 c 1,34,35
 141 1227 141 1227 212.5 1316 c 128,-1,36
 284 1405 284 1405 370 1497 c 1,37,38
 462 1486 462 1486 536.5 1472.5 c 128,-1,39
 611 1459 611 1459 712 1439 c 1,40,-1
 532 1219 l 1,41,42
 495 1241 495 1241 482 1246.5 c 128,-1,43
 469 1252 469 1252 419 1259 c 1,44,45
 401 1232 401 1232 366 1182 c 1,46,47
 385 1141 385 1141 395 1081 c 1,48,-1
 600 1084 l 1,49,50
 600 1153 600 1153 562 1194 c 1,51,52
 741 1405 741 1405 827 1497 c 1,53,54
 921 1486 921 1486 1026.5 1465 c 128,-1,55
 1132 1444 1132 1444 1234 1424 c 1,56,57
 1189 1367 1189 1367 1144 1312 c 128,-1,58
 1099 1257 1099 1257 1054 1202 c 1,0,1
EndSplineSet
Ligature2: "'rlig' Required Ligatures in Latin lookup 2-1" f afii301 f
Ligature2: "'liga' Standard Ligatures lookup 0-1" f f
EndChar

StartChar: germandbls
Encoding: 223 223 14
Width: 1014
Flags: W
HStem: 787 207<401 610.304> 1102 21G<562.5 615>
VStem: 131 265<229.01 787 994 1070.27>
LayerCount: 2
Fore
SplineSet
581 1102 m 1,0,1
 544 1125 544 1125 495.5 1168.5 c 128,-1,2
 447 1212 447 1212 397 1219 c 1,3,4
 371 1182 371 1182 357 1160 c 1,5,6
 384 1101 384 1101 394 994 c 1,7,8
 626 975 626 975 822 1001 c 1,9,-1
 892 922 l 1,10,-1
 729 717 l 1,11,12
 995 459 995 459 873 122 c 128,-1,13
 751 -215 751 -215 351 -479 c 1,14,-1
 346 -299 l 1,15,16
 537 -223 537 -223 611.5 -93.5 c 128,-1,17
 686 36 686 36 701 127 c 1,18,19
 731 327 731 327 426 474 c 1,20,-1
 611 787 l 1,21,-1
 401 787 l 1,22,23
 400 699 400 699 396 607.5 c 128,-1,24
 392 516 392 516 391 434 c 0,25,26
 390 351 390 351 330 153.5 c 128,-1,27
 270 -44 270 -44 117 -419 c 1,28,29
 86 -388 86 -388 39 -378 c 1,30,31
 107 -130 107 -130 124 219.5 c 128,-1,32
 141 569 141 569 131 960 c 0,33,34
 129 1042 129 1042 50 1106 c 1,35,36
 136 1197 136 1197 234 1293 c 128,-1,37
 332 1389 332 1389 419 1482 c 1,38,39
 510 1452 510 1452 651 1355.5 c 128,-1,40
 792 1259 792 1259 894 1239 c 1,41,42
 849 1184 849 1184 749 1150.5 c 128,-1,43
 649 1117 649 1117 581 1102 c 1,0,1
EndSplineSet
Ligature2: "'rlig' Required Ligatures in Latin lookup 2-1" longs afii301 z
EndChar

StartChar: longs_longs
Encoding: 1114119 -1 15
Width: 984
Flags: W
VStem: 136 269.5<245.094 1070.73> 580 269<250.343 1066.65>
LayerCount: 2
Fore
SplineSet
752 1404 m 1,0,1
 782 1439 782 1439 799 1455 c 1,2,3
 899 1455 899 1455 1006.5 1437.5 c 128,-1,4
 1114 1420 1114 1420 1214 1400 c 1,5,6
 1169 1344 1169 1344 1124 1289.5 c 128,-1,7
 1079 1235 1079 1235 1035 1180 c 1,8,9
 960 1222 960 1222 857 1235 c 1,10,11
 844 1216 844 1216 830.5 1197.5 c 128,-1,12
 817 1179 817 1179 805 1160 c 1,13,14
 854 1057 854 1057 849 839.5 c 128,-1,15
 844 622 844 622 840 434 c 1,16,17
 837 351 837 351 777 153.5 c 128,-1,18
 717 -44 717 -44 565 -419 c 1,19,20
 534 -388 534 -388 486 -378 c 1,21,22
 555 -130 555 -130 572.5 219.5 c 128,-1,23
 590 569 590 569 580 960 c 0,24,25
 577 1041 577 1041 499 1106 c 1,26,27
 547 1160 547 1160 574 1190 c 1,28,29
 501 1225 501 1225 414 1235 c 1,30,31
 379 1185 379 1185 362 1160 c 1,32,33
 411 1057 411 1057 405.5 839.5 c 128,-1,34
 400 622 400 622 396 434 c 0,35,36
 395 351 395 351 335 153.5 c 128,-1,37
 275 -44 275 -44 122 -419 c 1,38,39
 91 -388 91 -388 44 -378 c 1,40,41
 112 -130 112 -130 129 219.5 c 128,-1,42
 146 569 146 569 136 960 c 0,43,44
 134 1042 134 1042 55 1106 c 1,45,46
 141 1197 141 1197 205.5 1279.5 c 128,-1,47
 270 1362 270 1362 356 1455 c 1,48,49
 451 1455 451 1455 553 1438.5 c 128,-1,50
 655 1422 655 1422 752 1404 c 1,0,1
EndSplineSet
Ligature2: "'rlig' Required Ligatures in Latin lookup 2-1" longs afii301 longs
Ligature2: "'liga' Standard Ligatures lookup 0-1" longs longs
EndChar

StartChar: longs_i
Encoding: 1114120 -1 16
Width: 904
Flags: W
HStem: 31 21G<666.322 707.393> 1060 20G<606.105 664.667>
VStem: 131 269.5<245.094 1070.73> 537 255<309.812 874.14>
LayerCount: 2
Fore
SplineSet
471 890 m 1,0,-1
 622 1080 l 1,1,-1
 846 975 l 1,2,3
 835 934 835 934 820.5 895 c 128,-1,4
 806 856 806 856 806 815 c 1,5,-1
 792 409 l 2,6,7
 790 356 790 356 821 323.5 c 128,-1,8
 852 291 852 291 891 275 c 1,9,-1
 691 31 l 1,10,-1
 480 202 l 1,11,12
 537 271 537 271 537 340 c 1,13,-1
 545 794 l 2,14,15
 545 842 545 842 471 890 c 1,0,-1
545 1199 m 1,16,17
 458 1229 458 1229 409 1235 c 1,18,19
 374 1185 374 1185 357 1160 c 1,20,21
 406 1057 406 1057 400.5 839.5 c 128,-1,22
 395 622 395 622 391 434 c 0,23,24
 390 351 390 351 330 153.5 c 128,-1,25
 270 -44 270 -44 117 -419 c 1,26,27
 86 -388 86 -388 39 -378 c 1,28,29
 107 -130 107 -130 124 219.5 c 128,-1,30
 141 569 141 569 131 960 c 0,31,32
 129 1042 129 1042 50 1106 c 1,33,34
 136 1197 136 1197 201 1288.5 c 128,-1,35
 266 1380 266 1380 352 1474 c 1,36,37
 452 1472 452 1472 614 1422 c 0,38,39
 652 1410 652 1410 654 1410 c 1,40,-1
 545 1199 l 1,16,17
699 1397 m 1,41,42
 816 1364 816 1364 878 1352 c 1,43,44
 833 1296 833 1296 780.5 1245.5 c 128,-1,45
 728 1195 728 1195 683 1141 c 1,46,47
 653 1159 653 1159 587 1183 c 1,48,-1
 699 1397 l 1,41,42
EndSplineSet
Ligature2: "'rlig' Required Ligatures in Latin lookup 2-1" longs afii301 i
Ligature2: "'liga' Standard Ligatures lookup 0-1" longs i
EndChar

StartChar: s
Encoding: 115 115 17
Width: 897
Flags: W
HStem: 31 21G<406.5 582> 1060 20G<304.5 514.5>
LayerCount: 2
Fore
SplineSet
26 217 m 1,0,-1
 200 399 l 1,1,2
 106 525 106 525 67 684 c 1,3,4
 187 882 187 882 422 1080 c 1,5,6
 607 1029 607 1029 846 984 c 1,7,-1
 870 990 l 1,8,-1
 861 981 l 1,9,-1
 682 797 l 1,10,-1
 846 386 l 1,11,12
 660 247 660 247 504 31 c 1,13,14
 309 146 309 146 26 217 c 1,0,-1
512 622 m 1,15,-1
 272 375 l 1,16,17
 402 300 402 300 509.5 288.5 c 128,-1,18
 617 277 617 277 644 315 c 1,19,20
 675 362 675 362 628 444 c 128,-1,21
 581 526 581 526 512 622 c 1,15,-1
397 604 m 1,22,-1
 591 804 l 1,23,24
 315 879 315 879 290 835 c 1,25,26
 266 790 266 790 397 604 c 1,22,-1
EndSplineSet
EndChar

StartChar: Udieresis
Encoding: 220 220 18
Width: 1364
Flags: W
HStem: 31 21G<493 554.085 1076 1137.5> 1542 20G<731.035 770.827>
VStem: 896 304<536.652 646.672 912.797 1211.43>
LayerCount: 2
Fore
SplineSet
316 1626 m 1,0,1
 366 1597 366 1597 430 1562 c 1,2,3
 232 1426 232 1426 301.5 1323.5 c 128,-1,4
 371 1221 371 1221 615 1142 c 1,5,6
 617 959 617 959 566 799.5 c 128,-1,7
 515 640 515 640 429 495 c 1,8,9
 629 367 629 367 699 399.5 c 128,-1,10
 769 432 769 432 896 586 c 1,11,12
 912 824 912 824 885 1137 c 1,13,14
 892 1194 892 1194 869.5 1212 c 128,-1,15
 847 1230 847 1230 804 1264 c 1,16,17
 864 1329 864 1329 923 1394.5 c 128,-1,18
 982 1460 982 1460 1042 1527 c 1,19,20
 1114 1482 1114 1482 1164.5 1452 c 128,-1,21
 1215 1422 1215 1422 1287 1379 c 1,22,23
 1222 1292 1222 1292 1214 1208 c 128,-1,24
 1206 1124 1206 1124 1206 1035 c 1,25,-1
 1200 645 l 1,26,27
 1196 497 1196 497 1225.5 425.5 c 128,-1,28
 1255 354 1255 354 1325 327 c 1,29,30
 1271 252 1271 252 1217.5 178.5 c 128,-1,31
 1164 105 1164 105 1111 31 c 1,32,33
 1041 75 1041 75 971 119.5 c 128,-1,34
 901 164 901 164 831 209 c 1,35,36
 859 304 859 304 876 407 c 1,37,-1
 536 31 l 1,38,39
 450 107 450 107 318 166 c 128,-1,40
 186 225 186 225 36 277 c 1,41,42
 235 410 235 410 285.5 582.5 c 128,-1,43
 336 755 336 755 199 957 c 0,44,45
 57 1165 57 1165 70.5 1329.5 c 128,-1,46
 84 1494 84 1494 316 1626 c 1,0,1
745 1562 m 1,47,-1
 909 1435 l 1,48,49
 771 1286 771 1286 546 1277 c 1,50,-1
 745 1562 l 1,47,-1
485 1629 m 1,51,-1
 681 1562 l 1,52,53
 597 1399 597 1399 394 1294 c 1,54,-1
 485 1629 l 1,51,-1
EndSplineSet
EndChar

StartChar: Odieresis
Encoding: 214 214 19
Width: 1642
Flags: W
HStem: 30 202<745.242 1028> 1515 20G<789.5 939.5> 1542 20G<127 222.352>
VStem: 662 270<702.469 1186.08>
LayerCount: 2
Fore
SplineSet
944 1535 m 1,0,1
 935 1406 935 1406 934 1315 c 1,2,3
 981 1362 981 1362 1029 1411.5 c 128,-1,4
 1077 1461 1077 1461 1125 1502 c 1,5,6
 1269 1209 1269 1209 1601 1009 c 1,7,8
 1600 769 1600 769 1516 585.5 c 128,-1,9
 1432 402 1432 402 1314 278.5 c 128,-1,10
 1196 155 1196 155 1067.5 92.5 c 128,-1,11
 939 30 939 30 847 30 c 0,12,13
 424 30 424 30 256.5 300.5 c 128,-1,14
 89 571 89 571 41 932 c 1,15,16
 202 1165 202 1165 418.5 1327 c 128,-1,17
 635 1489 635 1489 944 1535 c 1,0,1
1211 1455 m 1,18,-1
 1571 1527 l 1,19,20
 1562 1434 1562 1434 1562 1331.5 c 128,-1,21
 1562 1229 1562 1229 1530 1147 c 1,22,23
 1442 1200 1442 1200 1356 1286 c 128,-1,24
 1270 1372 1270 1372 1211 1455 c 1,18,-1
162 1190 m 1,25,26
 147 1269 147 1269 133.5 1370 c 128,-1,27
 120 1471 120 1471 134 1562 c 1,28,-1
 536 1471 l 1,29,30
 430 1415 430 1415 333.5 1338 c 128,-1,31
 237 1261 237 1261 162 1190 c 1,25,26
932 1187 m 1,32,33
 936 730 936 730 1042 495 c 1,34,35
 791 435 791 435 715 290 c 1,36,37
 821 226 821 226 944 232 c 1,38,39
 1101 237 1101 237 1203.5 323 c 128,-1,40
 1306 409 1306 409 1321 543 c 128,-1,41
 1336 677 1336 677 1246.5 846 c 128,-1,42
 1157 1015 1157 1015 932 1187 c 1,32,33
625 359 m 1,43,44
 666 475 666 475 662 667 c 1,45,46
 657 825 657 825 655.5 986 c 128,-1,47
 654 1147 654 1147 631 1305 c 1,48,49
 394 1167 394 1167 413 853 c 128,-1,50
 432 539 432 539 625 359 c 1,43,44
EndSplineSet
EndChar

StartChar: Adieresis
Encoding: 196 196 20
Width: 1420
Flags: W
HStem: 31 21G<1198.49 1236.69> 636 235<650 1011> 1515 20G<1216 1308.89> 1542 20G<793 956.5>
VStem: 1011 255<355.512 636 871 1079.4>
LayerCount: 2
Fore
SplineSet
226 1052 m 1,0,1
 410 1144 410 1144 565 1282 c 128,-1,2
 720 1420 720 1420 866 1562 c 1,3,4
 1047 1385 1047 1385 1146.5 1319.5 c 128,-1,5
 1246 1254 1246 1254 1384 1205 c 1,6,7
 1361 1169 1361 1169 1328 1142 c 128,-1,8
 1295 1115 1295 1115 1274 1080 c 1,9,10
 1266 1061 1266 1061 1266 1026 c 128,-1,11
 1266 991 1266 991 1266 972 c 2,12,-1
 1274 436 l 1,13,14
 1276 371 1276 371 1297 355 c 2,15,-1
 1399 272 l 1,16,-1
 1222 31 l 1,17,-1
 994 225 l 1,18,19
 1007 325 1007 325 1011 428 c 128,-1,20
 1015 531 1015 531 1015 636 c 1,21,-1
 641 636 l 1,22,23
 604 282 604 282 425 36 c 128,-1,24
 246 -210 246 -210 104 -349 c 1,25,26
 85 -336 85 -336 65.5 -323 c 128,-1,27
 46 -310 46 -310 27 -299 c 1,28,29
 144 -178 144 -178 201.5 -22 c 128,-1,30
 259 134 259 134 302 316 c 1,31,32
 345 504 345 504 317 714 c 128,-1,33
 289 924 289 924 226 1052 c 1,0,1
351 1202 m 1,34,-1
 440 1542 l 1,35,-1
 722 1489 l 1,36,37
 544 1317 544 1317 351 1202 c 1,34,-1
1370 1265 m 1,38,39
 1281 1305 1281 1305 1201 1353.5 c 128,-1,40
 1121 1402 1121 1402 1040 1475 c 1,41,-1
 1304 1535 l 1,42,-1
 1370 1265 l 1,38,39
650 871 m 1,43,-1
 1011 871 l 1,44,45
 1010 922 1010 922 1009.5 974.5 c 128,-1,46
 1009 1027 1009 1027 1010 1080 c 1,47,48
 959 1116 959 1116 888 1154 c 128,-1,49
 817 1192 817 1192 765 1214 c 1,50,51
 675 1225 675 1225 659.5 1140 c 128,-1,52
 644 1055 644 1055 650 871 c 1,43,-1
EndSplineSet
EndChar

StartChar: Z
Encoding: 90 90 21
Width: 1214
Flags: W
HStem: 1214 304<210.912 711.645> 1542 20G<197.094 314.5>
VStem: 895.5 288.5<189.618 359.419>
LayerCount: 2
Fore
SplineSet
204 1562 m 1,0,1
 425 1512 425 1512 670.5 1518 c 128,-1,2
 916 1524 916 1524 1160 1515 c 1,3,-1
 760 1087 l 1,4,5
 1011 912 1011 912 1098 748 c 128,-1,6
 1185 584 1185 584 1184 425 c 1,7,8
 1181 250 1181 250 1090.5 74.5 c 128,-1,9
 1000 -101 1000 -101 857 -232.5 c 128,-1,10
 714 -364 714 -364 534 -425 c 128,-1,11
 354 -486 354 -486 172 -430 c 1,12,13
 44 -389 44 -389 55 -168.5 c 128,-1,14
 66 52 66 52 130 194 c 0,15,16
 246 451 246 451 612 656 c 1,17,18
 546 707 546 707 474 741 c 128,-1,19
 402 775 402 775 324 806 c 1,20,-1
 716 1175 l 1,21,22
 577 1222 577 1222 391.5 1214 c 128,-1,23
 206 1206 206 1206 50 1116 c 1,24,-1
 204 1562 l 1,0,1
379 -193 m 0,25,26
 521 -273 521 -273 672.5 -194 c 128,-1,27
 824 -115 824 -115 854 -46 c 1,28,29
 904 42 904 42 895.5 186 c 128,-1,30
 887 330 887 330 799 447 c 1,31,32
 664 475 664 475 531.5 420.5 c 128,-1,33
 399 366 399 366 344 301 c 0,34,35
 274 219 274 219 240 62 c 128,-1,36
 206 -95 206 -95 379 -193 c 0,25,26
EndSplineSet
EndChar

StartChar: Y
Encoding: 89 89 22
Width: 1346
Flags: W
HStem: 31 21G<478 539.085>
VStem: 881 304<536.652 1221.14>
LayerCount: 2
Fore
SplineSet
345 1626 m 1,0,1
 371 1611 371 1611 398 1596 c 128,-1,2
 425 1581 425 1581 451 1566 c 1,3,4
 254 1430 254 1430 305 1325.5 c 128,-1,5
 356 1221 356 1221 600 1142 c 1,6,7
 601 959 601 959 550.5 799.5 c 128,-1,8
 500 640 500 640 414 495 c 1,9,10
 614 367 614 367 684 399.5 c 128,-1,11
 754 432 754 432 881 586 c 1,12,13
 897 840 897 840 869 1137 c 1,14,15
 877 1194 877 1194 833 1225 c 128,-1,16
 789 1256 789 1256 744 1290 c 1,17,18
 804 1356 804 1356 864 1421.5 c 128,-1,19
 924 1487 924 1487 984 1554 c 1,20,21
 1055 1509 1055 1509 1127.5 1465.5 c 128,-1,22
 1200 1422 1200 1422 1272 1379 c 1,23,24
 1207 1292 1207 1292 1199 1208 c 128,-1,25
 1191 1124 1191 1124 1190 1035 c 2,26,-1
 1185 645 l 1,27,28
 1181 497 1181 497 1210.5 425.5 c 128,-1,29
 1240 354 1240 354 1310 327 c 1,30,-1
 1299 312 l 1,31,32
 1211 166 1211 166 1125.5 -112.5 c 128,-1,33
 1040 -391 1040 -391 867 -509 c 1,34,35
 781 -566 781 -566 686 -565 c 0,36,37
 596 -564 596 -564 505.5 -535 c 128,-1,38
 415 -506 415 -506 356 -475 c 0,39,40
 250 -418 250 -418 159.5 -432 c 128,-1,41
 69 -446 69 -446 -24 -503 c 1,42,-1
 -59 -456 l 1,43,44
 -33 -391 -33 -391 7 -321 c 128,-1,45
 47 -251 47 -251 96 -206 c 1,46,47
 212 -94 212 -94 376 -158 c 0,48,49
 492 -203 492 -203 613.5 -240.5 c 128,-1,50
 735 -278 735 -278 859 -250 c 0,51,52
 966 -225 966 -225 989 -132 c 128,-1,53
 1012 -39 1012 -39 974 34 c 1,54,55
 957 62 957 62 904.5 208.5 c 128,-1,56
 852 355 852 355 861 407 c 1,57,-1
 521 31 l 1,58,59
 435 107 435 107 302.5 166 c 128,-1,60
 170 225 170 225 21 277 c 1,61,62
 220 410 220 410 270.5 582.5 c 128,-1,63
 321 755 321 755 184 957 c 0,64,65
 -99 1372 -99 1372 345 1626 c 1,0,1
EndSplineSet
EndChar

StartChar: X
Encoding: 88 88 23
Width: 1387
Flags: W
LayerCount: 2
Fore
SplineSet
215 1430 m 0,0,1
 315 1517 315 1517 455 1591 c 1,2,3
 480 1545 480 1545 504.5 1500 c 128,-1,4
 529 1455 529 1455 554 1412 c 1,5,6
 581 1362 581 1362 609 1313 c 128,-1,7
 637 1264 637 1264 666 1215 c 2,8,-1
 685 1184 l 1,9,-1
 706 1214 l 1,10,11
 742 1261 742 1261 779.5 1310 c 128,-1,12
 817 1359 817 1359 856 1407 c 0,13,14
 892 1452 892 1452 929.5 1499 c 128,-1,15
 967 1546 967 1546 1007 1594 c 1,16,17
 1054 1575 1054 1575 1099 1556 c 128,-1,18
 1144 1537 1144 1537 1189 1520 c 1,19,20
 1230 1501 1230 1501 1270 1484 c 128,-1,21
 1310 1467 1310 1467 1351 1449 c 1,22,-1
 1161 1134 l 1,23,24
 1111 1180 1111 1180 1070 1210 c 1,25,26
 1001 1257 1001 1257 926 1286 c 1,27,-1
 911 1291 l 1,28,-1
 900 1279 l 2,29,30
 864 1239 864 1239 821 1186 c 0,31,32
 802 1162 802 1162 784 1140.5 c 128,-1,33
 766 1119 766 1119 751 1099 c 2,34,-1
 742 1087 l 1,35,-1
 750 1075 l 1,36,37
 847 910 847 910 936 777 c 0,38,39
 985 704 985 704 1034.5 631.5 c 128,-1,40
 1084 559 1084 559 1136 487 c 0,41,42
 1190 412 1190 412 1260 380 c 1,43,44
 1296 359 1296 359 1344 351 c 1,45,46
 1259 261 1259 261 1167 175 c 0,47,48
 1119 130 1119 130 1068 86 c 128,-1,49
 1017 42 1017 42 965 1 c 1,50,51
 941 49 941 49 916.5 97.5 c 128,-1,52
 892 146 892 146 869 195 c 1,53,54
 797 337 797 337 724 481.5 c 128,-1,55
 651 626 651 626 571 770 c 1,56,-1
 550 807 l 1,57,-1
 529 770 l 1,58,59
 427 581 427 581 420.5 460 c 128,-1,60
 414 339 414 339 426 230 c 0,61,62
 429 207 429 207 434 160 c 1,63,64
 325 134 325 134 219 90 c 0,65,66
 129 52 129 52 39 7 c 1,67,68
 81 184 81 184 186 397 c 0,69,70
 300 630 300 630 482 899 c 1,71,-1
 489 910 l 1,72,-1
 482 921 l 2,73,74
 441 986 441 986 381 1080 c 1,75,76
 324 1165 324 1165 272 1236 c 0,77,78
 241 1277 241 1277 189 1286 c 128,-1,79
 137 1295 137 1295 85 1295 c 1,80,81
 149 1372 149 1372 215 1430 c 0,0,1
EndSplineSet
EndChar

StartChar: W
Encoding: 87 87 24
Width: 1797
Flags: W
HStem: 31 21G<552 637.484 1173.5 1274> 1542 20G<701.5 816.722 1383 1523>
VStem: 807.5 282.5<399.344 835.509>
LayerCount: 2
Fore
SplineSet
377 1605 m 1,0,1
 415 1594 415 1594 453.5 1584 c 128,-1,2
 492 1574 492 1574 531 1562 c 1,3,4
 416 1431 416 1431 400.5 1359 c 128,-1,5
 385 1287 385 1287 439 1177 c 1,6,7
 606 1307 606 1307 797 1562 c 1,8,-1
 1081 1274 l 1,9,10
 1159 1319 1159 1319 1247 1394 c 128,-1,11
 1335 1469 1335 1469 1431 1562 c 1,12,13
 1615 1250 1615 1250 1688.5 987 c 128,-1,14
 1762 724 1762 724 1639 555 c 0,15,16
 1541 419 1541 419 1433.5 290 c 128,-1,17
 1326 161 1326 161 1222 31 c 1,18,19
 1125 75 1125 75 1009.5 122 c 128,-1,20
 894 169 894 169 766 217 c 1,21,-1
 622 31 l 1,22,23
 482 66 482 66 342 101.5 c 128,-1,24
 202 137 202 137 64 174 c 1,25,26
 206 319 206 319 275.5 411.5 c 128,-1,27
 345 504 345 504 292 617 c 1,28,-1
 76 1140 l 2,29,30
 41 1226 41 1226 47.5 1264 c 128,-1,31
 54 1302 54 1302 111 1357 c 1,32,-1
 377 1605 l 1,0,1
1114 1121 m 1,33,-1
 1090 412 l 1,34,35
 1172 374 1172 374 1307 322 c 1,36,37
 1465 476 1465 476 1420 701 c 128,-1,38
 1375 926 1375 926 1214 1195 c 1,39,-1
 1114 1121 l 1,33,-1
511 1040 m 1,40,-1
 514 1035 l 1,41,42
 635 806 635 806 611 715 c 128,-1,43
 587 624 587 624 414 395 c 1,44,45
 575 321 575 321 653.5 321.5 c 128,-1,46
 732 322 732 322 785 394 c 1,47,48
 801 565 801 565 807.5 736 c 128,-1,49
 814 907 814 907 800 1080 c 1,50,51
 767 1119 767 1119 734.5 1158 c 128,-1,52
 702 1197 702 1197 670 1237 c 1,53,-1
 511 1040 l 1,40,-1
EndSplineSet
EndChar

StartChar: V
Encoding: 86 86 25
Width: 1232
Flags: W
HStem: 1542 20G<812.297 911>
VStem: 226 293<459 835.149> 237 303<633.851 1051.5>
LayerCount: 2
Fore
SplineSet
361 1584 m 1,0,1
 289 1486 289 1486 374 1409 c 1,2,3
 414 1371 414 1371 452 1321.5 c 128,-1,4
 490 1272 490 1272 514 1205 c 1,5,-1
 830 1562 l 1,6,7
 992 1387 992 1387 1097 1197 c 128,-1,8
 1202 1007 1202 1007 1174 782 c 1,9,10
 1152 624 1152 624 1019 454.5 c 128,-1,11
 886 285 886 285 732 54 c 1,12,13
 646 104 646 104 479 143 c 128,-1,14
 312 182 312 182 87 216 c 1,15,16
 136 281 136 281 179 364 c 128,-1,17
 222 447 222 447 226 551 c 2,18,-1
 237 890 l 2,19,20
 242 1029 242 1029 135 1112 c 1,21,22
 69 1165 69 1165 50.5 1240 c 128,-1,23
 32 1315 32 1315 96 1409 c 2,24,-1
 184 1536 l 2,25,26
 221 1591 221 1591 268 1595 c 128,-1,27
 315 1599 315 1599 361 1584 c 1,0,1
519 459 m 1,28,-1
 820 361 l 1,29,30
 942 487 942 487 893.5 696.5 c 128,-1,31
 845 906 845 906 721 1146 c 0,32,33
 692 1201 692 1201 643 1176 c 128,-1,34
 594 1151 594 1151 537 1092 c 1,35,36
 541 1050 541 1050 540 1010 c 2,37,-1
 519 459 l 1,28,-1
EndSplineSet
EndChar

StartChar: U
Encoding: 85 85 26
Width: 1406
Flags: W
HStem: 31 21G<534 595.085 1117 1178.5>
VStem: 937 304<536.652 1221.14>
LayerCount: 2
Fore
SplineSet
401 1626 m 1,0,1
 427 1611 427 1611 454 1596 c 128,-1,2
 481 1581 481 1581 509 1566 c 1,3,4
 311 1430 311 1430 361.5 1325.5 c 128,-1,5
 412 1221 412 1221 656 1142 c 1,6,7
 659 959 659 959 607.5 799.5 c 128,-1,8
 556 640 556 640 470 495 c 1,9,10
 670 367 670 367 740 399.5 c 128,-1,11
 810 432 810 432 937 586 c 1,12,13
 954 824 954 824 926 1137 c 1,14,15
 934 1194 934 1194 889.5 1225 c 128,-1,16
 845 1256 845 1256 801 1290 c 1,17,18
 860 1356 860 1356 920 1421.5 c 128,-1,19
 980 1487 980 1487 1040 1554 c 1,20,21
 1111 1509 1111 1509 1183.5 1465.5 c 128,-1,22
 1256 1422 1256 1422 1329 1379 c 1,23,24
 1264 1292 1264 1292 1255.5 1208 c 128,-1,25
 1247 1124 1247 1124 1247 1035 c 1,26,-1
 1241 645 l 1,27,28
 1237 497 1237 497 1266.5 425.5 c 128,-1,29
 1296 354 1296 354 1366 327 c 1,30,31
 1312 252 1312 252 1258.5 178.5 c 128,-1,32
 1205 105 1205 105 1152 31 c 1,33,34
 1082 75 1082 75 1012 119.5 c 128,-1,35
 942 164 942 164 872 209 c 1,36,37
 900 304 900 304 917 407 c 1,38,-1
 577 31 l 1,39,40
 491 107 491 107 359 166 c 128,-1,41
 227 225 227 225 77 277 c 1,42,43
 276 410 276 410 326.5 582.5 c 128,-1,44
 377 755 377 755 240 957 c 0,45,46
 -41 1374 -41 1374 401 1626 c 1,0,1
EndSplineSet
EndChar

StartChar: T
Encoding: 84 84 27
Width: 1261
Flags: W
HStem: 1542 20G<285.5 446 1211.5 1316.5>
VStem: 630 329<449.884 1152.54>
LayerCount: 2
Fore
SplineSet
75 1195 m 1,0,1
 135 1286 135 1286 195 1378 c 128,-1,2
 255 1470 255 1470 316 1562 c 1,3,4
 576 1535 576 1535 831.5 1532 c 128,-1,5
 1087 1529 1087 1529 1336 1562 c 1,6,7
 1297 1472 1297 1472 1258.5 1383 c 128,-1,8
 1220 1294 1220 1294 1182 1204 c 1,9,10
 1071 1250 1071 1250 951 1276 c 1,11,-1
 959 455 l 1,12,13
 782 435 782 435 624 326 c 1,14,15
 744 227 744 227 921.5 221 c 128,-1,16
 1099 215 1099 215 1321 331 c 1,17,18
 1319 297 1319 297 1317.5 263 c 128,-1,19
 1316 229 1316 229 1315 195 c 1,20,21
 765 -58 765 -58 465 114 c 128,-1,22
 165 286 165 286 26 732 c 1,23,24
 131 876 131 876 253.5 1006.5 c 128,-1,25
 376 1137 376 1137 509 1259 c 1,26,27
 426 1326 426 1326 299 1280.5 c 128,-1,28
 172 1235 172 1235 75 1195 c 1,0,1
611 1155 m 1,29,30
 456 1009 456 1009 427.5 853 c 128,-1,31
 399 697 399 697 454 564 c 0,32,33
 494 465 494 465 554 395 c 1,34,35
 626 466 626 466 630 614 c 128,-1,36
 634 762 634 762 637 917 c 0,37,38
 641 1077 641 1077 611 1155 c 1,29,30
EndSplineSet
EndChar

StartChar: S
Encoding: 83 83 28
Width: 1475
Flags: W
LayerCount: 2
Fore
SplineSet
1455 1455 m 1,0,1
 1425 1390 1425 1390 1380 1320.5 c 128,-1,2
 1335 1251 1335 1251 1282 1206 c 0,3,4
 1151 1094 1151 1094 972 1157 c 1,5,6
 841 1202 841 1202 706 1239.5 c 128,-1,7
 571 1277 571 1277 435 1250 c 1,8,9
 315 1225 315 1225 288.5 1132 c 128,-1,10
 262 1039 262 1039 307 965 c 1,11,12
 356 881 356 881 464 879 c 128,-1,13
 572 877 572 877 659 1071 c 1,14,15
 936 1115 936 1115 1123 1028 c 128,-1,16
 1310 941 1310 941 1370 784 c 128,-1,17
 1430 627 1430 627 1345 431.5 c 128,-1,18
 1260 236 1260 236 996 62 c 0,19,20
 945 29 945 29 879.5 30.5 c 128,-1,21
 814 32 814 32 746 47 c 0,22,23
 546 89 546 89 376 200 c 128,-1,24
 206 311 206 311 94 506 c 1,25,26
 35 606 35 606 42 729 c 1,27,28
 77 1215 77 1215 426 1509 c 0,29,30
 492 1565 492 1565 627 1565 c 1,31,32
 725 1562 725 1562 826 1533.5 c 128,-1,33
 927 1505 927 1505 994 1475 c 1,34,35
 1110 1417 1110 1417 1211 1431.5 c 128,-1,36
 1312 1446 1312 1446 1416 1502 c 1,37,-1
 1455 1455 l 1,0,1
322 769 m 1,38,39
 360 594 360 594 610.5 457 c 128,-1,40
 861 320 861 320 1067 365 c 1,41,42
 1169 386 1169 386 1222.5 445 c 128,-1,43
 1276 504 1276 504 1280 571 c 0,44,45
 1284 646 1284 646 1224.5 715 c 128,-1,46
 1165 784 1165 784 1041 805 c 0,47,48
 982 814 982 814 887 778 c 128,-1,49
 792 742 792 742 736 620 c 1,50,51
 550 612 550 612 322 769 c 1,38,39
EndSplineSet
EndChar

StartChar: R
Encoding: 82 82 29
Width: 1439
Flags: W
HStem: 31 21G<465.206 533.276 1024 1159> 1515 20G<349.868 453.5 757.426 849>
LayerCount: 2
Fore
SplineSet
42 1270 m 1,0,-1
 375 1535 l 1,1,2
 532 1435 532 1435 584 1277 c 1,3,-1
 772 1535 l 1,4,5
 926 1455 926 1455 1080.5 1375 c 128,-1,6
 1235 1295 1235 1295 1389 1216 c 1,7,8
 1296 1167 1296 1167 1205 1119 c 128,-1,9
 1114 1071 1114 1071 1024 1022 c 1,10,11
 1097 857 1097 857 1166.5 691.5 c 128,-1,12
 1236 526 1236 526 1319 367 c 0,13,14
 1360 287 1360 287 1461 267 c 1,15,16
 1375 207 1375 207 1288.5 148.5 c 128,-1,17
 1202 90 1202 90 1116 31 c 1,18,19
 932 494 932 494 706 932 c 1,20,21
 776 977 776 977 846 1023.5 c 128,-1,22
 916 1070 916 1070 987 1116 c 1,23,24
 915 1157 915 1157 843 1199.5 c 128,-1,25
 771 1242 771 1242 700 1285 c 1,26,-1
 605 1155 l 1,27,28
 621 855 621 855 329 391 c 1,29,-1
 595 301 l 2,30,31
 651 281 651 281 757 310 c 1,32,-1
 516 31 l 1,33,-1
 36 220 l 1,34,35
 242 411 242 411 295.5 664 c 128,-1,36
 349 917 349 917 217 1244 c 1,37,38
 154 1271 154 1271 42 1270 c 1,0,-1
EndSplineSet
EndChar

StartChar: Q
Encoding: 81 81 30
Width: 1616
Flags: W
HStem: -291 98<2048.25 2481> 30 202<728.008 1011.64> 1515 20G<771.5 921.5>
VStem: 645 270<702.469 1186.08>
LayerCount: 2
Fore
SplineSet
926 1535 m 1,0,1
 917 1406 917 1406 916 1315 c 1,2,3
 964 1362 964 1362 1012 1411.5 c 128,-1,4
 1060 1461 1060 1461 1107 1502 c 1,5,6
 1251 1209 1251 1209 1584 1009 c 1,7,8
 1582 784 1582 784 1509 610 c 128,-1,9
 1436 436 1436 436 1329 314 c 1,10,11
 1625 -268 1625 -268 2484 -193 c 1,12,-1
 2481 -291 l 1,13,14
 2021 -378 2021 -378 1670 -272 c 128,-1,15
 1319 -166 1319 -166 1059 96 c 1,16,17
 930 30 930 30 830 30 c 0,18,19
 406 30 406 30 238.5 300.5 c 128,-1,20
 71 571 71 571 24 932 c 1,21,22
 185 1165 185 1165 401 1327 c 128,-1,23
 617 1489 617 1489 926 1535 c 1,0,1
915 1187 m 1,24,25
 919 730 919 730 1025 495 c 1,26,27
 774 435 774 435 697 290 c 1,28,29
 804 226 804 226 926 232 c 1,30,31
 1084 237 1084 237 1186.5 323 c 128,-1,32
 1289 409 1289 409 1304 543 c 128,-1,33
 1319 677 1319 677 1229.5 846 c 128,-1,34
 1140 1015 1140 1015 915 1187 c 1,24,25
607 359 m 1,35,36
 649 475 649 475 645 667 c 1,37,38
 640 825 640 825 638 986 c 128,-1,39
 636 1147 636 1147 614 1305 c 1,40,41
 376 1167 376 1167 395.5 853 c 128,-1,42
 415 539 415 539 607 359 c 1,35,36
EndSplineSet
EndChar

StartChar: P
Encoding: 80 80 31
Width: 1297
Flags: W
HStem: 31 21G<825.174 1039> 1515 20G<190.5 268.5 876.082 1089>
VStem: 254 306<-67.2864 146 534 1055.74>
LayerCount: 2
Fore
SplineSet
40 1316 m 1,0,1
 82 1370 82 1370 125.5 1425 c 128,-1,2
 169 1480 169 1480 212 1535 c 1,3,4
 325 1502 325 1502 423 1473 c 128,-1,5
 521 1444 521 1444 607 1417 c 1,6,7
 604 1385 604 1385 602 1353 c 128,-1,8
 600 1321 600 1321 597 1291 c 1,9,-1
 901 1535 l 1,10,11
 1277 1251 1277 1251 1237 847.5 c 128,-1,12
 1197 444 1197 444 881 31 c 1,13,-1
 560 146 l 1,14,15
 569 -15 569 -15 599 -69 c 1,16,17
 486 -139 486 -139 375 -209 c 128,-1,18
 264 -279 264 -279 152 -350 c 1,19,20
 190 -240 190 -240 215.5 -95.5 c 128,-1,21
 241 49 241 49 254 255 c 1,22,-1
 49 329 l 1,23,-1
 264 534 l 1,24,25
 267 826 267 826 251 1217 c 1,26,27
 199 1241 199 1241 145.5 1265.5 c 128,-1,28
 92 1290 92 1290 40 1316 c 1,0,1
582 1066 m 1,29,30
 561 737 561 737 556 484 c 1,31,-1
 885 331 l 1,32,33
 1010 327 1010 327 1014.5 498 c 128,-1,34
 1019 669 1019 669 955 845 c 128,-1,35
 891 1021 891 1021 785 1118.5 c 128,-1,36
 679 1216 679 1216 582 1066 c 1,29,30
EndSplineSet
EndChar

StartChar: O
Encoding: 79 79 32
Width: 1626
Flags: W
HStem: 30 202<738.008 1020.48> 1515 20G<781.5 931.5>
VStem: 655 270<702.469 1186.08>
LayerCount: 2
Fore
SplineSet
936 1535 m 1,0,1
 927 1406 927 1406 926 1315 c 1,2,3
 974 1362 974 1362 1022 1411.5 c 128,-1,4
 1070 1461 1070 1461 1117 1502 c 1,5,6
 1261 1209 1261 1209 1594 1009 c 1,7,8
 1592 769 1592 769 1508.5 585.5 c 128,-1,9
 1425 402 1425 402 1307 278.5 c 128,-1,10
 1189 155 1189 155 1060 92.5 c 128,-1,11
 931 30 931 30 840 30 c 0,12,13
 416 30 416 30 248.5 300.5 c 128,-1,14
 81 571 81 571 34 932 c 1,15,16
 195 1165 195 1165 411 1327 c 128,-1,17
 627 1489 627 1489 936 1535 c 1,0,1
925 1187 m 1,18,19
 929 730 929 730 1035 495 c 1,20,21
 784 435 784 435 707 290 c 1,22,23
 814 226 814 226 936 232 c 1,24,25
 1094 237 1094 237 1196.5 323 c 128,-1,26
 1299 409 1299 409 1314 543 c 128,-1,27
 1329 677 1329 677 1239.5 846 c 128,-1,28
 1150 1015 1150 1015 925 1187 c 1,18,19
617 359 m 1,29,30
 659 475 659 475 655 667 c 1,31,32
 650 825 650 825 648 986 c 128,-1,33
 646 1147 646 1147 624 1305 c 1,34,35
 386 1167 386 1167 405.5 853 c 128,-1,36
 425 539 425 539 617 359 c 1,29,30
EndSplineSet
EndChar

StartChar: M
Encoding: 77 77 33
Width: 1886
Flags: W
HStem: 31 21G<445.5 524.5 964 1007.42 1547.5 1640> 1515 20G<426 547 813.5 894.5 1321 1412>
VStem: 830 300<351.102 785.542> 1364 300<398.06 962.145>
LayerCount: 2
Fore
SplineSet
532 1535 m 1,0,1
 562 1465 562 1465 576 1430 c 1,2,3
 442 1386 442 1386 429 1320 c 128,-1,4
 416 1254 416 1254 464 1155 c 1,5,6
 560 1249 560 1249 668.5 1354 c 128,-1,7
 777 1459 777 1459 850 1535 c 1,8,9
 939 1476 939 1476 1001.5 1422.5 c 128,-1,10
 1064 1369 1064 1369 1152 1325 c 1,11,12
 1199 1374 1199 1374 1244.5 1422.5 c 128,-1,13
 1290 1471 1290 1471 1352 1535 c 1,14,15
 1472 1470 1472 1470 1593 1405.5 c 128,-1,16
 1714 1341 1714 1341 1845 1295 c 1,17,18
 1684 1185 1684 1185 1675 922 c 1,19,-1
 1664 550 l 2,20,21
 1660 446 1660 446 1693 396.5 c 128,-1,22
 1726 347 1726 347 1779 331 c 1,23,24
 1739 256 1739 256 1699.5 181 c 128,-1,25
 1660 106 1660 106 1620 31 c 1,26,27
 1475 84 1475 84 1417.5 199.5 c 128,-1,28
 1360 315 1360 315 1364 532 c 1,29,-1
 1366 784 l 2,30,31
 1366 875 1366 875 1399 943 c 128,-1,32
 1432 1011 1432 1011 1485 1080 c 1,33,34
 1407 1137 1407 1137 1328.5 1184 c 128,-1,35
 1250 1231 1250 1231 1184 1239 c 1,36,37
 1146 1182 1146 1182 1145.5 1104 c 128,-1,38
 1145 1026 1145 1026 1141 922 c 2,39,-1
 1130 550 l 2,40,41
 1124 349 1124 349 1225 316 c 1,42,-1
 991 31 l 1,43,44
 937 99 937 99 869 160 c 128,-1,45
 801 221 801 221 741 272 c 1,46,47
 771 307 771 307 800 382 c 128,-1,48
 829 457 829 457 830 532 c 1,49,-1
 865 1151 l 1,50,51
 756 1232 756 1232 708.5 1211.5 c 128,-1,52
 661 1191 661 1191 517 1052 c 1,53,-1
 530 1029 l 1,54,55
 626 850 626 850 599 749.5 c 128,-1,56
 572 649 572 649 409 437 c 1,57,58
 464 397 464 397 534 371.5 c 128,-1,59
 604 346 604 346 671 331 c 1,60,61
 630 256 630 256 587.5 181 c 128,-1,62
 545 106 545 106 504 31 c 1,63,64
 387 90 387 90 272 148.5 c 128,-1,65
 157 207 157 207 42 267 c 1,66,67
 264 474 264 474 289 558 c 128,-1,68
 314 642 314 642 195 905 c 0,69,70
 127 1054 127 1054 92 1142 c 128,-1,71
 57 1230 57 1230 84.5 1292 c 128,-1,72
 112 1354 112 1354 216 1405.5 c 128,-1,73
 320 1457 320 1457 532 1535 c 1,0,1
EndSplineSet
EndChar

StartChar: N
Encoding: 78 78 34
Width: 1374
Flags: W
HStem: 31 21G<440.5 519.5 1041.5 1133> 1515 20G<421 542 801 900>
VStem: 857 299<398.06 962.145>
LayerCount: 2
Fore
SplineSet
527 1535 m 1,0,1
 557 1465 557 1465 571 1430 c 1,2,3
 431 1384 431 1384 423 1314 c 128,-1,4
 415 1244 415 1244 467 1136 c 1,5,6
 559 1234 559 1234 660.5 1344.5 c 128,-1,7
 762 1455 762 1455 840 1535 c 1,8,9
 960 1470 960 1470 1083 1405.5 c 128,-1,10
 1206 1341 1206 1341 1339 1295 c 1,11,12
 1176 1185 1176 1185 1169 922 c 1,13,-1
 1156 550 l 2,14,15
 1152 446 1152 446 1186 396.5 c 128,-1,16
 1220 347 1220 347 1272 331 c 1,17,18
 1231 256 1231 256 1191.5 181 c 128,-1,19
 1152 106 1152 106 1114 31 c 1,20,21
 969 84 969 84 911.5 199.5 c 128,-1,22
 854 315 854 315 857 532 c 2,23,-1
 860 784 l 1,24,25
 860 875 860 875 892.5 943 c 128,-1,26
 925 1011 925 1011 977 1080 c 1,27,28
 866 1162 866 1162 760 1156.5 c 128,-1,29
 654 1151 654 1151 524 1032 c 1,30,-1
 525 1029 l 1,31,32
 621 850 621 850 594 749.5 c 128,-1,33
 567 649 567 649 404 437 c 1,34,35
 459 397 459 397 529 371.5 c 128,-1,36
 599 346 599 346 666 331 c 1,37,38
 625 256 625 256 582.5 181 c 128,-1,39
 540 106 540 106 499 31 c 1,40,41
 382 90 382 90 267 148.5 c 128,-1,42
 152 207 152 207 37 267 c 1,43,44
 259 474 259 474 284 558 c 128,-1,45
 309 642 309 642 190 905 c 0,46,47
 122 1054 122 1054 87 1142 c 128,-1,48
 52 1230 52 1230 79.5 1292 c 128,-1,49
 107 1354 107 1354 211 1405.5 c 128,-1,50
 315 1457 315 1457 527 1535 c 1,0,1
EndSplineSet
EndChar

StartChar: L
Encoding: 76 76 35
Width: 1166
Flags: W
VStem: 607 238<763.402 1257>
LayerCount: 2
Fore
SplineSet
1122 1375 m 1,0,1
 980 1372 980 1372 845 1342 c 1,2,3
 819 1146 819 1146 864 901 c 0,4,5
 885 784 885 784 843 730.5 c 128,-1,6
 801 677 801 677 749 636 c 1,7,8
 674 572 674 572 598 511 c 128,-1,9
 522 450 522 450 447 389 c 1,10,11
 771 301 771 301 1135 306 c 1,12,13
 1089 232 1089 232 1060.5 192 c 128,-1,14
 1032 152 1032 152 987 80 c 1,15,16
 940 10 940 10 821 41 c 1,17,18
 621 81 621 81 420.5 121.5 c 128,-1,19
 220 162 220 162 21 204 c 1,20,21
 189 407 189 407 229 546.5 c 128,-1,22
 269 686 269 686 210 822 c 0,23,24
 150 959 150 959 120 1082 c 128,-1,25
 90 1205 90 1205 165 1239 c 0,26,27
 331 1312 331 1312 510 1373.5 c 128,-1,28
 689 1435 689 1435 857 1506 c 0,29,30
 984 1559 984 1559 1039.5 1518 c 128,-1,31
 1095 1477 1095 1477 1122 1375 c 1,0,1
514 612 m 1,32,33
 565 649 565 649 588 754.5 c 128,-1,34
 611 860 611 860 607 916 c 1,35,36
 599 1000 599 1000 594.5 1084.5 c 128,-1,37
 590 1169 590 1169 602 1257 c 1,38,39
 580 1246 580 1246 537 1221 c 0,40,41
 435 1160 435 1160 456 1062 c 128,-1,42
 477 964 477 964 501 862 c 1,43,44
 530 731 530 731 514 612 c 1,32,33
EndSplineSet
EndChar

StartChar: K
Encoding: 75 75 36
Width: 1446
Flags: W
HStem: 31 21G<1055 1128> 1200 335<137.256 320.823>
VStem: 326 305<780.314 807 991 1223.29>
LayerCount: 2
Fore
SplineSet
1056 856 m 1,0,-1
 1409 224 l 1,1,2
 1327 175 1327 175 1247 127 c 128,-1,3
 1167 79 1167 79 1089 31 c 1,4,5
 1021 204 1021 204 945 377.5 c 128,-1,6
 869 551 869 551 779 725 c 1,7,-1
 626 652 l 1,8,9
 617 585 617 585 597 532 c 0,10,11
 575 472 575 472 520 431.5 c 128,-1,12
 465 391 465 391 421 345 c 1,13,14
 499 319 499 319 581.5 323 c 128,-1,15
 664 327 664 327 747 342 c 1,16,17
 705 264 705 264 662 186.5 c 128,-1,18
 619 109 619 109 577 31 c 1,19,20
 454 67 454 67 319 85.5 c 128,-1,21
 184 104 184 104 44 111 c 1,22,23
 247 289 247 289 287 594 c 128,-1,24
 327 899 327 899 326 1225 c 1,25,26
 265 1229 265 1229 195 1220 c 128,-1,27
 125 1211 125 1211 52 1200 c 1,28,29
 75 1282 75 1282 97 1366.5 c 128,-1,30
 119 1451 119 1451 141 1535 c 1,31,32
 285 1524 285 1524 429.5 1512 c 128,-1,33
 574 1500 574 1500 719 1489 c 1,34,35
 645 1360 645 1360 630.5 1235 c 128,-1,36
 616 1110 616 1110 622 991 c 1,37,38
 725 1097 725 1097 825 1239 c 128,-1,39
 925 1381 925 1381 1025 1535 c 1,40,41
 1111 1400 1111 1400 1206 1270.5 c 128,-1,42
 1301 1141 1301 1141 1411 1024 c 1,43,-1
 1056 856 l 1,0,-1
632 780 m 1,44,45
 849 875 849 875 1022 991 c 1,46,47
 955 1044 955 1044 904 1141 c 1,48,-1
 631 807 l 1,49,50
 631 790 631 790 632 780 c 1,44,45
EndSplineSet
EndChar

StartChar: J
Encoding: 74 74 37
Width: 1122
Flags: W
HStem: 774 248<475.745 719> 1060 20G<414.5 506.5> 1542 20G<250 496.5>
LayerCount: 2
Fore
SplineSet
12 1035 m 1,0,1
 89 1179 89 1179 150 1298 c 128,-1,2
 211 1417 211 1417 289 1562 c 1,3,4
 704 1445 704 1445 1100 1535 c 1,5,6
 1017 1367 1017 1367 1030 1242 c 0,7,8
 1087 660 1087 660 858.5 262 c 128,-1,9
 630 -136 630 -136 165 -395 c 1,10,11
 126 -365 126 -365 85 -335.5 c 128,-1,12
 44 -306 44 -306 6 -276 c 1,13,14
 134 -251 134 -251 249.5 -210 c 128,-1,15
 365 -169 365 -169 458.5 -63.5 c 128,-1,16
 552 42 552 42 619.5 239 c 128,-1,17
 687 436 687 436 719 774 c 1,18,19
 579 781 579 781 465 766 c 128,-1,20
 351 751 351 751 249 726 c 1,21,22
 296 814 296 814 343 902 c 128,-1,23
 390 990 390 990 439 1080 c 1,24,25
 574 1024 574 1024 744 1022 c 1,26,27
 762 1167 762 1167 794 1240 c 1,28,29
 557 1251 557 1251 371 1208.5 c 128,-1,30
 185 1166 185 1166 12 1035 c 1,0,1
EndSplineSet
EndChar

StartChar: I
Encoding: 73 73 38
Width: 1062
Flags: W
HStem: 31 21G<467.5 567.5> 1237 279<417.984 782> 1542 20G<162 387>
LayerCount: 2
Fore
SplineSet
782 1237 m 1,0,1
 587 1216 587 1216 391.5 1255.5 c 128,-1,2
 196 1295 196 1295 66 1216 c 1,3,4
 114 1401 114 1401 210 1562 c 1,5,6
 564 1504 564 1504 1030 1516 c 1,7,8
 996 1456 996 1456 966 1403 c 128,-1,9
 936 1350 936 1350 905 1292 c 1,10,11
 927 1041 927 1041 957 780 c 128,-1,12
 987 519 987 519 900 391 c 1,13,14
 807 326 807 326 711.5 231 c 128,-1,15
 616 136 616 136 519 31 c 1,16,17
 416 79 416 79 315 127 c 128,-1,18
 214 175 214 175 112 224 c 1,19,20
 6 267 6 267 34 395 c 1,21,22
 45 465 45 465 57.5 535.5 c 128,-1,23
 70 606 70 606 82 677 c 1,24,25
 191 534 191 534 315 449.5 c 128,-1,26
 439 365 439 365 571 314 c 0,27,28
 629 291 629 291 670.5 340.5 c 128,-1,29
 712 390 712 390 697 532 c 0,30,31
 682 670 682 670 659 806 c 128,-1,32
 636 942 636 942 616 1080 c 1,33,34
 665 1119 665 1119 705 1158 c 128,-1,35
 745 1197 745 1197 782 1237 c 1,0,1
EndSplineSet
EndChar

StartChar: H
Encoding: 72 72 39
Width: 1231
Flags: W
HStem: 31 21G<346 504.5> 1515 20G<533.5 667>
LayerCount: 2
Fore
SplineSet
605 1535 m 1,0,1
 729 1479 729 1479 837.5 1442.5 c 128,-1,2
 946 1406 946 1406 1042 1384 c 1,3,4
 972 1335 972 1335 902 1287 c 128,-1,5
 832 1239 832 1239 764 1191 c 1,6,7
 700 1205 700 1205 644.5 1233.5 c 128,-1,8
 589 1262 589 1262 530 1277 c 1,9,10
 451 1295 451 1295 417.5 1253 c 128,-1,11
 384 1211 384 1211 391 1154 c 1,12,-1
 390 881 l 1,13,-1
 755 1110 l 1,14,15
 1000 890 1000 890 1210 599 c 1,16,17
 1126 355 1126 355 1015 128.5 c 128,-1,18
 904 -98 904 -98 731 -289 c 1,19,20
 610 -421 610 -421 506 -343 c 1,21,22
 479 -321 479 -321 454 -297.5 c 128,-1,23
 429 -274 429 -274 402 -251 c 1,24,25
 681 -183 681 -183 791 29 c 128,-1,26
 901 241 901 241 852 452 c 0,27,28
 829 554 829 554 720.5 725 c 128,-1,29
 612 896 612 896 442 795 c 0,30,31
 425 785 425 785 390 762 c 1,32,-1
 389 461 l 1,33,34
 387 421 387 421 409.5 408.5 c 128,-1,35
 432 396 432 396 457 389 c 1,36,37
 501 372 501 372 558.5 353.5 c 128,-1,38
 616 335 616 335 697 334 c 1,39,40
 641 257 641 257 586.5 181.5 c 128,-1,41
 532 106 532 106 477 31 c 1,42,43
 215 90 215 90 27 186 c 1,44,45
 160 701 160 701 39 1220 c 1,46,47
 180 1299 180 1299 321 1377.5 c 128,-1,48
 462 1456 462 1456 605 1535 c 1,0,1
EndSplineSet
EndChar

StartChar: G
Encoding: 71 71 40
Width: 1472
Flags: W
HStem: 31 21G<386 981> 1515 20G<665 875>
VStem: 476 270<652.75 890 939 1177.42>
LayerCount: 2
Fore
SplineSet
771 1535 m 1,0,1
 979 1390 979 1390 1340 1297 c 1,2,-1
 1114 1081 l 1,3,4
 1210 1004 1210 1004 1294.5 914 c 128,-1,5
 1379 824 1379 824 1445 714 c 1,6,7
 1217 249 1217 249 745 31 c 1,8,9
 27 321 27 321 79 929 c 1,10,11
 215 1126 215 1126 387 1287.5 c 128,-1,12
 559 1449 559 1449 771 1535 c 1,0,1
751 1249 m 1,13,14
 737 1097 737 1097 744 939 c 1,15,16
 799 990 799 990 857 1041 c 128,-1,17
 915 1092 915 1092 970 1145 c 1,18,19
 884 1212 884 1212 751 1249 c 1,13,14
746 890 m 1,20,21
 751 769 751 769 765 649 c 1,22,23
 661 630 661 630 520 512 c 1,24,25
 602 437 602 437 720.5 367 c 128,-1,26
 839 297 839 297 957 317 c 0,27,28
 1122 344 1122 344 1142 464 c 128,-1,29
 1162 584 1162 584 1106 681 c 1,30,31
 1069 741 1069 741 980 803.5 c 128,-1,32
 891 866 891 866 746 890 c 1,20,21
446 585 m 1,33,34
 472 642 472 642 476 716 c 1,35,-1
 485 1064 l 2,36,37
 486 1109 486 1109 455 1180 c 1,38,39
 439 1166 439 1166 426 1147 c 0,40,41
 332 1020 332 1020 335.5 862 c 128,-1,42
 339 704 339 704 446 585 c 1,33,34
EndSplineSet
EndChar

StartChar: F
Encoding: 70 70 41
Width: 1022
Flags: W
HStem: 731 238<648.616 927.891> 1515 20G<424.5 621.5>
LayerCount: 2
Fore
SplineSet
509 1535 m 1,0,1
 734 1454 734 1454 1002 1372 c 1,2,3
 950 1305 950 1305 897.5 1238.5 c 128,-1,4
 845 1172 845 1172 792 1106 c 1,5,6
 760 1155 760 1155 600 1221 c 128,-1,7
 440 1287 440 1287 397 1239 c 1,8,9
 382 1220 382 1220 403 1140.5 c 128,-1,10
 424 1061 424 1061 472 946 c 1,11,12
 680 935 680 935 961 969 c 1,13,14
 950 909 950 909 940 849.5 c 128,-1,15
 930 790 930 790 921 731 c 1,16,-1
 560 750 l 1,17,18
 624 614 624 614 704.5 470 c 128,-1,19
 785 326 785 326 871 202 c 1,20,21
 767 59 767 59 664 -84.5 c 128,-1,22
 561 -228 561 -228 459 -371 c 1,23,24
 215 -251 215 -251 26 31 c 1,25,26
 56 106 56 106 86.5 183 c 128,-1,27
 117 260 117 260 147 336 c 1,28,29
 249 180 249 180 405 26 c 128,-1,30
 561 -128 561 -128 590 -78 c 1,31,32
 615 -31 615 -31 563.5 102 c 128,-1,33
 512 235 512 235 423 408 c 128,-1,34
 334 581 334 581 227.5 769 c 128,-1,35
 121 957 121 957 37 1111 c 1,36,37
 340 1302 340 1302 509 1535 c 1,0,1
EndSplineSet
EndChar

StartChar: E
Encoding: 69 69 42
Width: 1215
Flags: W
HStem: 31 296<742.451 917.594> 844 236<729 1137> 1515 20G<703.5 843>
VStem: 25 302.5<705.237 1080> 494 235<1085.48 1234.37>
LayerCount: 2
Fore
SplineSet
1041 1147 m 1,0,1
 885 1255 885 1255 736 1276 c 1,2,3
 727 1190 727 1190 724 1080 c 1,4,-1
 1137 1080 l 1,5,-1
 1137 844 l 1,6,-1
 729 844 l 1,7,8
 732 730 732 730 752 579 c 1,9,-1
 522 495 l 1,10,11
 612 414 612 414 759.5 365 c 128,-1,12
 907 316 907 316 1126 327 c 1,13,14
 1071 252 1071 252 1016 178.5 c 128,-1,15
 961 105 961 105 907 31 c 1,16,17
 482 77 482 77 253.5 331 c 128,-1,18
 25 585 25 585 25 1080 c 1,19,20
 219 1192 219 1192 412.5 1306.5 c 128,-1,21
 606 1421 606 1421 801 1535 c 1,22,23
 885 1477 885 1477 990 1431 c 128,-1,24
 1095 1385 1095 1385 1211 1345 c 1,25,26
 1169 1296 1169 1296 1125.5 1246 c 128,-1,27
 1082 1196 1082 1196 1041 1147 c 1,0,1
445 577 m 1,28,-1
 519 602 l 1,29,30
 476 912 476 912 494 1237 c 1,31,32
 434 1207 434 1207 396.5 1167 c 128,-1,33
 359 1127 359 1127 347 1100 c 0,34,35
 320 1039 320 1039 327.5 880.5 c 128,-1,36
 335 722 335 722 445 577 c 1,28,-1
EndSplineSet
EndChar

StartChar: D
Encoding: 68 68 43
Width: 1295
Flags: W
HStem: 31 21G<537.5 703.419> 1515 20G<317.252 574.5>
VStem: 224 325<533.744 1003.61> 936 333<534 834.854>
LayerCount: 2
Fore
SplineSet
224 502 m 1,0,1
 239 682 239 682 225 838 c 128,-1,2
 211 994 211 994 120 1084 c 1,3,4
 354 1095 354 1095 569 1180 c 1,5,6
 340 1295 340 1295 15 1289 c 1,7,-1
 344 1535 l 1,8,9
 805 1464 805 1464 1028.5 1208 c 128,-1,10
 1252 952 1252 952 1269 534 c 1,11,-1
 680 31 l 1,12,13
 395 175 395 175 4 270 c 1,14,-1
 224 502 l 1,0,1
616 1154 m 1,15,16
 585 1097 585 1097 565.5 1041 c 128,-1,17
 546 985 546 985 549 882 c 0,18,19
 552 749 552 749 557 684 c 128,-1,20
 562 619 562 619 592 531 c 1,21,22
 469 541 469 541 359 492 c 1,23,24
 700 244 700 244 823.5 348 c 128,-1,25
 947 452 947 452 936 655 c 0,26,27
 929 794 929 794 850 927 c 128,-1,28
 771 1060 771 1060 616 1154 c 1,15,16
EndSplineSet
EndChar

StartChar: C
Encoding: 67 67 44
Width: 1080
Flags: W
HStem: 1087 21G<952 1015.42> 1515 20G<816.407 884.586>
VStem: 505 272<663.629 1201.64>
LayerCount: 2
Fore
SplineSet
1009 1087 m 1,0,1
 895 1184 895 1184 777 1222 c 1,2,3
 755 931 755 931 801 655 c 1,4,-1
 485 514 l 1,5,6
 565 431 565 431 697.5 389 c 128,-1,7
 830 347 830 347 1029 381 c 1,8,-1
 855 15 l 1,9,10
 564 110 564 110 395 199.5 c 128,-1,11
 226 289 226 289 142.5 410 c 128,-1,12
 59 531 59 531 42 701.5 c 128,-1,13
 25 872 25 872 35 1130 c 1,14,-1
 857 1535 l 1,15,-1
 1097 1361 l 1,16,-1
 1009 1087 l 1,0,1
426 587 m 1,17,18
 490 629 490 629 505 754 c 128,-1,19
 520 879 520 879 497 1212 c 1,20,21
 369 1151 369 1151 339 1005 c 0,22,23
 324 932 324 932 339.5 813.5 c 128,-1,24
 355 695 355 695 426 587 c 1,17,18
EndSplineSet
EndChar

StartChar: B
Encoding: 66 66 45
Width: 1451
Flags: W
HStem: 1515 20G<728.5 879.5>
VStem: 276 321<561 848.331 926 1120.23>
LayerCount: 2
Fore
SplineSet
276 474 m 1,0,-1
 282 965 l 2,1,2
 284 1087 284 1087 184 1170 c 1,3,4
 339 1260 339 1260 494.5 1352 c 128,-1,5
 650 1444 650 1444 807 1535 c 1,6,7
 952 1480 952 1480 1073 1408 c 128,-1,8
 1194 1336 1194 1336 1305 1256 c 1,9,10
 1191 1180 1191 1180 1071 1095 c 1,11,12
 1502 762 1502 762 1341.5 499 c 128,-1,13
 1181 236 1181 236 681 12 c 1,14,15
 549 129 549 129 387 203 c 128,-1,16
 225 277 225 277 22 289 c 1,17,-1
 276 474 l 1,0,-1
911 1137 m 1,18,19
 771 1241 771 1241 602 1290 c 1,20,-1
 600 926 l 1,21,-1
 911 1137 l 1,18,19
599 829 m 1,22,-1
 597 561 l 1,23,-1
 496 499 l 1,24,25
 620 437 620 437 732.5 366.5 c 128,-1,26
 845 296 845 296 909 232 c 1,27,28
 1054 359 1054 359 1067 492.5 c 128,-1,29
 1080 626 1080 626 1014.5 723 c 128,-1,30
 949 820 949 820 831.5 857 c 128,-1,31
 714 894 714 894 599 829 c 1,22,-1
EndSplineSet
EndChar

StartChar: A
Encoding: 65 65 46
Width: 1405
Flags: W
HStem: 31 21G<1187.39 1225.61> 636 235<639 1000> 1092 21G<69.5 205.5> 1515 20G<546.5 736.5>
VStem: 1000 255<344.808 636 871 1079.4>
LayerCount: 2
Fore
SplineSet
697 1226 m 1,0,1
 342 1317 342 1317 69 1092 c 1,2,3
 70 1102 70 1102 62.5 1144.5 c 128,-1,4
 55 1187 55 1187 57 1197 c 1,5,6
 181 1299 181 1299 322.5 1384.5 c 128,-1,7
 464 1470 464 1470 629 1535 c 1,8,9
 844 1471 844 1471 1028 1387.5 c 128,-1,10
 1212 1304 1212 1304 1372 1205 c 1,11,12
 1350 1169 1350 1169 1317 1142 c 128,-1,13
 1284 1115 1284 1115 1262 1080 c 1,14,15
 1255 1061 1255 1061 1255 1026 c 128,-1,16
 1255 991 1255 991 1255 972 c 2,17,-1
 1262 436 l 1,18,19
 1265 371 1265 371 1286 355 c 2,20,-1
 1387 272 l 1,21,-1
 1211 31 l 1,22,-1
 982 225 l 1,23,24
 996 325 996 325 1000 428 c 128,-1,25
 1004 531 1004 531 1004 636 c 1,26,-1
 630 636 l 1,27,28
 592 282 592 282 413.5 36 c 128,-1,29
 235 -210 235 -210 92 -349 c 1,30,31
 74 -336 74 -336 54.5 -323 c 128,-1,32
 35 -310 35 -310 16 -299 c 1,33,34
 132 -178 132 -178 189.5 -22 c 128,-1,35
 247 134 247 134 291 316 c 1,36,37
 381 709 381 709 256 960 c 1,38,39
 499 1081 499 1081 697 1226 c 1,0,1
639 871 m 1,40,-1
 1000 871 l 1,41,42
 999 922 999 922 998 974.5 c 128,-1,43
 997 1027 997 1027 999 1080 c 1,44,45
 900 1150 900 1150 791 1195 c 1,46,47
 720 1142 720 1142 683 1073.5 c 128,-1,48
 646 1005 646 1005 639 871 c 1,40,-1
EndSplineSet
EndChar

StartChar: z
Encoding: 122 122 47
Width: 776
Flags: W
HStem: 1084 20G<131.301 202>
LayerCount: 2
Fore
SplineSet
135 1104 m 1,0,1
 269 1052 269 1052 424 1058.5 c 128,-1,2
 579 1065 579 1065 735 1070 c 1,3,-1
 484 767 l 1,4,5
 641 642 641 642 695.5 525.5 c 128,-1,6
 750 409 750 409 750 296 c 1,7,8
 746 49 746 49 544 -170.5 c 128,-1,9
 342 -390 342 -390 115 -309 c 1,10,11
 35 -279 35 -279 42 -123.5 c 128,-1,12
 49 32 49 32 89 132 c 0,13,14
 162 316 162 316 391 461 c 1,15,16
 350 497 350 497 304.5 521 c 128,-1,17
 259 545 259 545 210 567 c 1,18,-1
 456 829 l 1,19,20
 306 856 306 856 76 785 c 1,21,-1
 135 1104 l 1,0,1
245 -141 m 0,22,23
 330 -201 330 -201 411 -143.5 c 128,-1,24
 492 -86 492 -86 525 -23 c 0,25,26
 604 125 604 125 507 312 c 1,27,28
 422 331 422 331 340.5 285 c 128,-1,29
 259 239 259 239 225 194 c 0,30,31
 181 134 181 134 160.5 34 c 128,-1,32
 140 -66 140 -66 245 -141 c 0,22,23
EndSplineSet
EndChar

StartChar: y
Encoding: 121 121 48
Width: 976
Flags: W
HStem: 1060 20G<240.105 286.189 720.105 764.428>
LayerCount: 2
Fore
SplineSet
464 34 m 1,0,-1
 352 85 l 1,1,-1
 111 159 l 1,2,3
 171 234 171 234 171 340 c 1,4,-1
 179 794 l 2,5,6
 179 844 179 844 105 890 c 1,7,-1
 256 1080 l 1,8,-1
 496 921 l 1,9,10
 485 880 485 880 465.5 862.5 c 128,-1,11
 446 845 446 845 442 804 c 2,12,-1
 397 335 l 2,13,14
 394 304 394 304 437.5 239 c 128,-1,15
 481 174 481 174 547 171 c 1,16,17
 651 410 651 410 657 794 c 1,18,19
 659 841 659 841 585 890 c 1,20,-1
 736 1080 l 1,21,-1
 962 921 l 1,22,23
 951 880 951 880 939 867.5 c 128,-1,24
 927 855 927 855 920 815 c 1,25,26
 877 632 877 632 794.5 436 c 128,-1,27
 712 240 712 240 613.5 69.5 c 128,-1,28
 515 -101 515 -101 412.5 -227.5 c 128,-1,29
 310 -354 310 -354 229 -396 c 1,30,-1
 35 -238 l 1,31,32
 327 -131 327 -131 464 34 c 1,0,-1
EndSplineSet
EndChar

StartChar: x
Encoding: 120 120 49
Width: 836
Flags: W
HStem: 31 21G<32.5 40.5 536.5 601> 1060 20G<226.5 303.5 542.5 655.5>
LayerCount: 2
Fore
SplineSet
27 859 m 1,0,1
 66 914 66 914 121 969 c 128,-1,2
 176 1024 176 1024 277 1080 c 1,3,4
 330 972 330 972 407 829 c 1,5,6
 494 950 494 950 591 1080 c 1,7,8
 720 1022 720 1022 817 977 c 1,9,-1
 689 747 l 1,10,11
 616 825 616 825 544 855 c 1,12,13
 491 787 491 787 456 740 c 1,14,15
 569 539 569 539 684 369 c 1,16,17
 735 291 735 291 821 285 c 1,18,19
 761 217 761 217 698.5 153.5 c 128,-1,20
 636 90 636 90 566 31 c 1,21,22
 507 155 507 155 449.5 282 c 128,-1,23
 392 409 392 409 327 534 c 1,24,25
 256 392 256 392 262.5 309 c 128,-1,26
 269 226 269 226 274 144 c 1,27,28
 205 126 205 126 138.5 96 c 128,-1,29
 72 66 72 66 9 31 c 1,30,31
 56 275 56 275 276 630 c 1,32,33
 207 750 207 750 154 827 c 0,34,35
 135 854 135 854 98 856.5 c 128,-1,36
 61 859 61 859 27 859 c 1,0,1
EndSplineSet
EndChar

StartChar: w
Encoding: 119 119 50
Width: 1290
Flags: W
HStem: 31 21G<371.607 420.883> 1064 16G<172.4 212.783 529 578.368 900.143 950>
VStem: 119 247<367.719 786.71> 545 236<350.027 733.936>
LayerCount: 2
Fore
SplineSet
915 1084 m 1,0,1
 985 1051 985 1051 1057 966.5 c 128,-1,2
 1129 882 1129 882 1177.5 783 c 128,-1,3
 1226 684 1226 684 1240 587.5 c 128,-1,4
 1254 491 1254 491 1209 437 c 1,5,-1
 905 14 l 1,6,7
 884 21 884 21 726.5 113.5 c 128,-1,8
 569 206 569 206 571 210 c 1,9,-1
 402 31 l 1,10,-1
 54 260 l 1,11,12
 74 287 74 287 95.5 328 c 128,-1,13
 117 369 117 369 119 410 c 1,14,-1
 124 790 l 2,15,16
 124 821 124 821 94.5 841.5 c 128,-1,17
 65 862 65 862 41 880 c 1,18,-1
 187 1080 l 1,19,-1
 401 914 l 1,20,21
 469 989 469 989 488 1009 c 128,-1,22
 507 1029 507 1029 551 1080 c 1,23,-1
 785 909 l 1,24,-1
 915 1084 l 1,0,1
522 297 m 1,25,26
 537 331 537 331 541 355.5 c 128,-1,27
 545 380 545 380 545 457 c 2,28,-1
 546 662 l 2,29,30
 546 701 546 701 529 735 c 1,31,32
 506 759 506 759 494 772.5 c 128,-1,33
 482 786 482 786 442 812 c 1,34,35
 379 770 379 770 377 724 c 2,36,-1
 366 446 l 2,37,38
 364 397 364 397 424.5 357 c 128,-1,39
 485 317 485 317 522 297 c 1,25,26
781 371 m 1,40,41
 841 341 841 341 892.5 321.5 c 128,-1,42
 944 302 944 302 965 309 c 1,43,44
 1062 334 1062 334 1040 467 c 1,45,46
 1016 594 1016 594 956 677 c 128,-1,47
 896 760 896 760 829 807 c 1,48,49
 787 764 787 764 786 704 c 2,50,-1
 781 371 l 1,40,41
EndSplineSet
EndChar

StartChar: v
Encoding: 118 118 51
Width: 938
Flags: W
HStem: 1064 20G<185.609 227.057 522.886 577>
VStem: 138 256<351.732 771.869>
LayerCount: 2
Fore
SplineSet
539 1084 m 1,0,1
 615 1051 615 1051 694 966.5 c 128,-1,2
 773 882 773 882 826 783 c 128,-1,3
 879 684 879 684 894 587.5 c 128,-1,4
 909 491 909 491 860 437 c 1,5,-1
 529 14 l 1,6,7
 413 59 413 59 296 104.5 c 128,-1,8
 179 150 179 150 64 199 c 1,9,10
 98 266 98 266 116.5 305.5 c 128,-1,11
 135 345 135 345 138 457 c 1,12,-1
 139 662 l 2,13,14
 139 742 139 742 73.5 789 c 128,-1,15
 8 836 8 836 -18 854 c 1,16,-1
 205 1084 l 1,17,-1
 398 909 l 1,18,-1
 539 1084 l 1,0,1
394 371 m 1,19,20
 459 341 459 341 515.5 321.5 c 128,-1,21
 572 302 572 302 594 309 c 1,22,23
 702 334 702 334 675 467 c 0,24,25
 650 594 650 594 585 677 c 128,-1,26
 520 760 520 760 447 807 c 1,27,28
 402 765 402 765 400 704 c 2,29,-1
 394 371 l 1,19,20
EndSplineSet
EndChar

StartChar: u
Encoding: 117 117 52
Width: 979
Flags: W
HStem: 31 21G<237.322 289.368 717.053 756.393> 1060 20G<178 236.476 655.105 713.667>
VStem: 109 255<301.188 873.5> 587 254<348.407 873.5>
LayerCount: 2
Fore
SplineSet
520 890 m 1,0,-1
 671 1080 l 1,1,-1
 895 975 l 1,2,3
 884 934 884 934 869.5 895 c 128,-1,4
 855 856 855 856 855 815 c 1,5,-1
 841 409 l 2,6,7
 839 356 839 356 870 323.5 c 128,-1,8
 901 291 901 291 940 275 c 1,9,-1
 740 31 l 1,10,-1
 522 221 l 1,11,-1
 262 31 l 1,12,-1
 51 202 l 1,13,14
 109 271 109 271 109 340 c 1,15,-1
 116 794 l 2,16,17
 116 842 116 842 42 890 c 1,18,-1
 194 1080 l 1,19,-1
 417 975 l 1,20,21
 406 934 406 934 391.5 895 c 128,-1,22
 377 856 377 856 377 815 c 1,23,-1
 364 409 l 2,24,25
 362 361 362 361 400.5 308.5 c 128,-1,26
 439 256 439 256 587 384 c 1,27,-1
 594 794 l 2,28,29
 594 842 594 842 520 890 c 1,0,-1
EndSplineSet
EndChar

StartChar: uniFB05
Encoding: 64261 64261 53
Width: 992
Flags: W
HStem: 864 216<802 980>
VStem: 40 79<-381.638 -328.023> 132 269.5<245.094 1070.73> 552 247<352.328 859>
LayerCount: 2
Fore
SplineSet
470 937 m 1,0,-1
 612 1145 l 1,1,2
 567 1171 567 1171 509 1200.5 c 128,-1,3
 451 1230 451 1230 410 1235 c 1,4,5
 375 1185 375 1185 359 1160 c 1,6,7
 407 1057 407 1057 401.5 839.5 c 128,-1,8
 396 622 396 622 392 434 c 0,9,10
 391 351 391 351 331 153.5 c 128,-1,11
 271 -44 271 -44 119 -419 c 1,12,13
 87 -388 87 -388 40 -378 c 1,14,15
 109 -130 109 -130 125.5 219.5 c 128,-1,16
 142 569 142 569 132 960 c 0,17,18
 130 1042 130 1042 51 1106 c 1,19,20
 137 1197 137 1197 201.5 1279.5 c 128,-1,21
 266 1362 266 1362 352 1455 c 1,22,23
 436 1455 436 1455 548.5 1421 c 128,-1,24
 661 1387 661 1387 759 1361 c 1,25,-1
 814 1442 l 1,26,-1
 865 1435 l 1,27,28
 841 1326 841 1326 823.5 1255 c 128,-1,29
 806 1184 806 1184 802 1080 c 1,30,-1
 980 1080 l 1,31,-1
 980 864 l 1,32,-1
 801 864 l 1,33,-1
 799 437 l 1,34,35
 797 362 797 362 811 352 c 128,-1,36
 825 342 825 342 957 259 c 1,37,38
 901 197 901 197 846 136 c 128,-1,39
 791 75 791 75 736 15 c 1,40,41
 661 71 661 71 588 127.5 c 128,-1,42
 515 184 515 184 441 240 c 1,43,44
 509 299 509 299 530.5 349 c 128,-1,45
 552 399 552 399 552 444 c 2,46,-1
 556 859 l 1,47,-1
 470 859 l 1,48,-1
 470 937 l 1,0,-1
EndSplineSet
Ligature2: "'rlig' Required Ligatures in Latin lookup 2-1" longs t
Ligature2: "'rlig' Required Ligatures in Latin lookup 2-1" longs afii301 t
LCarets2: 1 0 
Ligature2: "'liga' Standard Ligatures lookup 0-1" longs t
EndChar

StartChar: r
Encoding: 114 114 54
Width: 811
Flags: W
HStem: 31 21G<338.274 378.128> 1060 20G<171.105 215.493>
LayerCount: 2
Fore
SplineSet
395 934 m 1,0,-1
 525 1066 l 1,1,2
 726 927 726 927 797 784 c 1,3,-1
 637 570 l 1,4,5
 610 649 610 649 563.5 709 c 128,-1,6
 517 769 517 769 409 832 c 1,7,-1
 376 787 l 1,8,-1
 357 446 l 2,9,10
 354 394 354 394 423 338 c 128,-1,11
 492 282 492 282 530 266 c 1,12,-1
 364 31 l 1,13,-1
 54 272 l 1,14,15
 110 339 110 339 112 410 c 1,16,-1
 110 794 l 1,17,18
 107 842 107 842 36 890 c 1,19,-1
 187 1080 l 1,20,-1
 395 934 l 1,0,-1
EndSplineSet
EndChar

StartChar: q
Encoding: 113 113 55
Width: 881
Flags: W
VStem: 59 236<306.762 757.279> 515 245<-127.744 190 291 751>
LayerCount: 2
Fore
SplineSet
16 759 m 1,0,-1
 406 1076 l 1,1,-1
 825 869 l 1,2,3
 764 816 764 816 762 716 c 1,4,-1
 760 -28 l 2,5,6
 760 -60 760 -60 787 -102.5 c 128,-1,7
 814 -145 814 -145 845 -174 c 1,8,-1
 667 -381 l 1,9,10
 614 -340 614 -340 563 -290.5 c 128,-1,11
 512 -241 512 -241 512 -149 c 2,12,-1
 511 190 l 1,13,14
 455 145 455 145 398 107.5 c 128,-1,15
 341 70 341 70 296 29 c 1,16,17
 146 85 146 85 16 202 c 1,18,19
 52 249 52 249 59 339 c 1,20,-1
 56 641 l 1,21,22
 59 704 59 704 16 759 c 1,0,-1
354 836 m 1,23,24
 295 750 295 750 295 681 c 2,25,-1
 295 436 l 2,26,27
 295 362 295 362 322 329 c 1,28,29
 346 296 346 296 368 270 c 128,-1,30
 390 244 390 244 432 232 c 1,31,-1
 515 291 l 1,32,-1
 515 751 l 1,33,-1
 354 836 l 1,23,24
EndSplineSet
EndChar

StartChar: p
Encoding: 112 112 56
Width: 943
Flags: W
HStem: 1064 20G<206.522 247.943 542.886 597.5>
VStem: 158 256<-193.796 70 377.761 771.869>
LayerCount: 2
Fore
SplineSet
559 1084 m 1,0,1
 636 1051 636 1051 714.5 966.5 c 128,-1,2
 793 882 793 882 846 783 c 128,-1,3
 899 684 899 684 914 587.5 c 128,-1,4
 929 491 929 491 881 437 c 1,5,-1
 549 14 l 1,6,-1
 408 70 l 1,7,-1
 407 31 l 2,8,9
 406 -19 406 -19 411 -104.5 c 128,-1,10
 416 -190 416 -190 419 -251 c 1,11,12
 322 -266 322 -266 234.5 -305.5 c 128,-1,13
 147 -345 147 -345 68 -398 c 1,14,-1
 18 -344 l 1,15,16
 48 -326 48 -326 100.5 -222.5 c 128,-1,17
 153 -119 153 -119 153 -36 c 1,18,-1
 156 169 l 1,19,-1
 14 225 l 1,20,21
 48 292 48 292 88.5 343 c 128,-1,22
 129 394 129 394 158 457 c 1,23,-1
 159 662 l 2,24,25
 159 742 159 742 93.5 789 c 128,-1,26
 28 836 28 836 2 854 c 1,27,-1
 226 1084 l 1,28,-1
 418 909 l 1,29,-1
 559 1084 l 1,0,1
414 371 m 1,30,31
 479 341 479 341 535.5 321.5 c 128,-1,32
 592 302 592 302 614 309 c 1,33,34
 722 334 722 334 696 467 c 0,35,36
 671 594 671 594 606 677 c 128,-1,37
 541 760 541 760 467 807 c 1,38,39
 451 780 451 780 436 752 c 128,-1,40
 421 724 421 724 421 682 c 2,41,-1
 414 371 l 1,30,31
EndSplineSet
EndChar

StartChar: odieresis
Encoding: 246 246 57
Width: 882
Flags: W
HStem: 1064 20G<419.5 503>
VStem: 95 249<349.008 800.145>
LayerCount: 2
Fore
SplineSet
465 1084 m 1,0,1
 541 1051 541 1051 620 966.5 c 128,-1,2
 699 882 699 882 752 783 c 128,-1,3
 805 684 805 684 820 587.5 c 128,-1,4
 835 491 835 491 786 437 c 1,5,-1
 455 14 l 1,6,-1
 26 225 l 1,7,8
 51 277 51 277 73 337 c 128,-1,9
 95 397 95 397 95 469 c 2,10,-1
 92 702 l 1,11,12
 90 774 90 774 77 801 c 1,13,14
 175 866 175 866 274.5 937.5 c 128,-1,15
 374 1009 374 1009 465 1084 c 1,0,1
544 1106 m 1,16,-1
 614 1426 l 1,17,18
 747 1399 747 1399 855 1337 c 1,19,20
 711 1201 711 1201 544 1106 c 1,16,-1
259 1076 m 1,21,-1
 305 1445 l 1,22,23
 432 1414 432 1414 531 1359 c 1,24,25
 411 1206 411 1206 259 1076 c 1,21,-1
346 836 m 1,26,-1
 344 411 l 1,27,28
 352 362 352 362 419 331.5 c 128,-1,29
 486 301 486 301 519 309 c 0,30,31
 627 334 627 334 601 467 c 1,32,33
 567 632 567 632 503 716.5 c 128,-1,34
 439 801 439 801 346 836 c 1,26,-1
EndSplineSet
EndChar

StartChar: n
Encoding: 110 110 58
Width: 929
Flags: W
HStem: 31 21G<236.322 277.393 658 711.393> 1060 20G<176.105 221.041 504.973 548.619>
VStem: 107 255<309.812 694.211> 115 266<501.789 787> 542 255<308.281 770.341>
LayerCount: 2
Fore
SplineSet
404 934 m 1,0,-1
 521 1080 l 1,1,-1
 840 849 l 1,2,-1
 810 731 l 1,3,-1
 797 409 l 2,4,5
 795 356 795 356 826 323.5 c 128,-1,6
 857 291 857 291 895 275 c 1,7,-1
 695 31 l 1,8,9
 621 89 621 89 580 135.5 c 128,-1,10
 539 182 539 182 542 340 c 2,11,-1
 549 710 l 2,12,13
 549 736 549 736 504.5 778 c 128,-1,14
 460 820 460 820 421 850 c 1,15,-1
 381 787 l 1,16,-1
 362 409 l 2,17,18
 360 356 360 356 391 323.5 c 128,-1,19
 422 291 422 291 461 275 c 1,20,-1
 261 31 l 1,21,-1
 50 202 l 1,22,23
 107 271 107 271 107 340 c 1,24,-1
 115 794 l 2,25,26
 115 842 115 842 41 890 c 1,27,-1
 192 1080 l 1,28,-1
 404 934 l 1,0,-1
EndSplineSet
EndChar

StartChar: j
Encoding: 106 106 59
Width: 480
Flags: W
HStem: 1060 20G<195.105 253.667> 1089 21G<94.0506 117.464>
VStem: 30 106<-349.489 -293.051> 131 253<201.605 870.43>
LayerCount: 2
Fore
SplineSet
60 890 m 1,0,-1
 211 1080 l 1,1,-1
 435 975 l 1,2,3
 424 934 424 934 411.5 895 c 128,-1,4
 399 856 399 856 395 815 c 0,5,6
 385 725 385 725 385 635.5 c 128,-1,7
 385 546 385 546 384 456 c 1,8,9
 381 374 381 374 335 177 c 128,-1,10
 289 -20 289 -20 136 -395 c 1,11,12
 104 -364 104 -364 30 -346 c 1,13,14
 95 -111 95 -111 111 133 c 128,-1,15
 127 377 127 377 131 620 c 2,16,-1
 134 794 l 2,17,18
 134 842 134 842 60 890 c 1,0,-1
90 1089 m 1,19,-1
 170 1484 l 1,20,-1
 469 1365 l 1,21,-1
 90 1089 l 1,19,-1
EndSplineSet
EndChar

StartChar: m
Encoding: 109 109 60
Width: 1350
Flags: W
HStem: 31 21G<241.322 282.393 675.088 716.393 1073 1126.39> 1060 20G<181.105 225.784 513.027 556.09 920.021 963.619>
VStem: 112 255<309.812 779> 546 255<309.129 754.02> 552 264<424.98 770> 957 255<308.281 770.341>
LayerCount: 2
Fore
SplineSet
410 931 m 1,0,-1
 529 1080 l 1,1,-1
 785 891 l 1,2,-1
 936 1080 l 1,3,-1
 1255 849 l 1,4,-1
 1225 731 l 1,5,-1
 1212 409 l 2,6,7
 1209 356 1209 356 1240.5 323.5 c 128,-1,8
 1272 291 1272 291 1310 275 c 1,9,-1
 1110 31 l 1,10,11
 1036 89 1036 89 995 135.5 c 128,-1,12
 954 182 954 182 957 340 c 2,13,-1
 964 710 l 2,14,15
 964 731 964 731 930.5 769 c 128,-1,16
 897 807 897 807 857 841 c 1,17,-1
 816 770 l 1,18,-1
 801 409 l 2,19,20
 799 356 799 356 830 323.5 c 128,-1,21
 861 291 861 291 900 275 c 1,22,-1
 700 31 l 1,23,-1
 487 202 l 1,24,25
 544 269 544 269 546 340 c 2,26,-1
 552 710 l 2,27,28
 552 737 552 737 512 778 c 128,-1,29
 472 819 472 819 435 849 c 1,30,-1
 376 779 l 1,31,-1
 367 409 l 2,32,33
 366 356 366 356 396.5 323.5 c 128,-1,34
 427 291 427 291 466 275 c 1,35,-1
 266 31 l 1,36,-1
 55 202 l 1,37,38
 112 271 112 271 112 340 c 1,39,-1
 120 794 l 2,40,41
 120 842 120 842 46 890 c 1,42,-1
 197 1080 l 1,43,-1
 410 932 l 1,44,-1
 410 931 l 1,0,-1
EndSplineSet
EndChar

StartChar: f
Encoding: 102 102 61
Width: 555
Flags: W
HStem: 829 252<401 549>
VStem: 35 82<-350.36 -304.031> 127 270.5<257.685 829>
LayerCount: 2
Fore
SplineSet
586 1202 m 1,0,1
 511 1247 511 1247 410 1259 c 1,2,3
 392 1232 392 1232 357 1182 c 1,4,5
 376 1141 376 1141 386 1081 c 1,6,-1
 549 1081 l 1,7,-1
 549 829 l 1,8,-1
 401 829 l 1,9,10
 401 735 401 735 397.5 638.5 c 128,-1,11
 394 542 394 542 392 456 c 0,12,13
 390 374 390 374 330 177 c 128,-1,14
 270 -20 270 -20 117 -395 c 1,15,16
 80 -358 80 -358 35 -346 c 1,17,18
 104 -100 104 -100 120.5 249.5 c 128,-1,19
 137 599 137 599 127 991 c 0,20,21
 125 1072 125 1072 46 1136 c 1,22,23
 132 1227 132 1227 203.5 1316 c 128,-1,24
 275 1405 275 1405 361 1497 c 1,25,26
 454 1486 454 1486 559.5 1465 c 128,-1,27
 665 1444 665 1444 766 1424 c 1,28,29
 721 1367 721 1367 676 1312 c 128,-1,30
 631 1257 631 1257 586 1202 c 1,0,1
EndSplineSet
EndChar

StartChar: c
Encoding: 99 99 62
Width: 785
Flags: W
HStem: 1072 20G<314 457>
LayerCount: 2
Fore
SplineSet
570 700 m 1,0,1
 510 737 510 737 474.5 763.5 c 128,-1,2
 439 790 439 790 374 820 c 1,3,4
 335 836 335 836 305 806 c 0,5,6
 219 719 219 719 252 601.5 c 128,-1,7
 285 484 285 484 405 367 c 1,8,9
 461 314 461 314 513.5 334 c 128,-1,10
 566 354 566 354 606 421 c 1,11,12
 627 406 627 406 648.5 391.5 c 128,-1,13
 670 377 670 377 692 362 c 1,14,15
 607 279 607 279 523 195 c 128,-1,16
 439 111 439 111 354 29 c 1,17,18
 30 244 30 244 34 530 c 0,19,20
 36 665 36 665 125 798.5 c 128,-1,21
 214 932 214 932 414 1092 c 1,22,23
 500 1036 500 1036 591 982.5 c 128,-1,24
 682 929 682 929 770 876 c 1,25,-1
 570 700 l 1,0,1
EndSplineSet
EndChar

StartChar: c_k
Encoding: 1114121 -1 63
Width: 1191
Flags: W
HStem: 719 216<802 852 927 1012> 1072 20G<288.5 418.5> 1515 20G<802.24 827.5>
VStem: 559 245<399.472 677 979 1180>
LayerCount: 2
Fore
SplineSet
510 1356 m 1,0,-1
 839 1535 l 1,1,2
 816 1435 816 1435 809 1301 c 1,3,-1
 969 1461 l 1,4,-1
 1164 1215 l 1,5,-1
 927 935 l 1,6,-1
 1125 935 l 1,7,-1
 1012 719 l 1,8,-1
 802 719 l 1,9,-1
 800 437 l 2,10,11
 800 362 800 362 813 344 c 128,-1,12
 826 326 826 326 959 259 c 1,13,14
 902 197 902 197 847 136 c 128,-1,15
 792 75 792 75 737 15 c 1,16,-1
 492 202 l 1,17,-1
 326 29 l 1,18,19
 22 244 22 244 26 530 c 1,20,21
 29 665 29 665 112 798.5 c 128,-1,22
 195 932 195 932 382 1092 c 1,23,24
 455 1042 455 1042 559 979 c 1,25,-1
 559 1049 l 2,26,27
 559 1114 559 1114 554 1204 c 128,-1,28
 549 1294 549 1294 510 1356 c 1,0,-1
550 399 m 1,29,30
 552 414 552 414 555 444 c 1,31,-1
 556 677 l 1,32,33
 504 714 504 714 453 753 c 128,-1,34
 402 792 402 792 345 820 c 1,35,36
 309 836 309 836 281 806 c 0,37,38
 201 719 201 719 231 601.5 c 128,-1,39
 261 484 261 484 375 367 c 0,40,41
 465 275 465 275 550 399 c 1,29,30
805 1180 m 1,42,43
 804 1141 804 1141 804 1102.5 c 128,-1,44
 804 1064 804 1064 804 1024 c 2,45,-1
 802 935 l 1,46,-1
 852 935 l 1,47,-1
 964 1066 l 1,48,49
 946 1197 946 1197 861 1227 c 1,50,-1
 805 1180 l 1,42,43
EndSplineSet
Ligature2: "'rlig' Required Ligatures in Latin lookup 2-1" c k
Ligature2: "'liga' Standard Ligatures lookup 0-1" c k
Ligature2: "'rlig' Required Ligatures in Latin lookup 2-1" c afii301 k
EndChar

StartChar: l
Encoding: 108 108 64
Width: 556
Flags: W
HStem: 1515 20G<380.128 403.5>
VStem: 137 244<352.328 1345.97>
LayerCount: 2
Fore
SplineSet
87 1356 m 1,0,-1
 417 1535 l 1,1,2
 390 1415 390 1415 385.5 1286 c 128,-1,3
 381 1157 381 1157 381 1024 c 2,4,-1
 377 437 l 2,5,6
 377 362 377 362 391 352 c 128,-1,7
 405 342 405 342 537 259 c 1,8,9
 481 197 481 197 426 136 c 128,-1,10
 371 75 371 75 315 15 c 1,11,12
 241 71 241 71 167.5 127.5 c 128,-1,13
 94 184 94 184 21 240 c 1,14,15
 89 299 89 299 110 349 c 128,-1,16
 131 399 131 399 132 444 c 2,17,-1
 137 1049 l 2,18,19
 137 1114 137 1114 131.5 1204 c 128,-1,20
 126 1294 126 1294 87 1356 c 1,0,-1
EndSplineSet
EndChar

StartChar: k
Encoding: 107 107 65
Width: 711
Flags: W
HStem: 719 216<390 439 514 599> 1515 20G<389.128 413.5>
VStem: 145 245<344.576 719 935 1180>
LayerCount: 2
Fore
SplineSet
96 1356 m 1,0,-1
 426 1535 l 1,1,2
 401 1432 401 1432 396 1301 c 1,3,-1
 556 1461 l 1,4,-1
 751 1215 l 1,5,-1
 514 935 l 1,6,-1
 712 935 l 1,7,-1
 599 719 l 1,8,-1
 389 719 l 1,9,-1
 386 437 l 2,10,11
 386 362 386 362 399 344 c 128,-1,12
 412 326 412 326 546 259 c 1,13,14
 490 197 490 197 435 136 c 128,-1,15
 380 75 380 75 324 15 c 1,16,17
 250 71 250 71 176 127.5 c 128,-1,18
 102 184 102 184 30 240 c 1,19,20
 97 299 97 299 118.5 349 c 128,-1,21
 140 399 140 399 141 444 c 2,22,-1
 144 719 l 1,23,-1
 50 719 l 1,24,-1
 145 899 l 1,25,-1
 146 1049 l 2,26,27
 146 1114 146 1114 140.5 1204 c 128,-1,28
 135 1294 135 1294 96 1356 c 1,0,-1
391 1180 m 1,29,30
 390 1141 390 1141 390 1102.5 c 128,-1,31
 390 1064 390 1064 390 1024 c 2,32,-1
 390 935 l 1,33,-1
 439 935 l 1,34,-1
 551 1066 l 1,35,36
 531 1197 531 1197 447 1227 c 1,37,-1
 391 1180 l 1,29,30
EndSplineSet
EndChar

StartChar: i
Encoding: 105 105 66
Width: 470
Flags: W
HStem: 31 21G<224.205 265.393> 1060 20G<164.105 222.667> 1089 21G<63.0506 86.3188>
VStem: 95 255<309.812 874.14>
LayerCount: 2
Fore
SplineSet
29 890 m 1,0,-1
 180 1080 l 1,1,-1
 404 975 l 1,2,3
 392 934 392 934 378 895 c 128,-1,4
 364 856 364 856 364 815 c 1,5,-1
 350 409 l 1,6,7
 347 356 347 356 378.5 323.5 c 128,-1,8
 410 291 410 291 449 275 c 1,9,-1
 249 31 l 1,10,-1
 37 202 l 1,11,12
 95 271 95 271 95 340 c 1,13,-1
 102 794 l 2,14,15
 102 842 102 842 29 890 c 1,0,-1
59 1089 m 1,16,-1
 139 1484 l 1,17,-1
 436 1365 l 1,18,-1
 59 1089 l 1,16,-1
EndSplineSet
EndChar

StartChar: h
Encoding: 104 104 67
Width: 892
Flags: W
HStem: 1060 20G<549.826 724> 1515 20G<380.128 403.5>
VStem: 137 244<352.328 831 931 1345.97> 640 214.5<182.174 521.633>
LayerCount: 2
Fore
SplineSet
87 1356 m 1,0,-1
 417 1535 l 1,1,2
 390 1415 390 1415 385.5 1286 c 128,-1,3
 381 1157 381 1157 381 1024 c 2,4,-1
 381 931 l 1,5,-1
 576 1080 l 1,6,7
 872 799 872 799 854.5 437.5 c 128,-1,8
 837 76 837 76 564 -343 c 1,9,-1
 415 -296 l 1,10,11
 645 -44 645 -44 640 282.5 c 128,-1,12
 635 609 635 609 380 831 c 1,13,-1
 377 437 l 2,14,15
 377 362 377 362 391 352 c 128,-1,16
 405 342 405 342 537 259 c 1,17,18
 481 197 481 197 426 136 c 128,-1,19
 371 75 371 75 315 15 c 1,20,21
 241 71 241 71 167.5 127.5 c 128,-1,22
 94 184 94 184 21 240 c 1,23,24
 89 299 89 299 110 349 c 128,-1,25
 131 399 131 399 132 444 c 2,26,-1
 137 1049 l 2,27,28
 137 1114 137 1114 131.5 1204 c 128,-1,29
 126 1294 126 1294 87 1356 c 1,0,-1
EndSplineSet
EndChar

StartChar: g
Encoding: 103 103 68
Width: 970
Flags: W
VStem: 111 220<305.848 757.372> 569 226<421 751>
LayerCount: 2
Fore
SplineSet
67 759 m 1,0,-1
 457 1076 l 1,1,-1
 876 869 l 1,2,3
 799 801 799 801 799 716 c 1,4,-1
 795 385 l 2,5,6
 794 351 794 351 854 250 c 128,-1,7
 914 149 914 149 944 122 c 1,8,-1
 549 -331 l 1,9,10
 315 -279 315 -279 32 -259 c 1,11,-1
 290 66 l 1,12,13
 161 119 161 119 69 202 c 1,14,15
 102 246 102 246 111 339 c 1,16,-1
 109 641 l 1,17,18
 110 707 110 707 67 759 c 1,0,-1
701 -15 m 1,19,20
 585 117 585 117 575 307 c 1,21,-1
 301 -43 l 1,22,23
 459 -43 459 -43 640 -93 c 1,24,-1
 701 -15 l 1,19,20
569 421 m 1,25,-1
 566 751 l 1,26,-1
 389 836 l 1,27,28
 331 749 331 749 331 681 c 2,29,-1
 331 436 l 2,30,31
 331 362 331 362 356 329 c 0,32,33
 376 304 376 304 393 284.5 c 128,-1,34
 410 265 410 265 436 252 c 1,35,-1
 569 421 l 1,25,-1
EndSplineSet
EndChar

StartChar: longs
Encoding: 383 383 69
Width: 492
Flags: W
VStem: 35 79<-381.638 -328.023> 127 269.5<245.094 1070.73>
LayerCount: 2
Fore
SplineSet
582 1180 m 1,0,1
 509 1222 509 1222 405 1235 c 1,2,3
 370 1185 370 1185 354 1160 c 1,4,5
 402 1057 402 1057 396.5 839.5 c 128,-1,6
 391 622 391 622 387 434 c 0,7,8
 386 351 386 351 326 153.5 c 128,-1,9
 266 -44 266 -44 114 -419 c 1,10,11
 82 -388 82 -388 35 -378 c 1,12,13
 104 -130 104 -130 120.5 219.5 c 128,-1,14
 137 569 137 569 127 960 c 0,15,16
 125 1042 125 1042 46 1106 c 1,17,18
 132 1197 132 1197 196.5 1279.5 c 128,-1,19
 261 1362 261 1362 347 1455 c 1,20,21
 447 1455 447 1455 554 1437.5 c 128,-1,22
 661 1420 661 1420 762 1400 c 1,23,24
 717 1344 717 1344 672 1289.5 c 128,-1,25
 627 1235 627 1235 582 1180 c 1,0,1
EndSplineSet
EndChar

StartChar: e
Encoding: 101 101 70
Width: 794
Flags: W
HStem: 31 21G<460 546> 1060 20G<382 384>
LayerCount: 2
Fore
SplineSet
382 1080 m 1,0,-1
 384 1079 l 1,1,-1
 385 1079 l 1,2,-1
 774 800 l 1,3,-1
 369 374 l 1,4,5
 410 325 410 325 471 320 c 1,6,7
 535 312 535 312 599.5 317 c 128,-1,8
 664 322 664 322 729 324 c 1,9,10
 676 250 676 250 624 177 c 128,-1,11
 572 104 572 104 520 31 c 1,12,13
 400 79 400 79 280.5 126.5 c 128,-1,14
 161 174 161 174 41 222 c 1,15,16
 96 532 96 532 37 874 c 1,17,-1
 382 1077 l 1,18,-1
 382 1080 l 1,0,-1
329 457 m 1,19,-1
 490 627 l 2,20,21
 520 660 520 660 496 698.5 c 128,-1,22
 472 737 472 737 454 755 c 1,23,24
 326 867 326 867 305 751 c 0,25,26
 279 612 279 612 326 472 c 0,27,28
 326 469 326 469 326.5 465 c 128,-1,29
 327 461 327 461 329 457 c 1,19,-1
EndSplineSet
EndChar

StartChar: c_h
Encoding: 1114122 -1 71
Width: 1350
Flags: W
HStem: 1072 20G<280 395.5>
VStem: 554 245<406.778 704.288 976 1195.3>
LayerCount: 2
Fore
SplineSet
554 976 m 1,0,-1
 554 1049 l 1,1,2
 555 1172 555 1172 447 1269 c 1,3,4
 457 1287 457 1287 468 1305.5 c 128,-1,5
 479 1324 479 1324 490 1342 c 1,6,7
 647 1324 647 1324 763 1370.5 c 128,-1,8
 879 1417 879 1417 984 1485 c 1,9,10
 1015 1461 1015 1461 1080 1414 c 1,11,12
 926 1346 926 1346 862.5 1251.5 c 128,-1,13
 799 1157 799 1157 799 1024 c 1,14,-1
 797 907 l 1,15,-1
 1021 1076 l 1,16,17
 1317 796 1317 796 1285.5 436 c 128,-1,18
 1254 76 1254 76 980 -343 c 1,19,-1
 832 -296 l 1,20,21
 1061 -44 1061 -44 1056.5 271 c 128,-1,22
 1052 586 1052 586 797 807 c 1,23,-1
 795 437 l 2,24,25
 795 362 795 362 842 323.5 c 128,-1,26
 889 285 889 285 954 259 c 1,27,28
 897 197 897 197 842 136 c 128,-1,29
 787 75 787 75 732 15 c 1,30,-1
 485 204 l 1,31,-1
 317 29 l 1,32,33
 14 244 14 244 17 530 c 1,34,35
 20 665 20 665 103 798.5 c 128,-1,36
 186 932 186 932 374 1092 c 1,37,38
 417 1062 417 1062 462 1033 c 128,-1,39
 507 1004 507 1004 554 976 c 1,0,-1
546 406 m 1,40,41
 549 431 549 431 549 444 c 2,42,-1
 551 675 l 1,43,44
 497 712 497 712 446 751.5 c 128,-1,45
 395 791 395 791 336 820 c 1,46,47
 300 836 300 836 272 806 c 0,48,49
 192 719 192 719 222 601.5 c 128,-1,50
 252 484 252 484 366 367 c 1,51,52
 460 269 460 269 546 406 c 1,40,41
EndSplineSet
Ligature2: "'rlig' Required Ligatures in Latin lookup 2-1" c afii301 h
Ligature2: "'liga' Standard Ligatures lookup 0-1" c h
Ligature2: "'rlig' Required Ligatures in Latin lookup 2-1" c h
EndChar

StartChar: d
Encoding: 100 100 72
Width: 842
Flags: W
HStem: 31 21G<410 493>
LayerCount: 2
Fore
SplineSet
357 1025 m 1,0,1
 280 1156 280 1156 154 1301 c 1,2,-1
 419 1440 l 1,3,4
 779 1001 779 1001 819 404 c 1,5,6
 694 310 694 310 607.5 230 c 128,-1,7
 521 150 521 150 465 31 c 1,8,9
 355 80 355 80 245.5 130.5 c 128,-1,10
 136 181 136 181 44 265 c 1,11,12
 40 416 40 416 38 568 c 128,-1,13
 36 720 36 720 34 872 c 1,14,15
 117 910 117 910 198.5 947.5 c 128,-1,16
 280 985 280 985 357 1025 c 1,0,1
562 286 m 1,17,18
 567 634 567 634 404 946 c 1,19,20
 295 894 295 894 274.5 757.5 c 128,-1,21
 254 621 254 621 287 411 c 1,22,23
 427 300 427 300 562 286 c 1,17,18
EndSplineSet
EndChar

StartChar: b
Encoding: 98 98 73
Width: 877
Flags: W
HStem: 1081 20G<530.849 594> 1515 20G<356 503.308>
VStem: 131 259<352.173 850 969 1256.79>
LayerCount: 2
Fore
SplineSet
31 1294 m 1,0,-1
 42 1341 l 1,1,2
 241 1411 241 1411 471 1535 c 1,3,-1
 534 1496 l 1,4,5
 392 1411 392 1411 391 1175 c 2,6,-1
 390 969 l 1,7,-1
 556 1101 l 1,8,9
 632 1069 632 1069 696 977 c 128,-1,10
 760 885 760 885 799.5 779.5 c 128,-1,11
 839 674 839 674 849 578 c 128,-1,12
 859 482 859 482 830 445 c 2,13,-1
 499 14 l 1,14,-1
 70 227 l 1,15,16
 95 281 95 281 117 342.5 c 128,-1,17
 139 404 139 404 139 476 c 2,18,-1
 131 1170 l 2,19,20
 131 1244 131 1244 31 1294 c 1,0,-1
390 850 m 1,21,-1
 387 417 l 1,22,23
 396 367 396 367 463 336 c 128,-1,24
 530 305 530 305 564 314 c 0,25,26
 671 341 671 341 645 474 c 0,27,28
 611 642 611 642 546.5 728 c 128,-1,29
 482 814 482 814 390 850 c 1,21,-1
EndSplineSet
EndChar

StartChar: adieresis
Encoding: 228 228 74
Width: 909
Flags: W
LayerCount: 2
Fore
SplineSet
465 1076 m 1,0,1
 621 976 621 976 810 925 c 1,2,-1
 781 514 l 2,3,4
 771 364 771 364 869 257 c 1,5,-1
 690 29 l 1,6,-1
 515 226 l 1,7,-1
 287 29 l 1,8,9
 137 175 137 175 82 367.5 c 128,-1,10
 27 560 27 560 90 811 c 1,11,-1
 465 1076 l 1,0,1
324 846 m 1,12,13
 237 419 237 419 399 296 c 1,14,15
 437 265 437 265 488 300 c 128,-1,16
 539 335 539 335 542 424 c 2,17,-1
 552 759 l 1,18,19
 426 784 426 784 324 846 c 1,12,13
249 1076 m 1,20,-1
 269 1471 l 1,21,22
 407 1445 407 1445 504 1380 c 1,23,-1
 249 1076 l 1,20,-1
530 1110 m 1,24,-1
 629 1474 l 1,25,26
 760 1440 760 1440 861 1376 c 1,27,-1
 530 1110 l 1,24,-1
EndSplineSet
EndChar

StartChar: a
Encoding: 97 97 75
Width: 922
Flags: W
HStem: 31 21G<667.503 706.423>
VStem: 80 242<304.212 757.279> 536 250<297.516 751>
LayerCount: 2
Fore
SplineSet
37 759 m 1,0,-1
 427 1076 l 1,1,-1
 869 869 l 1,2,3
 791 801 791 801 790 716 c 2,4,-1
 786 385 l 2,5,6
 786 351 786 351 821.5 308 c 128,-1,7
 857 265 857 265 889 239 c 1,8,-1
 687 31 l 1,9,-1
 532 190 l 1,10,11
 476 145 476 145 419 107.5 c 128,-1,12
 362 70 362 70 317 29 c 1,13,14
 167 85 167 85 37 202 c 1,15,16
 74 249 74 249 80 339 c 1,17,-1
 77 641 l 1,18,19
 80 704 80 704 37 759 c 1,0,-1
380 836 m 1,20,21
 322 749 322 749 322 681 c 2,22,-1
 322 436 l 2,23,24
 322 361 322 361 349 329 c 1,25,26
 372 296 372 296 391.5 270 c 128,-1,27
 411 244 411 244 454 232 c 1,28,-1
 536 291 l 1,29,-1
 536 751 l 1,30,-1
 380 836 l 1,20,21
EndSplineSet
EndChar

StartChar: o
Encoding: 111 111 76
Width: 864
Flags: W
HStem: 1064 20G<421.5 505.5>
VStem: 97 249<350.269 800.145>
LayerCount: 2
Fore
SplineSet
467 1084 m 1,0,1
 544 1051 544 1051 622.5 966.5 c 128,-1,2
 701 882 701 882 754 783 c 128,-1,3
 807 684 807 684 822 587.5 c 128,-1,4
 837 491 837 491 789 437 c 1,5,-1
 457 14 l 1,6,-1
 29 225 l 1,7,8
 54 277 54 277 75.5 337 c 128,-1,9
 97 397 97 397 97 469 c 2,10,-1
 95 702 l 1,11,12
 92 774 92 774 80 801 c 1,13,14
 177 866 177 866 276.5 937.5 c 128,-1,15
 376 1009 376 1009 467 1084 c 1,0,1
349 836 m 1,16,-1
 346 411 l 1,17,18
 355 362 355 362 422 331.5 c 128,-1,19
 489 301 489 301 521 309 c 0,20,21
 630 334 630 334 604 467 c 1,22,23
 570 632 570 632 505.5 716.5 c 128,-1,24
 441 801 441 801 349 836 c 1,16,-1
EndSplineSet
EndChar

StartChar: udieresis
Encoding: 252 252 77
Width: 966
Flags: W
HStem: 31 21G<229.205 281.368 708.158 747.393> 1060 20G<169.105 227.667 646.105 704.667>
VStem: 100 255<301.399 874.14> 579 253<348.407 872.904>
LayerCount: 2
Fore
SplineSet
511 890 m 1,0,-1
 662 1080 l 1,1,-1
 886 975 l 1,2,3
 875 934 875 934 860.5 895 c 128,-1,4
 846 856 846 856 846 815 c 1,5,-1
 832 409 l 2,6,7
 830 356 830 356 861 323.5 c 128,-1,8
 892 291 892 291 931 275 c 1,9,-1
 731 31 l 1,10,-1
 514 221 l 1,11,-1
 254 31 l 1,12,-1
 42 202 l 1,13,14
 100 271 100 271 100 340 c 1,15,-1
 107 794 l 2,16,17
 107 842 107 842 34 890 c 1,18,-1
 185 1080 l 1,19,-1
 409 975 l 1,20,21
 397 934 397 934 383 895 c 128,-1,22
 369 856 369 856 369 815 c 1,23,-1
 355 409 l 2,24,25
 354 361 354 361 392 308.5 c 128,-1,26
 430 256 430 256 579 384 c 1,27,-1
 585 794 l 2,28,29
 585 842 585 842 511 890 c 1,0,-1
551 1106 m 1,30,-1
 621 1426 l 1,31,32
 755 1399 755 1399 862 1337 c 1,33,34
 719 1201 719 1201 551 1106 c 1,30,-1
266 1076 m 1,35,-1
 312 1445 l 1,36,37
 440 1414 440 1414 539 1359 c 1,38,39
 419 1206 419 1206 266 1076 c 1,35,-1
EndSplineSet
EndChar

StartChar: semicolon
Encoding: 59 59 78
Width: 509
Flags: W
HStem: 1060 20G<227 267>
VStem: 7 480
LayerCount: 2
Fore
SplineSet
80 267 m 1,0,-1
 350 507 l 1,1,2
 497 160 497 160 252 -406 c 1,3,4
 241 -213 241 -213 205 -39.5 c 128,-1,5
 169 134 169 134 80 267 c 1,0,-1
247 1080 m 1,6,-1
 487 840 l 1,7,-1
 247 600 l 1,8,-1
 7 840 l 1,9,-1
 247 1080 l 1,6,-1
EndSplineSet
EndChar

StartChar: colon
Encoding: 58 58 79
Width: 507
Flags: W
HStem: 31 21G<234 274>
VStem: 14 480
LayerCount: 2
Fore
SplineSet
254 511 m 1,0,-1
 494 271 l 1,1,-1
 254 31 l 1,2,-1
 14 271 l 1,3,-1
 254 511 l 1,0,-1
254 1164 m 1,4,-1
 494 924 l 1,5,-1
 254 684 l 1,6,-1
 14 924 l 1,7,-1
 254 1164 l 1,4,-1
EndSplineSet
EndChar

StartChar: quotedbl
Encoding: 34 34 81
Width: 582
Flags: W
HStem: 880 654
VStem: 17 547
LayerCount: 2
Fore
SplineSet
319 1331 m 1,0,-1
 564 1490 l 1,1,2
 546 1304 546 1304 475 1155 c 128,-1,3
 404 1006 404 1006 304 880 c 1,4,-1
 250 889 l 1,5,6
 309 989 309 989 333 1097.5 c 128,-1,7
 357 1206 357 1206 319 1331 c 1,0,-1
84 1376 m 1,8,-1
 330 1534 l 1,9,10
 312 1349 312 1349 239.5 1200 c 128,-1,11
 167 1051 167 1051 69 924 c 1,12,-1
 17 934 l 1,13,14
 74 1034 74 1034 99 1142.5 c 128,-1,15
 124 1251 124 1251 84 1376 c 1,8,-1
EndSplineSet
EndChar

StartChar: uni2133
Encoding: 8499 8499 82
Width: 1597
Flags: W
HStem: -23 109<191.289 352.917 1299.04 1366.87>
VStem: 16 174<97.788 259.231> 696 170<229 497.165> 1112 168<93.0027 626.646> 1389 112<1336.08 1450.53>
LayerCount: 2
Fore
SplineSet
756 561 m 1,0,1
 764 600 764 600 775 643.5 c 128,-1,2
 786 687 786 687 802 737 c 1,3,4
 774 672 774 672 746.5 604.5 c 128,-1,5
 719 537 719 537 684 459 c 0,6,7
 472 -23 472 -23 262 -23 c 0,8,9
 225 -23 225 -23 182 -4.5 c 128,-1,10
 139 14 139 14 102.5 48 c 128,-1,11
 66 82 66 82 41 132 c 128,-1,12
 16 182 16 182 16 247 c 0,13,14
 16 311 16 311 51 345 c 128,-1,15
 86 379 86 379 132 379 c 0,16,17
 237 379 237 379 237 279 c 0,18,19
 237 257 237 257 226 231 c 128,-1,20
 215 205 215 205 199 177 c 0,21,22
 195 170 195 170 192.5 160 c 128,-1,23
 190 150 190 150 190 141 c 0,24,25
 190 117 190 117 216 101.5 c 128,-1,26
 242 86 242 86 262 86 c 0,27,28
 395 86 395 86 597 520 c 1,29,30
 604 532 604 532 627.5 588.5 c 128,-1,31
 651 645 651 645 684 723 c 128,-1,32
 717 801 717 801 756 891.5 c 128,-1,33
 795 982 795 982 830.5 1064.5 c 128,-1,34
 866 1147 866 1147 896 1209.5 c 128,-1,35
 926 1272 926 1272 940 1296 c 1,36,37
 946 1311 946 1311 963.5 1338.5 c 128,-1,38
 981 1366 981 1366 1003.5 1391.5 c 128,-1,39
 1026 1417 1026 1417 1051.5 1436.5 c 128,-1,40
 1077 1456 1077 1456 1100 1456 c 0,41,42
 1116 1456 1116 1456 1129 1438.5 c 128,-1,43
 1142 1421 1142 1421 1142 1411 c 0,44,45
 1142 1384 1142 1384 1120 1356 c 1,46,47
 1085 1284 1085 1284 1038 1110 c 128,-1,48
 991 936 991 936 937 676 c 1,49,50
 926 607 926 607 914 539.5 c 128,-1,51
 902 472 902 472 893.5 413 c 128,-1,52
 885 354 885 354 876 305 c 128,-1,53
 867 256 867 256 866 229 c 1,54,55
 877 252 877 252 888 280.5 c 128,-1,56
 899 309 899 309 912 350 c 1,57,58
 985 545 985 545 1033.5 680 c 128,-1,59
 1082 815 1082 815 1116 891 c 1,60,61
 1249 1202 1249 1202 1389 1401 c 1,62,63
 1392 1417 1392 1417 1414.5 1437 c 128,-1,64
 1437 1457 1437 1457 1457 1457 c 0,65,66
 1501 1457 1501 1457 1501 1411 c 0,67,68
 1501 1399 1501 1399 1498 1388 c 128,-1,69
 1495 1377 1495 1377 1489 1362 c 0,70,71
 1485 1354 1485 1354 1470.5 1301.5 c 128,-1,72
 1456 1249 1456 1249 1434 1159 c 0,73,74
 1392 987 1392 987 1363.5 864.5 c 128,-1,75
 1335 742 1335 742 1316 650.5 c 128,-1,76
 1297 559 1297 559 1288.5 484.5 c 128,-1,77
 1280 410 1280 410 1280 330 c 0,78,79
 1280 302 1280 302 1283 261.5 c 128,-1,80
 1286 221 1286 221 1290 183 c 128,-1,81
 1294 145 1294 145 1301.5 118.5 c 128,-1,82
 1309 92 1309 92 1319 92 c 0,83,84
 1332 92 1332 92 1362 122 c 0,85,86
 1366 127 1366 127 1384 157 c 128,-1,87
 1402 187 1402 187 1432 240 c 1,88,-1
 1432 236 l 1,89,90
 1434 256 1434 256 1479 336 c 1,91,-1
 1479 334 l 1,92,93
 1489 367 1489 367 1517 367 c 0,94,95
 1569 367 1569 367 1569 315 c 0,96,97
 1569 305 1569 305 1565 290.5 c 128,-1,98
 1561 276 1561 276 1550 260 c 1,99,100
 1526 201 1526 201 1506.5 156.5 c 128,-1,101
 1487 112 1487 112 1472 90 c 0,102,103
 1401 -10 1401 -10 1312 -10 c 0,104,105
 1112 -10 1112 -10 1112 285 c 0,106,107
 1112 510 1112 510 1219 862 c 1,108,109
 1114 622 1114 622 991 272 c 0,110,111
 907 35 907 35 831 7 c 1,112,-1
 827 6 l 2,113,114
 811 2 811 2 807 2 c 0,115,116
 696 2 696 2 696 187 c 0,117,118
 696 260 696 260 711.5 352 c 128,-1,119
 727 444 727 444 756 561 c 1,0,1
EndSplineSet
EndChar

StartChar: uni20B0
Encoding: 8368 8368 83
Width: 837
Flags: W
HStem: -263 97<244.204 522.099> 92 137<150.5 341.159> 627 147<177.795 330.875> 1116 94<494.801 603.023>
VStem: 51 186<170.5 389.016> 74 138<-126.809 -24.9238> 186 181<529.148 727.595> 330 155<858.885 1096.53> 637 139<660.062 1086.1> 651 156<-40.9297 314.75>
LayerCount: 2
Fore
SplineSet
616 659 m 1,0,-1
 629 727 l 1,1,2
 632 760 632 760 634.5 793.5 c 128,-1,3
 637 827 637 827 637 862 c 2,4,-1
 637 905 l 2,5,6
 637 942 637 942 632 979.5 c 128,-1,7
 627 1017 627 1017 614.5 1048 c 128,-1,8
 602 1079 602 1079 581.5 1097.5 c 128,-1,9
 561 1116 561 1116 530 1116 c 1,10,11
 504 1112 504 1112 494.5 1097 c 128,-1,12
 485 1082 485 1082 485 1059 c 2,13,-1
 485 1051 l 1,14,15
 489 965 489 965 522 878 c 128,-1,16
 555 791 555 791 597 697 c 1,17,-1
 616 659 l 1,0,-1
739 676 m 1,18,19
 722 627 722 627 712 591 c 128,-1,20
 702 555 702 555 690 526 c 1,21,22
 807 299 807 299 807 135 c 0,23,24
 807 45 807 45 772 -24 c 128,-1,25
 737 -93 737 -93 675.5 -141.5 c 128,-1,26
 614 -190 614 -190 530 -220 c 128,-1,27
 446 -250 446 -250 350 -258 c 1,28,29
 337 -258 337 -258 324.5 -260.5 c 128,-1,30
 312 -263 312 -263 301 -263 c 0,31,32
 266 -263 266 -263 226 -250.5 c 128,-1,33
 186 -238 186 -238 152.5 -218 c 128,-1,34
 119 -198 119 -198 96.5 -169.5 c 128,-1,35
 74 -141 74 -141 74 -111 c 0,36,37
 74 -90 74 -90 87 -67.5 c 128,-1,38
 100 -45 100 -45 118.5 -24.5 c 128,-1,39
 137 -4 137 -4 156.5 9 c 128,-1,40
 176 22 176 22 187 22 c 0,41,42
 212 22 212 22 212 -28 c 2,43,-1
 212 -38 l 2,44,45
 212 -90 212 -90 246.5 -128 c 128,-1,46
 281 -166 281 -166 340 -166 c 0,47,48
 357 -166 357 -166 383.5 -163 c 128,-1,49
 410 -160 410 -160 436 -153 c 0,50,51
 541 -125 541 -125 596 -71.5 c 128,-1,52
 651 -18 651 -18 651 59 c 2,53,-1
 651 72 l 1,54,55
 642 227 642 227 592 356 c 1,56,57
 545 289 545 289 489.5 239.5 c 128,-1,58
 434 190 434 190 379 157.5 c 128,-1,59
 324 125 324 125 270.5 108.5 c 128,-1,60
 217 92 217 92 174 92 c 0,61,62
 127 92 127 92 89 115.5 c 128,-1,63
 51 139 51 139 51 202 c 0,64,65
 51 237 51 237 62.5 282 c 128,-1,66
 74 327 74 327 96 389 c 1,67,68
 131 465 131 465 153.5 524.5 c 128,-1,69
 176 584 176 584 186 625 c 0,70,71
 186 627 186 627 184 627 c 0,72,73
 180 627 180 627 151 603.5 c 128,-1,74
 122 580 122 580 86 539 c 1,75,-1
 59 575 l 2,76,77
 49 587 49 587 38 604.5 c 128,-1,78
 27 622 27 622 22 627 c 1,79,80
 212 774 212 774 299 774 c 0,81,82
 367 774 367 774 367 697 c 0,83,84
 367 631 367 631 305 487 c 1,85,86
 270 385 270 385 253.5 328.5 c 128,-1,87
 237 272 237 272 237 250 c 0,88,89
 237 232 237 232 245.5 230.5 c 128,-1,90
 254 229 254 229 264 229 c 0,91,92
 319 229 319 229 395 292.5 c 128,-1,93
 471 356 471 356 541 472 c 1,94,95
 330 802 330 802 330 975 c 0,96,97
 330 1001 330 1001 336 1026 c 0,98,99
 356 1110 356 1110 401 1160 c 128,-1,100
 446 1210 446 1210 512 1210 c 2,101,-1
 532 1210 l 2,102,103
 604 1210 604 1210 650.5 1186 c 128,-1,104
 697 1162 697 1162 725.5 1122 c 128,-1,105
 754 1082 754 1082 765 1031.5 c 128,-1,106
 776 981 776 981 776 926 c 2,107,-1
 776 911 l 2,108,109
 776 850 776 850 766 791 c 128,-1,110
 756 732 756 732 739 676 c 1,18,19
EndSplineSet
EndChar

StartChar: uni338F
Encoding: 13199 13199 84
Width: 2101
Flags: W
HStem: -388 100<1277.23 1717.53> -18 174<1288.49 1747.64> 6 105<57 190.652 399.833 530 594 714.907 943.288 1081> 289 88<1373.51 1623.44> 831 96<516 665.996 846.871 1001 1383.75 1614.44> 1346 96<47 182.398>
VStem: 202 187<125.927 416.731 520 1332.56> 1067 172<-248.432 -77.4813> 1110 142<145.5 272.036> 1137 185<437.462 764.579> 1672 192<447.66 769.365> 1792 152<-222.73 -45.7596>
LayerCount: 2
Fore
SplineSet
2047 821 m 0,0,1
 2047 731 2047 731 1956 731 c 0,2,3
 1890 731 1890 731 1864 795 c 1,4,-1
 1866 795 l 1,5,6
 1852 807 1852 807 1845 822 c 1,7,8
 1842 821 1842 821 1834.5 814 c 128,-1,9
 1827 807 1827 807 1804 791 c 1,10,11
 1839 745 1839 745 1851.5 704.5 c 128,-1,12
 1864 664 1864 664 1864 606 c 0,13,14
 1864 530 1864 530 1833 471 c 128,-1,15
 1802 412 1802 412 1747 372 c 128,-1,16
 1692 332 1692 332 1614.5 310.5 c 128,-1,17
 1537 289 1537 289 1447 289 c 0,18,19
 1331 289 1331 289 1291.5 271.5 c 128,-1,20
 1252 254 1252 254 1252 217 c 0,21,22
 1252 156 1252 156 1374 156 c 2,23,-1
 1392 156 l 2,24,25
 1447 156 1447 156 1514 156.5 c 128,-1,26
 1581 157 1581 157 1640 162 c 1,27,28
 1802 162 1802 162 1873 105.5 c 128,-1,29
 1944 49 1944 49 1944 -80 c 0,30,31
 1944 -388 1944 -388 1457 -388 c 0,32,33
 1067 -388 1067 -388 1067 -184 c 0,34,35
 1067 -125 1067 -125 1102 -82 c 128,-1,36
 1137 -39 1137 -39 1227 -6 c 1,37,38
 1186 7 1186 7 1162.5 23 c 128,-1,39
 1139 39 1139 39 1127.5 59.5 c 128,-1,40
 1116 80 1116 80 1113 104.5 c 128,-1,41
 1110 129 1110 129 1110 162 c 0,42,43
 1110 229 1110 229 1146 279.5 c 128,-1,44
 1182 330 1182 330 1274 356 c 1,45,46
 1196 402 1196 402 1166.5 464 c 128,-1,47
 1137 526 1137 526 1137 606 c 0,48,49
 1137 677 1137 677 1165.5 736 c 128,-1,50
 1194 795 1194 795 1243 836 c 128,-1,51
 1292 877 1292 877 1358.5 898.5 c 128,-1,52
 1425 920 1425 920 1499 920 c 0,53,54
 1569 920 1569 920 1625 903.5 c 128,-1,55
 1681 887 1681 887 1735 850 c 1,56,-1
 1741 856 l 2,57,58
 1742 857 1742 857 1745.5 860.5 c 128,-1,59
 1749 864 1749 864 1757 867 c 1,60,-1
 1755 867 l 1,61,62
 1845 952 1845 952 1927 952 c 0,63,64
 2047 952 2047 952 2047 821 c 0,0,1
1672 600 m 0,65,66
 1672 717 1672 717 1631.5 769 c 128,-1,67
 1591 821 1591 821 1499 821 c 256,68,69
 1407 821 1407 821 1364.5 766.5 c 128,-1,70
 1322 712 1322 712 1322 600 c 0,71,72
 1322 487 1322 487 1362 432 c 128,-1,73
 1402 377 1402 377 1497 377 c 0,74,75
 1591 377 1591 377 1631.5 429.5 c 128,-1,76
 1672 482 1672 482 1672 600 c 0,65,66
1792 -131 m 0,77,78
 1792 -73 1792 -73 1749 -45.5 c 128,-1,79
 1706 -18 1706 -18 1610 -18 c 2,80,-1
 1377 -18 l 1,81,82
 1317 -35 1317 -35 1278 -70.5 c 128,-1,83
 1239 -106 1239 -106 1239 -164 c 0,84,85
 1239 -288 1239 -288 1470 -288 c 0,86,87
 1792 -288 1792 -288 1792 -131 c 0,77,78
594 6 m 1,88,-1
 594 109 l 1,89,-1
 657 111 l 2,90,91
 677 112 677 112 688.5 113.5 c 128,-1,92
 700 115 700 115 705.5 117 c 128,-1,93
 711 119 711 119 711.5 122 c 128,-1,94
 712 125 712 125 715 131 c 1,95,96
 711 139 711 139 702.5 148 c 128,-1,97
 694 157 694 157 694 167 c 1,98,99
 639 246 639 246 590.5 318.5 c 128,-1,100
 542 391 542 391 485 471 c 1,101,-1
 461 444 l 1,102,103
 442 426 442 426 426 408.5 c 128,-1,104
 410 391 410 391 389 375 c 1,105,-1
 389 174 l 2,106,107
 389 139 389 139 399.5 125.5 c 128,-1,108
 410 112 410 112 440 111 c 1,109,-1
 477 111 l 2,110,111
 487 111 487 111 503.5 110 c 128,-1,112
 520 109 520 109 530 109 c 1,113,-1
 530 6 l 1,114,-1
 57 6 l 1,115,-1
 57 109 l 1,116,-1
 152 111 l 2,117,118
 180 112 180 112 191 125.5 c 128,-1,119
 202 139 202 139 202 174 c 2,120,-1
 202 1277 l 2,121,122
 202 1319 202 1319 183 1333 c 128,-1,123
 164 1347 164 1347 112 1347 c 2,124,-1
 102 1347 l 2,125,126
 97 1347 97 1347 94.5 1346.5 c 128,-1,127
 92 1346 92 1346 87 1346 c 2,128,-1
 47 1346 l 1,129,-1
 47 1442 l 1,130,-1
 389 1464 l 1,131,-1
 389 520 l 1,132,133
 422 551 422 551 450.5 579 c 128,-1,134
 479 607 479 607 512 641 c 0,135,136
 530 659 530 659 557 683 c 128,-1,137
 584 707 584 707 608 731.5 c 128,-1,138
 632 756 632 756 649 777.5 c 128,-1,139
 666 799 666 799 666 812 c 0,140,141
 666 817 666 817 649 824 c 128,-1,142
 632 831 632 831 590 831 c 2,143,-1
 516 831 l 1,144,-1
 516 927 l 1,145,-1
 1004 927 l 1,146,-1
 1001 831 l 1,147,148
 857 831 857 831 709 680 c 1,149,-1
 622 597 l 1,150,151
 694 497 694 497 764 399 c 128,-1,152
 834 301 834 301 899 201 c 1,153,154
 927 160 927 160 975.5 136 c 128,-1,155
 1024 112 1024 112 1081 109 c 1,156,-1
 1081 6 l 1,157,-1
 594 6 l 1,88,-1
EndSplineSet
EndChar

StartChar: multiply
Encoding: 215 215 85
Width: 906
Flags: W
HStem: 375 651
VStem: 130 651
LayerCount: 2
Fore
SplineSet
130 501 m 1,0,-1
 347 704 l 1,1,-1
 141 921 l 1,2,-1
 251 1026 l 1,3,-1
 457 807 l 1,4,-1
 676 1015 l 1,5,-1
 781 905 l 1,6,-1
 560 697 l 1,7,-1
 765 480 l 1,8,-1
 655 375 l 1,9,-1
 450 592 l 1,10,-1
 235 391 l 1,11,-1
 130 501 l 1,0,-1
EndSplineSet
EndChar

StartChar: copyright
Encoding: 169 169 86
Width: 1311
Flags: W
HStem: 171 44<514.981 794.479> 316 83<586.743 773.987> 841 133<787 829> 974 60<540.448 725.657> 1136 45<515.2 797.75>
VStem: 159 43<538.232 816.602> 340 146<519.992 851.062> 1107 45<532.075 817.638>
LayerCount: 2
Fore
SplineSet
819 841 m 1,0,-1
 787 841 l 1,1,-1
 784 851 l 1,2,3
 770 886 770 886 755.5 909 c 128,-1,4
 741 932 741 932 723.5 946 c 128,-1,5
 706 960 706 960 681 967 c 128,-1,6
 656 974 656 974 620 974 c 256,7,8
 584 974 584 974 557 957 c 128,-1,9
 530 940 530 940 515 910 c 128,-1,10
 500 880 500 880 493 840.5 c 128,-1,11
 486 801 486 801 486 755 c 0,12,13
 486 697 486 697 495 651.5 c 128,-1,14
 504 606 504 606 509 585 c 0,15,16
 517 546 517 546 534.5 512.5 c 128,-1,17
 552 479 552 479 574.5 452.5 c 128,-1,18
 597 426 597 426 626.5 412.5 c 128,-1,19
 656 399 656 399 690 399 c 0,20,21
 739 399 739 399 780 432.5 c 128,-1,22
 821 466 821 466 845 530 c 1,23,-1
 847 539 l 1,24,-1
 889 539 l 1,25,-1
 911 540 l 1,26,-1
 902 519 l 1,27,28
 864 424 864 424 792.5 370 c 128,-1,29
 721 316 721 316 637 316 c 0,30,31
 574 316 574 316 520 344 c 128,-1,32
 466 372 466 372 426.5 421.5 c 128,-1,33
 387 471 387 471 363.5 536 c 128,-1,34
 340 601 340 601 340 676 c 0,35,36
 340 702 340 702 347.5 739.5 c 128,-1,37
 355 777 355 777 370 816.5 c 128,-1,38
 385 856 385 856 408.5 895.5 c 128,-1,39
 432 935 432 935 464 965.5 c 128,-1,40
 496 996 496 996 536.5 1015 c 128,-1,41
 577 1034 577 1034 629 1034 c 0,42,43
 666 1034 666 1034 693 1024.5 c 128,-1,44
 720 1015 720 1015 740.5 1004.5 c 128,-1,45
 761 994 761 994 775.5 984 c 128,-1,46
 790 974 790 974 804 974 c 0,47,48
 821 974 821 974 833.5 982 c 128,-1,49
 846 990 846 990 860 1019 c 1,50,-1
 864 1025 l 1,51,-1
 901 1025 l 1,52,-1
 924 1025 l 1,53,-1
 834 850 l 1,54,-1
 829 841 l 1,55,-1
 819 841 l 1,0,-1
656 1181 m 0,56,57
 759 1181 759 1181 849.5 1141 c 128,-1,58
 940 1101 940 1101 1007.5 1033 c 128,-1,59
 1075 965 1075 965 1113.5 873.5 c 128,-1,60
 1152 782 1152 782 1152 676 c 0,61,62
 1152 571 1152 571 1113.5 479 c 128,-1,63
 1075 387 1075 387 1007.5 318.5 c 128,-1,64
 940 250 940 250 849.5 210.5 c 128,-1,65
 759 171 759 171 656 171 c 0,66,67
 552 171 552 171 461 210.5 c 128,-1,68
 370 250 370 250 302.5 318.5 c 128,-1,69
 235 387 235 387 197 479 c 128,-1,70
 159 571 159 571 159 676 c 0,71,72
 159 780 159 780 197 871 c 128,-1,73
 235 962 235 962 302.5 1031 c 128,-1,74
 370 1100 370 1100 460.5 1140.5 c 128,-1,75
 551 1181 551 1181 656 1181 c 0,56,57
975 1000 m 0,76,77
 841 1136 841 1136 656 1136 c 0,78,79
 561 1136 561 1136 478 1100 c 128,-1,80
 395 1064 395 1064 333.5 1002 c 128,-1,81
 272 940 272 940 237 855 c 128,-1,82
 202 770 202 770 202 676 c 0,83,84
 202 585 202 585 236 502 c 128,-1,85
 270 419 270 419 330.5 354.5 c 128,-1,86
 391 290 391 290 474 252.5 c 128,-1,87
 557 215 557 215 656 215 c 0,88,89
 749 215 749 215 830.5 250 c 128,-1,90
 912 285 912 285 973.5 348 c 128,-1,91
 1035 411 1035 411 1071 495 c 128,-1,92
 1107 579 1107 579 1107 676 c 0,93,94
 1107 770 1107 770 1071 855 c 128,-1,95
 1035 940 1035 940 975 1000 c 0,76,77
EndSplineSet
EndChar

StartChar: logicalnot
Encoding: 172 172 87
Width: 690
Flags: W
HStem: 601 100<96 509>
VStem: 509 85<474 601>
LayerCount: 2
Fore
SplineSet
96 701 m 1,0,-1
 594 701 l 1,1,-1
 594 474 l 1,2,-1
 509 474 l 1,3,-1
 509 601 l 1,4,-1
 96 601 l 1,5,-1
 96 701 l 1,0,-1
EndSplineSet
EndChar

StartChar: uni00AD
Encoding: 173 173 88
Width: 690
Flags: W
HStem: 601 100<96 591>
VStem: 96 495<601 701>
LayerCount: 2
Fore
SplineSet
96 701 m 1,0,-1
 591 701 l 1,1,-1
 591 601 l 1,2,-1
 96 601 l 1,3,-1
 96 701 l 1,0,-1
EndSplineSet
EndChar

StartChar: registered
Encoding: 174 174 89
Width: 1311
Flags: W
HStem: 195 44<482.073 781.845> 331 119<825.036 908.684> 339 56<340 401 551.109 612> 619 57<555 650.139> 971 56<340 401 555 736.947> 1141 45<480.706 784.545>
VStem: 106 45<556.913 827.005> 401 154<395.002 619 676 970.999> 772 145<693.772 951.86> 916 58<462.597 522> 1114 45<555.459 824.118>
LayerCount: 2
Fore
SplineSet
632 1186 m 0,0,1
 741 1186 741 1186 838 1146.5 c 128,-1,2
 935 1107 935 1107 1005.5 1040.5 c 128,-1,3
 1076 974 1076 974 1117.5 884.5 c 128,-1,4
 1159 795 1159 795 1159 691 c 0,5,6
 1159 589 1159 589 1117.5 498 c 128,-1,7
 1076 407 1076 407 1005.5 339.5 c 128,-1,8
 935 272 935 272 838 233.5 c 128,-1,9
 741 195 741 195 632 195 c 0,10,11
 522 195 522 195 426.5 233.5 c 128,-1,12
 331 272 331 272 259 339.5 c 128,-1,13
 187 407 187 407 146.5 498 c 128,-1,14
 106 589 106 589 106 691 c 0,15,16
 106 792 106 792 146.5 881.5 c 128,-1,17
 187 971 187 971 258 1038.5 c 128,-1,18
 329 1106 329 1106 425.5 1146 c 128,-1,19
 522 1186 522 1186 632 1186 c 0,0,1
555 676 m 1,20,-1
 646 676 l 1,21,-1
 676 676 l 1,22,23
 772 687 772 687 772 795 c 0,24,25
 772 804 772 804 771 813 c 128,-1,26
 770 822 770 822 769 834 c 1,27,28
 764 884 764 884 754.5 912 c 128,-1,29
 745 940 745 940 726 953 c 128,-1,30
 707 966 707 966 679.5 968.5 c 128,-1,31
 652 971 652 971 610 971 c 2,32,-1
 555 971 l 1,33,-1
 555 676 l 1,20,-1
904 462 m 1,34,35
 916 481 916 481 916 512 c 2,36,-1
 916 527 l 1,37,-1
 960 524 l 1,38,-1
 974 522 l 1,39,-1
 974 509 l 2,40,41
 974 426 974 426 945 378.5 c 128,-1,42
 916 331 916 331 840 331 c 0,43,44
 779 331 779 331 735.5 370 c 128,-1,45
 692 409 692 409 679 472 c 1,46,47
 676 501 676 501 671 528 c 128,-1,48
 666 555 666 555 658 575 c 128,-1,49
 650 595 650 595 637.5 607 c 128,-1,50
 625 619 625 619 602 619 c 2,51,-1
 552 619 l 1,52,-1
 551 416 l 2,53,54
 551 409 551 409 570 402 c 128,-1,55
 589 395 589 395 596 395 c 2,56,-1
 612 395 l 1,57,-1
 612 352 l 1,58,-1
 612 339 l 1,59,-1
 356 339 l 1,60,-1
 340 339 l 1,61,-1
 340 379 l 1,62,-1
 340 395 l 1,63,-1
 356 395 l 2,64,65
 366 395 366 395 383.5 402 c 128,-1,66
 401 409 401 409 401 416 c 2,67,-1
 401 960 l 2,68,69
 401 962 401 962 385.5 966.5 c 128,-1,70
 370 971 370 971 356 971 c 2,71,-1
 340 971 l 1,72,-1
 340 1014 l 1,73,-1
 340 1027 l 1,74,-1
 384 1027 l 1,75,-1
 537 1027 l 1,76,-1
 711 1027 l 1,77,78
 744 1025 744 1025 780 1016 c 128,-1,79
 816 1007 816 1007 846.5 986 c 128,-1,80
 877 965 877 965 897 928 c 128,-1,81
 917 891 917 891 917 836 c 0,82,83
 917 652 917 652 754 622 c 1,84,85
 782 602 782 602 794.5 572 c 128,-1,86
 807 542 807 542 816.5 515.5 c 128,-1,87
 826 489 826 489 838.5 469.5 c 128,-1,88
 851 450 851 450 882 450 c 0,89,90
 894 450 894 450 904 462 c 1,34,35
971 1009 m 1,91,92
 830 1141 830 1141 632 1141 c 0,93,94
 532 1141 532 1141 444.5 1106 c 128,-1,95
 357 1071 357 1071 291.5 1009 c 128,-1,96
 226 947 226 947 188.5 865.5 c 128,-1,97
 151 784 151 784 151 691 c 0,98,99
 151 601 151 601 188 519 c 128,-1,100
 225 437 225 437 288.5 374.5 c 128,-1,101
 352 312 352 312 440.5 275.5 c 128,-1,102
 529 239 529 239 632 239 c 0,103,104
 730 239 730 239 817 273 c 128,-1,105
 904 307 904 307 969.5 368 c 128,-1,106
 1035 429 1035 429 1074.5 512.5 c 128,-1,107
 1114 596 1114 596 1114 691 c 0,108,109
 1114 784 1114 784 1074.5 865.5 c 128,-1,110
 1035 947 1035 947 971 1009 c 1,91,92
EndSplineSet
EndChar

StartChar: hyphen
Encoding: 45 45 90
Width: 850
Flags: W
HStem: 455.5 290.5<213.688 625>
LayerCount: 2
Fore
SplineSet
205 826 m 1,0,1
 214 744 214 744 290 746 c 2,2,-1
 669 756 l 2,3,4
 754 759 754 759 840 831 c 1,5,6
 786 737 786 737 732.5 644.5 c 128,-1,7
 679 552 679 552 625 460 c 1,8,9
 420 464 420 464 241 455.5 c 128,-1,10
 62 447 62 447 25 377 c 1,11,12
 70 490 70 490 115 602 c 128,-1,13
 160 714 160 714 205 826 c 1,0,1
EndSplineSet
EndChar

StartChar: quotesingle
Encoding: 39 39 91
Width: 346
Flags: W
LayerCount: 2
Fore
SplineSet
7 1512 m 1,0,-1
 255 1677 l 1,1,2
 337 1316 337 1316 117 994 c 1,3,4
 137 1165 137 1165 121 1303.5 c 128,-1,5
 105 1442 105 1442 7 1512 c 1,0,-1
EndSplineSet
EndChar

StartChar: quotedblright
Encoding: 8221 8221 92
Width: 582
Flags: W
HStem: 891 654
VStem: 17 547
LayerCount: 2
Fore
SplineSet
319 1342 m 1,0,-1
 564 1501 l 1,1,2
 546 1315 546 1315 475 1166 c 128,-1,3
 404 1017 404 1017 304 891 c 1,4,-1
 250 900 l 1,5,6
 309 1000 309 1000 333 1108.5 c 128,-1,7
 357 1217 357 1217 319 1342 c 1,0,-1
84 1387 m 1,8,-1
 330 1545 l 1,9,10
 312 1360 312 1360 239.5 1211 c 128,-1,11
 167 1062 167 1062 69 935 c 1,12,-1
 17 945 l 1,13,14
 74 1045 74 1045 99 1153.5 c 128,-1,15
 124 1262 124 1262 84 1387 c 1,8,-1
EndSplineSet
EndChar

StartChar: quotedblleft
Encoding: 8220 8220 93
Width: 582
Flags: W
HStem: 884 653
VStem: 17 547
LayerCount: 2
Fore
SplineSet
262 1086 m 1,0,-1
 17 927 l 1,1,2
 35 1114 35 1114 106 1262.5 c 128,-1,3
 177 1411 177 1411 277 1537 c 1,4,-1
 331 1529 l 1,5,6
 272 1429 272 1429 248 1320 c 128,-1,7
 224 1211 224 1211 262 1086 c 1,0,-1
497 1041 m 1,8,-1
 251 884 l 1,9,10
 269 1069 269 1069 341.5 1217.5 c 128,-1,11
 414 1366 414 1366 512 1494 c 1,12,-1
 564 1484 l 1,13,14
 507 1384 507 1384 482 1275 c 128,-1,15
 457 1166 457 1166 497 1041 c 1,8,-1
EndSplineSet
EndChar

StartChar: quoteleft
Encoding: 8216 8216 94
Width: 342
Flags: W
HStem: 941 609
VStem: 17 313
LayerCount: 2
Fore
SplineSet
262 1099 m 1,0,-1
 17 941 l 1,1,2
 34 1126 34 1126 105.5 1275 c 128,-1,3
 177 1424 177 1424 277 1550 c 1,4,-1
 330 1541 l 1,5,6
 272 1441 272 1441 248 1332.5 c 128,-1,7
 224 1224 224 1224 262 1099 c 1,0,-1
EndSplineSet
EndChar

StartChar: quoteright
Encoding: 8217 8217 95
Width: 344
Flags: W
HStem: 961 609
VStem: 16 314
LayerCount: 2
Fore
SplineSet
84 1412 m 1,0,-1
 330 1570 l 1,1,2
 312 1385 312 1385 239.5 1236 c 128,-1,3
 167 1087 167 1087 67 961 c 1,4,-1
 16 970 l 1,5,6
 74 1070 74 1070 99 1178.5 c 128,-1,7
 124 1287 124 1287 84 1412 c 1,0,-1
EndSplineSet
EndChar

StartChar: ae
Encoding: 230 230 96
Width: 1281
Flags: W
HStem: 30 22G<464 466 947 1021.25> 1060 19G<313.753 388 869 871>
LayerCount: 2
Fore
SplineSet
869 1080 m 1,0,-1
 871 1079 l 1,1,-1
 872 1079 l 1,2,-1
 1261 800 l 1,3,-1
 856 374 l 1,4,5
 897 325 897 325 958 320 c 1,6,7
 1022 312 1022 312 1086.5 317 c 128,-1,8
 1151 322 1151 322 1216 324 c 1,9,10
 1163 250 1163 250 1111 177 c 2,11,-1
 1007 31 l 1,12,13
 887 79 887 79 767 126 c 0,14,15
 725 143 725 143 682 160 c 1,16,-1
 466 33 l 1,17,-1
 466 30 l 1,18,-1
 464 31 l 1,19,-1
 463 31 l 1,20,-1
 74 310 l 1,21,-1
 479 736 l 1,22,23
 438 785 438 785 377 790 c 1,24,25
 313 798 313 798 248.5 793 c 128,-1,26
 184 788 184 788 119 786 c 1,27,28
 172 860 172 860 224 933 c 2,29,-1
 328 1079 l 1,30,31
 448 1031 448 1031 567 983 c 0,32,33
 610 966 610 966 652 949 c 1,34,-1
 869 1077 l 1,35,-1
 869 1080 l 1,0,-1
816 457 m 1,36,-1
 977 627 l 2,37,38
 1007 660 1007 660 983 698.5 c 128,-1,39
 959 737 959 737 941 755 c 1,40,41
 813 867 813 867 792 751 c 0,42,43
 766 612 766 612 813 472 c 0,44,45
 813 469 813 469 813.5 465 c 128,-1,46
 814 461 814 461 816 457 c 1,36,-1
519 653 m 1,47,-1
 358 483 l 2,48,49
 328 450 328 450 352 411.5 c 128,-1,50
 376 373 376 373 394 355 c 1,51,52
 522 243 522 243 543 359 c 0,53,54
 569 498 569 498 522 638 c 0,55,56
 522 641 522 641 521.5 645 c 128,-1,57
 521 649 521 649 519 653 c 1,47,-1
EndSplineSet
Ligature2: "'rlig' Required Ligatures in Latin lookup 2-1" a afii301 e
EndChar

StartChar: Euro
Encoding: 8364 8364 97
Width: 1032
Flags: W
HStem: -31 121<536.247 791.036> 377 2<947 949.467> 507 114<64.7975 172 395 780.17> 741 111<63.3455 170 387 875.328> 1287 114<525.731 770.637>
VStem: 170 212<357.469 507 621 741 852 986.824> 864 101<1292 1348.13> 895 90<8.25659 79.0328 978.221 1001> 982 3<1024 1025.81>
LayerCount: 2
Fore
SplineSet
395 507 m 1,0,1
 402 417 402 417 422 340.5 c 128,-1,2
 442 264 442 264 474 209 c 128,-1,3
 506 154 506 154 553 122 c 128,-1,4
 600 90 600 90 662 90 c 0,5,6
 717 90 717 90 757 111 c 128,-1,7
 797 132 797 132 824.5 167 c 128,-1,8
 852 202 852 202 870.5 246.5 c 128,-1,9
 889 291 889 291 901 336 c 1,10,11
 911 362 911 362 919 370.5 c 128,-1,12
 927 379 927 379 937 379 c 0,13,14
 946 379 946 379 950 377 c 2,15,-1
 947 379 l 1,16,17
 987 371 987 371 993 356.5 c 128,-1,18
 999 342 999 342 999 330 c 1,19,20
 997 307 997 307 994 267 c 128,-1,21
 991 227 991 227 988 184 c 128,-1,22
 985 141 985 141 983 103.5 c 128,-1,23
 981 66 981 66 981 51 c 0,24,25
 981 16 981 16 971.5 8 c 128,-1,26
 962 0 962 0 937 0 c 0,27,28
 902 0 902 0 894.5 24.5 c 128,-1,29
 887 49 887 49 872 80 c 1,30,-1
 870 77 l 1,31,32
 860 67 860 67 839.5 49 c 128,-1,33
 819 31 819 31 790.5 13.5 c 128,-1,34
 762 -4 762 -4 724.5 -17.5 c 128,-1,35
 687 -31 687 -31 645 -31 c 0,36,37
 535 -31 535 -31 455 14 c 128,-1,38
 375 59 375 59 318.5 135 c 128,-1,39
 262 211 262 211 229.5 308.5 c 128,-1,40
 197 406 197 406 182 507 c 1,41,-1
 66 507 l 2,42,43
 31 507 31 507 31 530 c 0,44,45
 31 535 31 535 31 542 c 128,-1,46
 31 549 31 549 35 557 c 1,47,-1
 49 596 l 2,48,49
 55 612 55 612 64.5 616.5 c 128,-1,50
 74 621 74 621 86 621 c 2,51,-1
 172 621 l 1,52,53
 170 642 170 642 170 669.5 c 128,-1,54
 170 697 170 697 170 721 c 2,55,-1
 170 741 l 1,56,-1
 74 741 l 2,57,58
 37 741 37 741 37 762 c 0,59,60
 37 772 37 772 41 780 c 1,61,-1
 37 780 l 1,62,63
 52 825 52 825 63 838.5 c 128,-1,64
 74 852 74 852 92 852 c 2,65,-1
 184 852 l 1,66,67
 199 950 199 950 235.5 1048.5 c 128,-1,68
 272 1147 272 1147 329.5 1224.5 c 128,-1,69
 387 1302 387 1302 466 1351.5 c 128,-1,70
 545 1401 545 1401 645 1401 c 0,71,72
 686 1401 686 1401 720 1390.5 c 128,-1,73
 754 1380 754 1380 779.5 1363.5 c 128,-1,74
 805 1347 805 1347 826 1329 c 128,-1,75
 847 1311 847 1311 864 1292 c 1,76,77
 879 1337 879 1337 887 1348.5 c 128,-1,78
 895 1360 895 1360 924 1360 c 0,79,80
 952 1360 952 1360 958.5 1351 c 128,-1,81
 965 1342 965 1342 965 1309 c 0,82,83
 965 1294 965 1294 967 1256.5 c 128,-1,84
 969 1219 969 1219 972 1173 c 128,-1,85
 975 1127 975 1127 978 1085.5 c 128,-1,86
 981 1044 981 1044 982 1024 c 1,87,-1
 982 1026 l 1,88,89
 985 1020 985 1020 985 1010 c 0,90,91
 985 992 985 992 959.5 981.5 c 128,-1,92
 934 971 934 971 920 971 c 0,93,94
 909 971 909 971 905 978 c 128,-1,95
 901 985 901 985 895 1001 c 0,96,97
 877 1052 877 1052 858.5 1103.5 c 128,-1,98
 840 1155 840 1155 812 1196 c 128,-1,99
 784 1237 784 1237 743 1262 c 128,-1,100
 702 1287 702 1287 642 1287 c 256,101,102
 582 1287 582 1287 537 1252 c 128,-1,103
 492 1217 492 1217 461 1157 c 128,-1,104
 430 1097 430 1097 411 1017 c 128,-1,105
 392 937 392 937 387 852 c 1,106,-1
 854 852 l 2,107,108
 889 852 889 852 889 822 c 0,109,110
 889 817 889 817 887 812 c 2,111,-1
 867 766 l 1,112,113
 862 750 862 750 852 745.5 c 128,-1,114
 842 741 842 741 822 741 c 2,115,-1
 382 741 l 1,116,-1
 382 690 l 2,117,118
 382 659 382 659 384.5 650 c 128,-1,119
 387 641 387 641 387 621 c 1,120,-1
 780 621 l 2,121,122
 801 621 801 621 809 610.5 c 128,-1,123
 817 600 817 600 817 587 c 0,124,125
 817 586 817 586 816 585 c 128,-1,126
 815 584 815 584 815 580 c 1,127,-1
 797 532 l 2,128,129
 791 516 791 516 780.5 511.5 c 128,-1,130
 770 507 770 507 752 507 c 2,131,-1
 395 507 l 1,0,1
EndSplineSet
EndChar

StartChar: AE
Encoding: 198 198 98
Width: 2159
Flags: W
HStem: 31 296<1699.43 1874.5> 636 235<639 992> 844 236<1685 2094> 1092 21G<69.5 205.5> 1515 20G<546.5 736.5 1659.5 1799>
VStem: 992 291.5<875.55 1084.91> 1450 235<1085.48 1234.37>
LayerCount: 2
Fore
SplineSet
1997 1147 m 1,0,1
 1841 1255 1841 1255 1692 1276 c 1,2,3
 1684 1190 1684 1190 1680 1080 c 1,4,-1
 2094 1080 l 1,5,-1
 2094 844 l 1,6,-1
 1685 844 l 1,7,8
 1689 730 1689 730 1709 579 c 1,9,-1
 1479 495 l 1,10,11
 1569 414 1569 414 1716.5 365 c 128,-1,12
 1864 316 1864 316 2082 327 c 1,13,14
 2027 252 2027 252 1972 178.5 c 128,-1,15
 1917 105 1917 105 1864 31 c 1,16,17
 1439 77 1439 77 1210 331 c 0,18,19
 1099 454 1099 454 1042 632 c 1,20,-1
 630 636 l 1,21,22
 592 282 592 282 413.5 36 c 128,-1,23
 235 -210 235 -210 92 -349 c 1,24,25
 74 -336 74 -336 54.5 -323 c 128,-1,26
 35 -310 35 -310 16 -299 c 1,27,28
 132 -178 132 -178 189.5 -22 c 128,-1,29
 247 134 247 134 291 316 c 1,30,31
 381 709 381 709 256 960 c 1,32,33
 499 1081 499 1081 697 1226 c 1,34,35
 342 1317 342 1317 69 1092 c 1,36,37
 70 1102 70 1102 62.5 1144.5 c 128,-1,38
 55 1187 55 1187 57 1197 c 1,39,40
 181 1299 181 1299 322.5 1384.5 c 128,-1,41
 464 1470 464 1470 629 1535 c 1,42,43
 844 1471 844 1471 1027 1387 c 0,44,45
 1162 1326 1162 1326 1284 1256 c 1,46,47
 1326 1281 1326 1281 1369 1306 c 0,48,49
 1562 1421 1562 1421 1757 1535 c 1,50,51
 1841 1477 1841 1477 1946 1431 c 128,-1,52
 2051 1385 2051 1385 2167 1345 c 1,53,54
 2125 1296 2125 1296 2082 1246 c 128,-1,55
 2039 1196 2039 1196 1997 1147 c 1,0,1
639 871 m 1,56,-1
 992 871 l 1,57,58
 981 969 981 969 981 1080 c 1,59,60
 986 1082 986 1082 990 1085 c 1,61,62
 895 1151 895 1151 791 1195 c 1,63,64
 720 1142 720 1142 683 1073.5 c 128,-1,65
 646 1005 646 1005 639 871 c 1,56,-1
1401 577 m 1,66,-1
 1475 602 l 1,67,68
 1432 912 1432 912 1450 1237 c 1,69,70
 1390 1207 1390 1207 1352.5 1167 c 128,-1,71
 1315 1127 1315 1127 1304 1100 c 1,72,73
 1276 1039 1276 1039 1283.5 880.5 c 128,-1,74
 1291 722 1291 722 1401 577 c 1,66,-1
EndSplineSet
Ligature2: "'rlig' Required Ligatures in Latin lookup 2-1" A afii301 E
EndChar

StartChar: slash
Encoding: 47 47 99
Width: 1400
Flags: W
LayerCount: 2
Fore
SplineSet
2 22 m 1,0,-1
 116 524 l 1,1,2
 349 564 349 564 659 824.5 c 128,-1,3
 969 1085 969 1085 1349 1542 c 1,4,-1
 1397 1520 l 1,5,6
 1116 1067 1116 1067 765.5 696.5 c 128,-1,7
 415 326 415 326 2 22 c 1,0,-1
EndSplineSet
EndChar

StartChar: oslash
Encoding: 248 248 100
Width: 864
Flags: W
HStem: 1064 20G<421.5 494 617 753.78>
VStem: 97 249<552 800.145>
LayerCount: 2
Fore
SplineSet
467 1084 m 1,0,1
 521 1060 521 1060 577 1011 c 1,2,-1
 617 1091 l 1,3,-1
 764 1092 l 1,4,-1
 671 910 l 1,5,6
 719 850 719 850 754 782 c 1,7,8
 807 684 807 684 822 587.5 c 128,-1,9
 837 491 837 491 789 437 c 1,10,-1
 457 14 l 1,11,-1
 264 109 l 1,12,-1
 209 1 l 1,13,-1
 70 1 l 1,14,-1
 151 164 l 1,15,-1
 29 225 l 1,16,17
 54 277 54 277 75.5 337 c 128,-1,18
 97 397 97 397 97 469 c 2,19,-1
 95 702 l 1,20,21
 92 774 92 774 80 801 c 1,22,23
 177 866 177 866 276.5 937.5 c 128,-1,24
 376 1009 376 1009 467 1084 c 1,0,1
421 331 m 1,25,26
 489 301 489 301 521 309 c 0,27,28
 630 334 630 334 604 467 c 1,29,30
 580 581 580 581 542 657 c 1,31,-1
 386 351 l 1,32,33
 401 341 401 341 421 331 c 1,25,26
349 836 m 1,34,-1
 346 552 l 1,35,-1
 456 770 l 1,36,37
 409 814 409 814 349 836 c 1,34,-1
EndSplineSet
EndChar

StartChar: Oslash
Encoding: 216 216 101
Width: 1626
Flags: W
HStem: 30 202<732.428 1020.48> 1515 20G<781.5 931.5>
VStem: 648 283<989 1186.08>
LayerCount: 2
Fore
SplineSet
1294 1520 m 1,0,-1
 1541 1520 l 1,1,-1
 1330 1210 l 1,2,3
 1442 1100 1442 1100 1594 1009 c 1,4,5
 1592 769 1592 769 1508.5 585.5 c 128,-1,6
 1425 402 1425 402 1307 278.5 c 128,-1,7
 1189 155 1189 155 1060 92.5 c 128,-1,8
 931 30 931 30 840 30 c 0,9,10
 677 30 677 30 552 70 c 1,11,-1
 500 -8 l 1,12,-1
 252 -8 l 1,13,-1
 369 164 l 1,14,15
 297 220 297 220 249 300 c 1,16,17
 81 571 81 571 34 932 c 1,18,19
 195 1165 195 1165 411 1327 c 128,-1,20
 627 1489 627 1489 936 1535 c 1,21,22
 927 1406 927 1406 926 1315 c 1,23,24
 974 1362 974 1362 1022 1411.5 c 128,-1,25
 1070 1461 1070 1461 1117 1502 c 1,26,27
 1150 1435 1150 1435 1192 1372 c 1,28,-1
 1294 1520 l 1,0,-1
1035 495 m 1,29,30
 784 435 784 435 707 290 c 1,31,32
 814 226 814 226 936 232 c 1,33,34
 1094 237 1094 237 1196.5 323 c 128,-1,35
 1299 409 1299 409 1314 543 c 128,-1,36
 1329 677 1329 677 1239 846 c 0,37,38
 1209 904 1209 904 1161 962 c 1,39,-1
 972 686 l 1,40,41
 997 577 997 577 1035 495 c 1,29,30
655 667 m 1,42,43
 650 825 650 825 648 986 c 128,-1,44
 646 1147 646 1147 624 1305 c 1,45,46
 386 1167 386 1167 405 852 c 0,47,48
 421 597 421 597 551 430 c 1,49,-1
 654 582 l 1,50,51
 655 622 655 622 655 667 c 1,42,43
925 1187 m 1,52,53
 925 1082 925 1082 931 989 c 1,54,-1
 1016 1112 l 1,55,56
 974 1150 974 1150 925 1187 c 1,52,53
EndSplineSet
EndChar

StartChar: eth
Encoding: 240 240 102
Width: 842
Flags: W
HStem: 31 21G<410 493>
LayerCount: 2
Fore
SplineSet
176 1221 m 1,0,-1
 210 1234 l 1,1,2
 182 1267 182 1267 154 1301 c 1,3,-1
 419 1440 l 1,4,5
 456 1394 456 1394 491 1345 c 1,6,-1
 697 1427 l 1,7,-1
 631 1202 l 1,8,-1
 592 1186 l 1,9,10
 790 836 790 836 819 404 c 1,11,12
 694 310 694 310 607.5 230 c 128,-1,13
 521 150 521 150 465 31 c 1,14,15
 355 80 355 80 245.5 130.5 c 128,-1,16
 136 181 136 181 44 265 c 1,17,18
 40 416 40 416 38 568 c 128,-1,19
 36 720 36 720 34 872 c 1,20,21
 117 910 117 910 198.5 947.5 c 128,-1,22
 280 985 280 985 357 1025 c 1,23,24
 341 1052 341 1052 322 1080 c 1,25,-1
 110 996 l 1,26,-1
 176 1221 l 1,0,-1
562 286 m 1,27,28
 567 634 567 634 404 946 c 1,29,30
 295 894 295 894 274.5 757.5 c 128,-1,31
 254 621 254 621 287 411 c 1,32,33
 427 300 427 300 562 286 c 1,27,28
EndSplineSet
EndChar

StartChar: backslash
Encoding: 92 92 103
Width: 792
Flags: W
LayerCount: 2
Fore
SplineSet
752 1 m 1,0,-1
 614 1 l 1,1,-1
 29 1539 l 1,2,-1
 167 1539 l 1,3,-1
 752 1 l 1,0,-1
EndSplineSet
EndChar

StartChar: OE
Encoding: 338 338 104
Width: 1857
Flags: W
HStem: 30 202<738.008 975.375> 31 296<1362.28 1537.59> 844 236<1349 1757> 1515 20G<781.5 935.86 1323.5 1463>
VStem: 655 292.5<697.041 1136.81> 1114 235<1085.48 1234.37>
LayerCount: 2
Fore
SplineSet
1661 1147 m 1,0,1
 1505 1255 1505 1255 1356 1276 c 1,2,3
 1347 1190 1347 1190 1344 1080 c 1,4,-1
 1757 1080 l 1,5,-1
 1757 844 l 1,6,-1
 1349 844 l 1,7,8
 1352 730 1352 730 1372 579 c 1,9,-1
 1142 495 l 1,10,11
 1232 414 1232 414 1379.5 365 c 128,-1,12
 1527 316 1527 316 1746 327 c 1,13,14
 1691 252 1691 252 1636 178.5 c 128,-1,15
 1581 105 1581 105 1527 31 c 1,16,17
 1306 55 1306 55 1137 135 c 1,18,19
 1099 111 1099 111 1060 92 c 0,20,21
 931 30 931 30 840 30 c 0,22,23
 416 30 416 30 248.5 300.5 c 128,-1,24
 81 571 81 571 34 932 c 1,25,26
 195 1165 195 1165 411 1327 c 128,-1,27
 627 1489 627 1489 936 1535 c 1,28,-1
 934 1249 l 1,29,30
 982 1277 982 1277 1032 1306 c 0,31,32
 1226 1421 1226 1421 1421 1535 c 1,33,34
 1505 1477 1505 1477 1610 1431 c 128,-1,35
 1715 1385 1715 1385 1831 1345 c 1,36,37
 1789 1296 1789 1296 1745.5 1246 c 128,-1,38
 1702 1196 1702 1196 1661 1147 c 1,0,1
617 359 m 1,39,40
 659 475 659 475 655 667 c 1,41,42
 650 817 650 817 647 971 c 0,43,44
 645 1024 645 1024 645 1080 c 1,45,46
 639 1194 639 1194 624 1305 c 1,47,48
 386 1167 386 1167 405.5 853 c 128,-1,49
 425 539 425 539 617 359 c 1,39,40
1065 577 m 1,50,-1
 1139 602 l 1,51,52
 1096 912 1096 912 1114 1237 c 1,53,54
 1054 1207 1054 1207 1016.5 1167 c 128,-1,55
 979 1127 979 1127 967 1100 c 0,56,57
 940 1039 940 1039 947.5 880.5 c 128,-1,58
 955 722 955 722 1065 577 c 1,50,-1
707 290 m 1,59,60
 814 226 814 226 936 232 c 0,61,62
 956 232 956 232 976 235 c 1,63,64
 921 279 921 279 874 331 c 0,65,66
 842 366 842 366 815 405 c 1,67,68
 742 356 742 356 707 290 c 1,59,60
EndSplineSet
Ligature2: "'rlig' Required Ligatures in Latin lookup 2-1" O afii301 E
EndChar

StartChar: oe
Encoding: 339 339 105
Width: 1361
Flags: W
HStem: 31 21G<1006 1092.5> 1060 20G<421.5 505.5 929 930>
VStem: 97 249<350.269 800.145>
LayerCount: 2
Fore
SplineSet
929 1080 m 1,0,-1
 930 1079 l 1,1,-1
 931 1079 l 1,2,-1
 1320 800 l 1,3,-1
 915 374 l 1,4,5
 956 325 956 325 1017 320 c 1,6,7
 1081 312 1081 312 1145.5 317 c 128,-1,8
 1210 322 1210 322 1275 324 c 1,9,10
 1222 250 1222 250 1170.5 177 c 128,-1,11
 1119 104 1119 104 1066 31 c 1,12,13
 946 79 946 79 826 126 c 1,14,15
 720 169 720 169 612 212 c 1,16,-1
 457 14 l 1,17,-1
 29 225 l 1,18,19
 54 277 54 277 75.5 337 c 128,-1,20
 97 397 97 397 97 469 c 2,21,-1
 95 702 l 1,22,23
 92 774 92 774 80 801 c 1,24,25
 177 866 177 866 276.5 937.5 c 128,-1,26
 376 1009 376 1009 467 1084 c 1,27,28
 544 1051 544 1051 622 966 c 1,29,30
 644 944 644 944 662 920 c 1,31,-1
 929 1077 l 1,32,-1
 929 1080 l 1,0,-1
349 836 m 1,33,-1
 346 411 l 1,34,35
 355 362 355 362 422 331.5 c 128,-1,36
 489 301 489 301 521 309 c 0,37,38
 630 334 630 334 604 467 c 1,39,40
 570 632 570 632 505.5 716.5 c 128,-1,41
 441 801 441 801 349 836 c 1,33,-1
875 457 m 1,42,-1
 1036 627 l 2,43,44
 1066 660 1066 660 1042.5 698.5 c 128,-1,45
 1019 737 1019 737 1000 755 c 1,46,47
 872 867 872 867 851 751 c 0,48,49
 825 612 825 612 872 472 c 0,50,51
 872 469 872 469 873 465 c 128,-1,52
 874 461 874 461 875 457 c 1,42,-1
EndSplineSet
Ligature2: "'rlig' Required Ligatures in Latin lookup 2-1" o afii301 e
EndChar

StartChar: bar
Encoding: 124 124 106
Width: 236
Flags: W
HStem: 1514 20G<49 171>
VStem: 49 122<0 1534>
LayerCount: 2
Fore
SplineSet
171 0 m 1,0,-1
 49 0 l 1,1,-1
 49 1534 l 1,2,-1
 171 1534 l 1,3,-1
 171 0 l 1,0,-1
EndSplineSet
EndChar

StartChar: quotesinglbase
Encoding: 8218 8218 107
Width: 344
Flags: W
HStem: -273 609
VStem: 16 314
LayerCount: 2
Fore
SplineSet
84 179 m 1,0,-1
 330 336 l 1,1,2
 312 151 312 151 239.5 2.5 c 128,-1,3
 167 -146 167 -146 67 -273 c 1,4,-1
 16 -264 l 1,5,6
 74 -164 74 -164 99 -55 c 128,-1,7
 124 54 124 54 84 179 c 1,0,-1
EndSplineSet
EndChar

StartChar: quotedblbase
Encoding: 8222 8222 108
Width: 615
Flags: W
HStem: -346 653
VStem: 17 547
LayerCount: 2
Fore
SplineSet
319 105 m 1,0,-1
 564 264 l 1,1,2
 546 77 546 77 475 -71.5 c 128,-1,3
 404 -220 404 -220 304 -346 c 1,4,-1
 250 -338 l 1,5,6
 309 -238 309 -238 333 -129 c 128,-1,7
 357 -20 357 -20 319 105 c 1,0,-1
84 150 m 1,8,-1
 330 307 l 1,9,10
 312 122 312 122 239.5 -26.5 c 128,-1,11
 167 -175 167 -175 69 -303 c 1,12,-1
 17 -293 l 1,13,14
 74 -193 74 -193 99 -84 c 128,-1,15
 124 25 124 25 84 150 c 1,8,-1
EndSplineSet
EndChar

StartChar: asterisk
Encoding: 42 42 109
Width: 1099
Flags: W
HStem: 31 21G<540.5 556.595>
LayerCount: 2
Fore
SplineSet
9 614 m 1,0,-1
 269 897 l 1,1,-1
 504 680 l 1,2,-1
 247 424 l 1,3,4
 149 507 149 507 9 614 c 1,0,-1
309 940 m 1,5,-1
 614 1272 l 1,6,7
 627 1195 627 1195 678.5 1120 c 128,-1,8
 730 1045 730 1045 797 971 c 1,9,-1
 546 721 l 1,10,-1
 309 940 l 1,5,-1
839 929 m 1,11,12
 902 860 902 860 968.5 792 c 128,-1,13
 1035 724 1035 724 1087 656 c 1,14,-1
 877 416 l 1,15,-1
 589 681 l 1,16,-1
 839 929 l 1,11,12
839 372 m 1,17,-1
 539 31 l 1,18,19
 542 105 542 105 473 195 c 128,-1,20
 404 285 404 285 291 385 c 1,21,-1
 547 640 l 1,22,-1
 839 372 l 1,17,-1
EndSplineSet
EndChar

StartChar: parenleft
Encoding: 40 40 110
Width: 562
Flags: W
VStem: 39 249<188.586 1064.79>
LayerCount: 2
Fore
SplineSet
20 1296 m 1,0,-1
 510 1619 l 1,1,-1
 550 1562 l 1,2,3
 422 1466 422 1466 358 1187.5 c 128,-1,4
 294 909 294 909 288 612.5 c 128,-1,5
 282 316 282 316 334 84 c 128,-1,6
 386 -148 386 -148 495 -151 c 1,7,8
 415 -391 415 -391 285 -290.5 c 128,-1,9
 155 -190 155 -190 85 179 c 1,10,11
 47 372 47 372 39 654.5 c 128,-1,12
 31 937 31 937 20 1296 c 1,0,-1
EndSplineSet
EndChar

StartChar: parenright
Encoding: 41 41 111
Width: 610
Flags: W
VStem: 339 251<448.834 1120.31>
LayerCount: 2
Fore
SplineSet
16 1367 m 1,0,-1
 250 1637 l 1,1,2
 479 1581 479 1581 535 1343 c 128,-1,3
 591 1105 591 1105 590 869 c 0,4,5
 589 609 589 609 510.5 278 c 128,-1,6
 432 -53 432 -53 151 -386 c 1,7,-1
 77 -320 l 1,8,9
 294 -38 294 -38 325 224 c 128,-1,10
 356 486 356 486 339 715 c 1,11,12
 324 897 324 897 296.5 1110.5 c 128,-1,13
 269 1324 269 1324 16 1367 c 1,0,-1
EndSplineSet
EndChar

StartChar: afii61352
Encoding: 8470 8470 112
Width: 1679
Flags: W
HStem: 7 68<962 1605> 7 52<172.022 313.148> 147 68<962 1605> 268 44<1250.84 1324.88> 1089 44<1250.84 1324.88> 1425 52<113 293.187 945.749 1086.93>
VStem: 46 189<138 330.941> 379 48<129.969 1087> 833 47<718 1352.42> 962 248<478.132 922.617> 1025 189<1153.16 1347.88> 1372 233<480.077 922.617>
LayerCount: 2
Fore
SplineSet
1284 1133 m 0,0,1
 1416 1133 1416 1133 1510.5 1006.5 c 128,-1,2
 1605 880 1605 880 1605 701 c 0,3,4
 1605 521 1605 521 1510.5 394.5 c 128,-1,5
 1416 268 1416 268 1284 268 c 0,6,7
 1150 268 1150 268 1056 394.5 c 128,-1,8
 962 521 962 521 962 701 c 0,9,10
 962 880 962 880 1056 1006.5 c 128,-1,11
 1150 1133 1150 1133 1284 1133 c 0,0,1
880 7 m 1,12,-1
 875 7 l 1,13,-1
 833 7 l 1,14,-1
 427 1087 l 1,15,-1
 427 218 l 2,16,17
 427 130 427 130 370.5 68.5 c 128,-1,18
 314 7 314 7 236 7 c 0,19,20
 144 7 144 7 95 77.5 c 128,-1,21
 46 148 46 148 46 238 c 0,22,23
 46 341 46 341 140 341 c 0,24,25
 235 341 235 341 235 238 c 0,26,27
 235 199 235 199 212 170 c 0,28,29
 186 137 186 137 171.5 98 c 128,-1,30
 157 59 157 59 236 59 c 0,31,32
 295 59 295 59 337 105.5 c 128,-1,33
 379 152 379 152 379 218 c 2,34,-1
 379 1212 l 1,35,36
 319 1372 319 1372 294 1398.5 c 128,-1,37
 269 1425 269 1425 113 1425 c 1,38,-1
 113 1477 l 1,39,-1
 492 1477 l 2,40,41
 570 1477 570 1477 593 1412 c 2,42,-1
 833 718 l 1,43,-1
 833 1266 l 2,44,45
 833 1353 833 1353 888.5 1415 c 128,-1,46
 944 1477 944 1477 1024 1477 c 0,47,48
 1115 1477 1115 1477 1164.5 1406 c 128,-1,49
 1214 1335 1214 1335 1214 1247 c 0,50,51
 1214 1143 1214 1143 1119 1143 c 0,52,53
 1025 1143 1025 1143 1025 1247 c 0,54,55
 1025 1284 1025 1284 1048 1314 c 0,56,57
 1072 1346 1072 1346 1087 1385.5 c 128,-1,58
 1102 1425 1102 1425 1024 1425 c 0,59,60
 964 1425 964 1425 922 1378.5 c 128,-1,61
 880 1332 880 1332 880 1266 c 2,62,-1
 880 7 l 1,12,-1
962 147 m 1,63,-1
 962 215 l 1,64,-1
 1605 215 l 1,65,-1
 1605 147 l 1,66,-1
 962 147 l 1,63,-1
962 7 m 1,67,-1
 962 75 l 1,68,-1
 1605 75 l 1,69,-1
 1605 7 l 1,70,-1
 962 7 l 1,67,-1
1288 1089 m 0,71,72
 1237 1089 1237 1089 1223.5 975 c 128,-1,73
 1210 861 1210 861 1210 701 c 0,74,75
 1210 539 1210 539 1223.5 425.5 c 128,-1,76
 1237 312 1237 312 1288 312 c 0,77,78
 1338 312 1338 312 1355 425.5 c 128,-1,79
 1372 539 1372 539 1372 701 c 0,80,81
 1372 861 1372 861 1355 975 c 128,-1,82
 1338 1089 1338 1089 1288 1089 c 0,71,72
EndSplineSet
EndChar

StartChar: percent
Encoding: 37 37 113
Width: 1581
Flags: W
LayerCount: 2
Fore
SplineSet
309 1333 m 0,0,1
 370 1389 370 1389 446 1324 c 1,2,3
 708 1093 708 1093 696.5 872.5 c 128,-1,4
 685 652 685 652 441 430 c 1,5,6
 356 355 356 355 283 430 c 0,7,8
 -170 895 -170 895 309 1333 c 0,0,1
223 1129 m 0,9,10
 121 1062 121 1062 254 821 c 0,11,12
 382 587 382 587 484 654 c 0,13,14
 587 721 587 721 457 962 c 1,15,16
 327 1198 327 1198 223 1129 c 0,9,10
1093 1415 m 2,17,18
 1095 1420 1095 1420 1101 1422.5 c 128,-1,19
 1107 1425 1107 1425 1110 1425 c 2,20,-1
 1181 1425 l 2,21,22
 1194 1425 1194 1425 1200 1415.5 c 128,-1,23
 1206 1406 1206 1406 1200 1397 c 1,24,-1
 454 -59 l 2,25,26
 452 -64 452 -64 446.5 -67 c 128,-1,27
 441 -70 441 -70 438 -70 c 2,28,-1
 362 -70 l 2,29,30
 350 -70 350 -70 344.5 -60 c 128,-1,31
 339 -50 339 -50 344 -39 c 2,32,-1
 1093 1415 l 2,17,18
1118 942 m 0,33,34
 1179 998 1179 998 1255 933 c 1,35,36
 1517 702 1517 702 1505.5 481.5 c 128,-1,37
 1494 261 1494 261 1250 39 c 1,38,39
 1165 -36 1165 -36 1092 39 c 0,40,41
 639 504 639 504 1118 942 c 0,33,34
1032 738 m 0,42,43
 930 671 930 671 1063 430 c 0,44,45
 1191 196 1191 196 1293 263 c 0,46,47
 1396 330 1396 330 1266 571 c 1,48,49
 1136 807 1136 807 1032 738 c 0,42,43
EndSplineSet
EndChar

StartChar: uniA75B
Encoding: 42843 42843 114
Width: 727
Flags: W
HStem: 1072 20G<365.5 526>
VStem: 70 602
LayerCount: 2
Fore
SplineSet
509 425 m 1,0,1
 476 374 476 374 508 353 c 1,2,3
 521 335 521 335 672 259 c 1,4,5
 616 197 616 197 561 136 c 128,-1,6
 506 75 506 75 450 15 c 1,7,8
 376 71 376 71 302 127.5 c 128,-1,9
 228 184 228 184 156 240 c 1,10,11
 223 299 223 299 310 390 c 1,12,13
 463 537 463 537 435.5 630 c 128,-1,14
 408 723 408 723 358 758 c 1,15,16
 301 807 301 807 248.5 787 c 128,-1,17
 196 767 196 767 156 700 c 1,18,19
 135 715 135 715 113.5 729.5 c 128,-1,20
 92 744 92 744 70 759 c 1,21,22
 155 842 155 842 239 926 c 128,-1,23
 323 1010 323 1010 408 1092 c 1,24,25
 644 967 644 967 648 726 c 1,26,27
 646 591 646 591 540 466 c 1,28,29
 523 441 523 441 509 425 c 1,0,1
EndSplineSet
EndChar

StartChar: bracketleft
Encoding: 91 91 115
Width: 477
Flags: W
HStem: -78 88<351 505.327> 1440 84<351 515>
VStem: 108 243<10 1436>
LayerCount: 2
Fore
SplineSet
108 1505 m 2,0,1
 108 1524 108 1524 128 1524 c 2,2,-1
 495 1524 l 2,3,4
 515 1524 515 1524 515 1505 c 2,5,-1
 515 1460 l 2,6,7
 515 1440 515 1440 495 1440 c 2,8,-1
 351 1436 l 1,9,-1
 351 10 l 1,10,-1
 491 10 l 2,11,12
 511 10 511 10 511 -10 c 2,13,-1
 511 -59 l 2,14,15
 511 -67 511 -67 505.5 -72.5 c 128,-1,16
 500 -78 500 -78 491 -78 c 2,17,-1
 128 -78 l 2,18,19
 119 -78 119 -78 113.5 -72.5 c 128,-1,20
 108 -67 108 -67 108 -59 c 2,21,-1
 108 1505 l 2,0,1
EndSplineSet
EndChar

StartChar: bracketright
Encoding: 93 93 116
Width: 500
Flags: W
HStem: -77 88<-2.32727 163> 1435 90<-8 163>
VStem: -8 403<-71.3275 10.9951 1435 1519.33>
LayerCount: 2
Fore
SplineSet
-8 1506 m 2,0,1
 -8 1525 -8 1525 12 1525 c 2,2,-1
 377 1525 l 2,3,4
 385 1525 385 1525 390 1519.5 c 128,-1,5
 395 1514 395 1514 395 1506 c 2,6,-1
 395 -58 l 2,7,8
 395 -66 395 -66 390 -71.5 c 128,-1,9
 385 -77 385 -77 377 -77 c 2,10,-1
 12 -77 l 2,11,12
 3 -77 3 -77 -2.5 -71.5 c 128,-1,13
 -8 -66 -8 -66 -8 -58 c 2,14,-1
 -8 -9 l 2,15,16
 -8 11 -8 11 12 11 c 2,17,-1
 163 11 l 1,18,-1
 163 1435 l 1,19,-1
 12 1435 l 2,20,21
 -8 1435 -8 1435 -8 1455 c 2,22,-1
 -8 1506 l 2,0,1
EndSplineSet
EndChar

StartChar: asciicircum
Encoding: 94 94 117
Width: 598
Flags: W
HStem: 1165 362
VStem: 42 499
LayerCount: 2
Fore
SplineSet
226 1519 m 2,0,1
 228 1522 228 1522 232.5 1524.5 c 128,-1,2
 237 1527 237 1527 242 1527 c 2,3,-1
 343 1527 l 2,4,5
 348 1527 348 1527 353.5 1524.5 c 128,-1,6
 359 1522 359 1522 361 1519 c 2,7,-1
 541 1193 l 2,8,9
 547 1182 547 1182 542 1173.5 c 128,-1,10
 537 1165 537 1165 525 1165 c 2,11,-1
 480 1165 l 2,12,13
 477 1165 477 1165 472.5 1166 c 128,-1,14
 468 1167 468 1167 466 1169 c 2,15,-1
 291 1347 l 1,16,17
 246 1300 246 1300 205 1257.5 c 128,-1,18
 164 1215 164 1215 117 1169 c 0,19,20
 115 1167 115 1167 110.5 1166 c 128,-1,21
 106 1165 106 1165 103 1165 c 2,22,-1
 60 1165 l 2,23,24
 48 1165 48 1165 41.5 1173.5 c 128,-1,25
 35 1182 35 1182 42 1193 c 2,26,-1
 226 1519 l 2,0,1
EndSplineSet
EndChar

StartChar: underscore
Encoding: 95 95 118
Width: 1210
Flags: W
HStem: -399 129<-12 1222.99>
LayerCount: 2
Fore
SplineSet
-12 -289 m 2,0,1
 -12 -270 -12 -270 8 -270 c 2,2,-1
 1206 -270 l 2,3,4
 1227 -270 1227 -270 1227 -289 c 2,5,-1
 1223 -379 l 2,6,7
 1223 -399 1223 -399 1202 -399 c 2,8,-1
 8 -399 l 2,9,10
 -12 -399 -12 -399 -12 -379 c 2,11,-1
 -12 -289 l 2,0,1
EndSplineSet
EndChar

StartChar: braceleft
Encoding: 123 123 119
Width: 555
Flags: W
HStem: -77 73<440.188 563> 1465 63<426.719 570.906>
VStem: 172 198<19.8097 655.359>
LayerCount: 2
Fore
SplineSet
571 1485 m 2,0,1
 571 1477 571 1477 565 1471 c 128,-1,2
 559 1465 559 1465 551 1465 c 0,3,4
 533 1464 533 1464 512.5 1460 c 128,-1,5
 492 1456 492 1456 471.5 1450 c 128,-1,6
 451 1444 451 1444 432.5 1436.5 c 128,-1,7
 414 1429 414 1429 399 1422 c 1,8,9
 390 1411 390 1411 381.5 1398 c 128,-1,10
 373 1385 373 1385 368 1373 c 1,11,-1
 368 902 l 1,12,13
 363 873 363 873 351 844.5 c 128,-1,14
 339 816 339 816 323 793 c 1,15,16
 309 771 309 771 294 754 c 128,-1,17
 279 737 279 737 264 723 c 1,18,19
 285 705 285 705 304 685.5 c 128,-1,20
 323 666 323 666 342 641 c 1,21,22
 357 617 357 617 363.5 589 c 128,-1,23
 370 561 370 561 370 529 c 2,24,-1
 370 95 l 1,25,26
 375 79 375 79 382.5 62.5 c 128,-1,27
 390 46 390 46 401 35 c 1,28,29
 409 24 409 24 418.5 17 c 128,-1,30
 428 10 428 10 440 2 c 1,31,32
 446 0 446 0 455 -1 c 128,-1,33
 464 -2 464 -2 469 -2 c 1,34,35
 473 -4 473 -4 483 -4 c 2,36,-1
 512 -4 l 2,37,38
 514 -4 514 -4 516.5 -3 c 128,-1,39
 519 -2 519 -2 522 -2 c 1,40,41
 527 0 527 0 533 0 c 128,-1,42
 539 0 539 0 542 0 c 0,43,44
 563 0 563 0 563 -20 c 2,45,-1
 563 -49 l 2,46,47
 563 -69 563 -69 542 -69 c 0,48,49
 539 -69 539 -69 537 -70 c 128,-1,50
 535 -71 535 -71 530 -71 c 1,51,52
 524 -73 524 -73 516.5 -74 c 128,-1,53
 509 -75 509 -75 501 -75 c 0,54,55
 496 -75 496 -75 487.5 -76 c 128,-1,56
 479 -77 479 -77 473 -77 c 2,57,-1
 452 -77 l 2,58,59
 415 -77 415 -77 375 -70 c 128,-1,60
 335 -63 335 -63 288 -45 c 1,61,62
 270 -35 270 -35 250.5 -22 c 128,-1,63
 231 -9 231 -9 211 13 c 1,64,65
 195 27 195 27 186 45.5 c 128,-1,66
 177 64 177 64 172 84 c 1,67,-1
 170 516 l 2,68,69
 170 532 170 532 165.5 556 c 128,-1,70
 161 580 161 580 153 609 c 0,71,72
 148 626 148 626 141 637.5 c 128,-1,73
 134 649 134 649 125 658 c 0,74,75
 108 676 108 676 83 688 c 128,-1,76
 58 700 58 700 30 709 c 0,77,78
 22 711 22 711 19 717 c 128,-1,79
 16 723 16 723 17 729.5 c 128,-1,80
 18 736 18 736 22 741 c 128,-1,81
 26 746 26 746 34 748 c 0,82,83
 60 753 60 753 86 764.5 c 128,-1,84
 112 776 112 776 125 789 c 1,85,86
 140 809 140 809 148.5 836 c 128,-1,87
 157 863 157 863 157 895 c 2,88,-1
 157 1383 l 1,89,90
 160 1400 160 1400 171.5 1417 c 128,-1,91
 183 1434 183 1434 198 1452 c 1,92,93
 218 1474 218 1474 240.5 1489 c 128,-1,94
 263 1504 263 1504 286 1510 c 1,95,96
 340 1519 340 1519 397.5 1523.5 c 128,-1,97
 455 1528 455 1528 520 1528 c 2,98,-1
 551 1528 l 2,99,100
 571 1528 571 1528 571 1508 c 2,101,-1
 571 1485 l 2,0,1
EndSplineSet
EndChar

StartChar: braceright
Encoding: 125 125 120
Width: 596
Flags: W
HStem: -72 69<28.735 117> 1 3.5<113.188 117> 1460 71<11 143.811>
VStem: 212 204<77 640.777 823.53 1410.72>
LayerCount: 2
Fore
SplineSet
11 1511 m 2,0,1
 11 1531 11 1531 31 1531 c 2,2,-1
 68 1531 l 2,3,4
 81 1531 81 1531 92 1532 c 128,-1,5
 103 1533 103 1533 109 1533 c 0,6,7
 146 1533 146 1533 184.5 1530 c 128,-1,8
 223 1527 223 1527 257 1519 c 0,9,10
 300 1510 300 1510 345 1488 c 1,11,12
 363 1476 363 1476 376.5 1462 c 128,-1,13
 390 1448 390 1448 396 1431 c 1,14,15
 408 1403 408 1403 412 1375 c 128,-1,16
 416 1347 416 1347 416 1318 c 2,17,-1
 416 929 l 1,18,19
 418 915 418 915 420.5 900.5 c 128,-1,20
 423 886 423 886 425 874 c 0,21,22
 427 866 427 866 429 853 c 128,-1,23
 431 840 431 840 437 823 c 1,24,-1
 435 825 l 1,25,26
 441 806 441 806 453 794 c 1,27,28
 472 783 472 783 501.5 770 c 128,-1,29
 531 757 531 757 556 749 c 0,30,31
 563 747 563 747 566 741 c 128,-1,32
 569 735 569 735 568.5 728 c 128,-1,33
 568 721 568 721 563.5 716 c 128,-1,34
 559 711 559 711 552 710 c 0,35,36
 513 707 513 707 478 685 c 0,37,38
 469 679 469 679 458.5 667.5 c 128,-1,39
 448 656 448 656 439 640 c 1,40,-1
 441 642 l 1,41,42
 420 603 420 603 414 546 c 1,43,44
 415 522 415 522 415.5 494 c 128,-1,45
 416 466 416 466 416 436.5 c 128,-1,46
 416 407 416 407 416 377.5 c 128,-1,47
 416 348 416 348 416 323 c 0,48,49
 416 267 416 267 416 213 c 128,-1,50
 416 159 416 159 414 102 c 1,51,-1
 414 89 l 2,52,53
 414 84 414 84 413 80 c 128,-1,54
 412 76 412 76 412 73 c 0,55,56
 410 64 410 64 405 50.5 c 128,-1,57
 400 37 400 37 392 22 c 1,58,59
 390 22 390 22 389 20 c 128,-1,60
 388 18 388 18 388 16 c 1,61,-1
 390 18 l 1,62,63
 380 -1 380 -1 366.5 -15 c 128,-1,64
 353 -29 353 -29 330 -40 c 1,65,-1
 332 -40 l 1,66,67
 306 -55 306 -55 278.5 -61.5 c 128,-1,68
 251 -68 251 -68 220 -68 c 0,69,70
 217 -68 217 -68 214.5 -69 c 128,-1,71
 212 -70 212 -70 210 -70 c 0,72,73
 200 -72 200 -72 190 -72 c 128,-1,74
 180 -72 180 -72 175 -72 c 2,75,-1
 128 -72 l 2,76,77
 115 -72 115 -72 96 -72 c 128,-1,78
 77 -72 77 -72 58 -70 c 0,79,80
 55 -70 55 -70 51 -69 c 128,-1,81
 47 -68 47 -68 42 -68 c 0,82,83
 21 -68 21 -68 21 -48 c 2,84,-1
 21 -19 l 2,85,86
 21 -10 21 -10 28.5 -3.5 c 128,-1,87
 36 3 36 3 46 1 c 0,88,89
 55 -1 55 -1 62.5 -2 c 128,-1,90
 70 -3 70 -3 76 -3 c 2,91,-1
 95 -3 l 2,92,93
 100 -3 100 -3 104.5 -2 c 128,-1,94
 109 -1 109 -1 111 -1 c 256,95,96
 113 -1 113 -1 114 0 c 128,-1,97
 115 1 115 1 117 1 c 2,98,-1
 113 1 l 1,99,100
 119 3 119 3 129 4.5 c 128,-1,101
 139 6 139 6 148 10 c 1,102,103
 161 13 161 13 173 26 c 0,104,105
 185 40 185 40 193.5 54.5 c 128,-1,106
 202 69 202 69 207 81 c 2,107,-1
 205 77 l 1,108,-1
 205 558 l 1,109,110
 207 578 207 578 213 594.5 c 128,-1,111
 219 611 219 611 228 628 c 1,112,113
 251 659 251 659 284.5 684.5 c 128,-1,114
 318 710 318 710 363 728 c 1,115,116
 352 733 352 733 340 739 c 128,-1,117
 328 745 328 745 316 753 c 1,118,-1
 316 751 l 1,119,120
 294 763 294 763 274.5 783 c 128,-1,121
 255 803 255 803 236 829 c 0,122,123
 234 832 234 832 233 836 c 128,-1,124
 232 840 232 840 230 843 c 2,125,-1
 218 872 l 2,126,127
 215 878 215 878 214.5 882.5 c 128,-1,128
 214 887 214 887 214 892 c 0,129,130
 214 895 214 895 213 897 c 128,-1,131
 212 899 212 899 212 903 c 2,132,-1
 212 1326 l 2,133,134
 212 1371 212 1371 187 1412 c 1,135,-1
 189 1410 l 1,136,137
 181 1420 181 1420 169 1429 c 128,-1,138
 157 1438 157 1438 140 1449 c 1,139,-1
 144 1449 l 1,140,141
 138 1451 138 1451 126 1453.5 c 128,-1,142
 114 1456 114 1456 97 1458 c 1,143,144
 83 1458 83 1458 70 1459 c 128,-1,145
 57 1460 57 1460 48 1460 c 2,146,-1
 31 1460 l 2,147,148
 11 1460 11 1460 11 1480 c 2,149,-1
 11 1511 l 2,0,1
EndSplineSet
EndChar

StartChar: asciitilde
Encoding: 126 126 121
Width: 635
Flags: W
HStem: 993 1<233 235.938>
VStem: 48 581
LayerCount: 2
Fore
SplineSet
236 993 m 1,0,-1
 238 995 l 1,1,-1
 484 892 l 1,2,-1
 490 892 l 2,3,4
 496 892 496 892 504.5 894 c 128,-1,5
 513 896 513 896 519 898 c 1,6,7
 527 906 527 906 535.5 920.5 c 128,-1,8
 544 935 544 935 554 952 c 0,9,10
 557 958 557 958 564.5 960 c 128,-1,11
 572 962 572 962 578 960 c 2,12,-1
 617 947 l 2,13,14
 626 944 626 944 630 936 c 128,-1,15
 634 928 634 928 629 919 c 0,16,17
 606 882 606 882 576 843.5 c 128,-1,18
 546 805 546 805 509 763 c 1,19,20
 498 746 498 746 485 737 c 128,-1,21
 472 728 472 728 453 728 c 2,22,-1
 437 728 l 2,23,24
 432 728 432 728 423.5 731 c 128,-1,25
 415 734 415 734 406 739 c 0,26,27
 395 744 395 744 381 748.5 c 128,-1,28
 367 753 367 753 347 761 c 0,29,30
 344 763 344 763 340.5 764 c 128,-1,31
 337 765 337 765 332 767 c 0,32,33
 292 783 292 783 254.5 800.5 c 128,-1,34
 217 818 217 818 185 835 c 1,35,-1
 177 835 l 2,36,37
 174 835 174 835 173.5 834 c 128,-1,38
 173 833 173 833 171 833 c 1,39,40
 158 817 158 817 143 801 c 128,-1,41
 128 785 128 785 117 769 c 0,42,43
 115 766 115 766 109.5 763.5 c 128,-1,44
 104 761 104 761 101 761 c 2,45,-1
 93 761 l 2,46,47
 61 761 61 761 48 782 c 0,48,49
 45 785 45 785 44.5 791 c 128,-1,50
 44 797 44 797 46 800 c 0,51,52
 61 834 61 834 87.5 873 c 128,-1,53
 114 912 114 912 156 962 c 1,54,55
 166 971 166 971 169 973 c 128,-1,56
 172 975 172 975 177 980 c 1,57,58
 185 984 185 984 189 988 c 1,59,60
 198 992 198 992 207.5 994.5 c 128,-1,61
 217 997 217 997 226 997 c 1,62,63
 226 996 226 996 227 996 c 0,64,65
 228 995 228 995 232 995 c 2,66,-1
 230 995 l 1,67,-1
 212 974 l 1,68,-1
 236 993 l 1,0,-1
236 993 m 1,69,70
 232 993 232 993 232 995 c 1,71,72
 232 994 232 994 233 994 c 0,73,74
 234 993 234 993 236 993 c 1,69,70
183 837 m 1,75,76
 183 835 183 835 184 835 c 2,77,-1
 185 835 l 1,78,-1
 184 835 l 2,79,80
 183 835 183 835 183 837 c 1,75,76
EndSplineSet
EndChar

StartChar: ellipsis
Encoding: 8230 8230 122
Width: 1362
Flags: W
HStem: 31 419
LayerCount: 2
Fore
SplineSet
17 241 m 1,0,-1
 227 450 l 1,1,-1
 436 241 l 1,2,-1
 227 31 l 1,3,-1
 17 241 l 1,0,-1
471 241 m 1,4,-1
 681 450 l 1,5,-1
 890 241 l 1,6,-1
 681 31 l 1,7,-1
 471 241 l 1,4,-1
925 241 m 1,8,-1
 1135 450 l 1,9,-1
 1344 241 l 1,10,-1
 1135 31 l 1,11,-1
 925 241 l 1,8,-1
EndSplineSet
EndChar

StartChar: degree
Encoding: 176 176 123
Width: 683
Flags: W
LayerCount: 2
Fore
SplineSet
274 1512 m 0,0,1
 335 1568 335 1568 411 1503 c 1,2,3
 673 1272 673 1272 661.5 1051.5 c 128,-1,4
 650 831 650 831 406 609 c 1,5,6
 321 534 321 534 248 609 c 0,7,8
 -205 1074 -205 1074 274 1512 c 0,0,1
188 1308 m 0,9,10
 86 1241 86 1241 219 1000 c 0,11,12
 347 766 347 766 449 833 c 0,13,14
 552 900 552 900 422 1141 c 1,15,16
 292 1377 292 1377 188 1308 c 0,9,10
EndSplineSet
EndChar

StartChar: guillemotleft
Encoding: 171 171 124
Width: 1235
Flags: W
LayerCount: 2
Fore
SplineSet
39 575 m 1,0,-1
 502 1063 l 1,1,-1
 668 958 l 1,2,-1
 367 580 l 1,3,-1
 668 193 l 1,4,-1
 502 88 l 1,5,-1
 39 575 l 1,0,-1
530 575 m 1,6,-1
 993 1063 l 1,7,-1
 1159 958 l 1,8,-1
 858 580 l 1,9,-1
 1159 193 l 1,10,-1
 993 88 l 1,11,-1
 530 575 l 1,6,-1
EndSplineSet
EndChar

StartChar: guillemotright
Encoding: 187 187 125
Width: 1235
Flags: W
LayerCount: 2
Fore
SplineSet
733 88 m 1,0,-1
 567 193 l 1,1,-1
 868 580 l 1,2,-1
 567 958 l 1,3,-1
 733 1063 l 1,4,-1
 1196 575 l 1,5,-1
 733 88 l 1,0,-1
242 88 m 1,6,-1
 76 193 l 1,7,-1
 377 580 l 1,8,-1
 76 958 l 1,9,-1
 242 1063 l 1,10,-1
 705 575 l 1,11,-1
 242 88 l 1,6,-1
EndSplineSet
EndChar

StartChar: guilsinglright
Encoding: 8250 8250 126
Width: 743
Flags: W
VStem: 76 669
LayerCount: 2
Fore
SplineSet
242 88 m 1,0,-1
 76 193 l 1,1,-1
 377 580 l 1,2,-1
 76 958 l 1,3,-1
 242 1063 l 1,4,-1
 745 575 l 1,5,-1
 242 88 l 1,0,-1
EndSplineSet
EndChar

StartChar: guilsinglleft
Encoding: 8249 8249 127
Width: 743
Flags: W
VStem: 8 670
LayerCount: 2
Fore
SplineSet
8 575 m 1,0,-1
 512 1063 l 1,1,-1
 678 958 l 1,2,-1
 377 580 l 1,3,-1
 678 193 l 1,4,-1
 512 88 l 1,5,-1
 8 575 l 1,0,-1
EndSplineSet
EndChar

StartChar: less
Encoding: 60 60 128
Width: 813
Flags: W
LayerCount: 2
Fore
SplineSet
45 575 m 1,0,-1
 631 1124 l 1,1,-1
 776 979 l 1,2,-1
 340 588 l 1,3,-1
 784 180 l 1,4,-1
 631 27 l 1,5,-1
 45 575 l 1,0,-1
EndSplineSet
EndChar

StartChar: equal
Encoding: 61 61 129
Width: 781
Flags: W
HStem: 307.5 237.5<167.687 389> 646 233<269.717 602>
LayerCount: 2
Fore
SplineSet
266 944 m 1,0,1
 272 876 272 876 334 879 c 1,2,-1
 637 887 l 2,3,4
 705 889 705 889 774 947 c 1,5,6
 730 872 730 872 687.5 798 c 128,-1,7
 645 724 645 724 602 650 c 1,8,9
 437 652 437 652 294 646 c 128,-1,10
 151 640 151 640 121 584 c 1,11,12
 157 674 157 674 193 764 c 128,-1,13
 229 854 229 854 266 944 c 1,0,1
164 609 m 1,14,15
 170 545 170 545 231 545 c 2,16,-1
 424 545 l 2,17,18
 489 545 489 545 560 605 c 1,19,20
 470 449 470 449 389 307 c 1,21,22
 224 310 224 310 137 307.5 c 128,-1,23
 50 305 50 305 20 249 c 1,24,25
 56 339 56 339 91.5 429 c 128,-1,26
 127 519 127 519 164 609 c 1,14,15
EndSplineSet
EndChar

StartChar: greater
Encoding: 62 62 130
Width: 813
Flags: W
LayerCount: 2
Fore
SplineSet
768 575 m 1,0,-1
 182 27 l 1,1,-1
 37 172 l 1,2,-1
 473 563 l 1,3,-1
 29 971 l 1,4,-1
 182 1124 l 1,5,-1
 768 575 l 1,0,-1
EndSplineSet
EndChar

StartChar: at
Encoding: 64 64 131
Width: 1305
Flags: W
HStem: -41 86<417.572 819.421> 234 113<473 616.501> 237 83<828.5 1014.19> 789 83<589.27 774.078> 1027 97<517.554 916.522>
VStem: 92 134<245.006 694.839> 368 134<366.535 672.466> 1117 111<435.77 823.459>
LayerCount: 2
Fore
SplineSet
1228 652 m 0,0,1
 1228 455 1228 455 1126.5 346 c 128,-1,2
 1025 237 1025 237 840 237 c 0,3,4
 817 237 817 237 795.5 239 c 128,-1,5
 774 241 774 241 732 245 c 1,6,7
 734 267 734 267 735 283 c 128,-1,8
 736 299 736 299 737.5 315 c 128,-1,9
 739 331 739 331 741 352 c 128,-1,10
 743 373 743 373 746 404 c 1,11,12
 723 379 723 379 710.5 365.5 c 128,-1,13
 698 352 698 352 678 332 c 0,14,15
 620 277 620 277 583 255.5 c 128,-1,16
 546 234 546 234 505 234 c 0,17,18
 441 234 441 234 404.5 294.5 c 128,-1,19
 368 355 368 355 368 460 c 0,20,21
 368 555 368 555 395.5 631.5 c 128,-1,22
 423 708 423 708 473.5 761 c 128,-1,23
 524 814 524 814 596.5 843 c 128,-1,24
 669 872 669 872 762 872 c 0,25,26
 805 872 805 872 839 867 c 128,-1,27
 873 862 873 862 928 846 c 1,28,29
 921 824 921 824 917.5 808 c 128,-1,30
 914 792 914 792 911 777 c 128,-1,31
 908 762 908 762 905 743.5 c 128,-1,32
 902 725 902 725 899 696 c 2,33,-1
 873 490 l 2,34,35
 869 458 869 458 866 430 c 128,-1,36
 863 402 863 402 863 387 c 0,37,38
 863 350 863 350 874.5 335 c 128,-1,39
 886 320 886 320 917 320 c 0,40,41
 958 320 958 320 994.5 344.5 c 128,-1,42
 1031 369 1031 369 1058.5 412 c 128,-1,43
 1086 455 1086 455 1101.5 512 c 128,-1,44
 1117 569 1117 569 1117 634 c 0,45,46
 1117 719 1117 719 1087.5 791 c 128,-1,47
 1058 863 1058 863 1006 916 c 128,-1,48
 954 969 954 969 882 998 c 128,-1,49
 810 1027 810 1027 726 1027 c 0,50,51
 617 1027 617 1027 524.5 986 c 128,-1,52
 432 945 432 945 366 871.5 c 128,-1,53
 300 798 300 798 263 697 c 128,-1,54
 226 596 226 596 226 476 c 0,55,56
 226 270 226 270 327 157.5 c 128,-1,57
 428 45 428 45 612 45 c 0,58,59
 703 45 703 45 786 75 c 0,60,61
 815 85 815 85 837.5 95 c 128,-1,62
 860 105 860 105 882.5 119.5 c 128,-1,63
 905 134 905 134 929.5 153 c 128,-1,64
 954 172 954 172 986 199 c 1,65,-1
 1047 138 l 1,66,67
 1025 118 1025 118 1007 103 c 128,-1,68
 989 88 989 88 976 77 c 0,69,70
 828 -41 828 -41 594 -41 c 0,71,72
 528 -41 528 -41 467.5 -29.5 c 128,-1,73
 407 -18 407 -18 357 2 c 0,74,75
 297 27 297 27 247.5 72 c 128,-1,76
 198 117 198 117 163.5 176 c 128,-1,77
 129 235 129 235 110.5 306 c 128,-1,78
 92 377 92 377 92 455 c 0,79,80
 92 593 92 593 144.5 715 c 128,-1,81
 197 837 197 837 286.5 928 c 128,-1,82
 376 1019 376 1019 496.5 1071.5 c 128,-1,83
 617 1124 617 1124 752 1124 c 0,84,85
 983 1124 983 1124 1108 980 c 0,86,87
 1165 913 1165 913 1196.5 828.5 c 128,-1,88
 1228 744 1228 744 1228 652 c 0,0,1
776 734 m 0,89,90
 776 789 776 789 687 789 c 0,91,92
 646 789 646 789 612 766.5 c 128,-1,93
 578 744 578 744 553.5 703.5 c 128,-1,94
 529 663 529 663 515.5 606 c 128,-1,95
 502 549 502 549 502 481 c 0,96,97
 502 415 502 415 518 381 c 128,-1,98
 534 347 534 347 565 347 c 0,99,100
 589 347 589 347 621.5 370.5 c 128,-1,101
 654 394 654 394 691 439 c 0,102,103
 734 491 734 491 747 531 c 1,104,105
 754 549 754 549 757 568 c 128,-1,106
 760 587 760 587 765 623 c 2,107,-1
 774 696 l 2,108,109
 776 706 776 706 776 715.5 c 128,-1,110
 776 725 776 725 776 734 c 0,89,90
EndSplineSet
EndChar

StartChar: Thorn
Encoding: 222 222 132
Width: 1297
Flags: W
HStem: 31 21G<825.174 1039> 1515 20G<190.5 268.5>
VStem: 254 306<-67.2864 146 534 778.605>
LayerCount: 2
Fore
SplineSet
40 1316 m 1,0,1
 82 1370 82 1370 125.5 1425 c 128,-1,2
 169 1480 169 1480 212 1535 c 1,3,4
 325 1502 325 1502 423 1473 c 128,-1,5
 521 1444 521 1444 607 1417 c 1,6,7
 604 1385 604 1385 594 1210 c 128,-1,8
 584 1035 584 1035 581 1005 c 1,9,-1
 885 1249 l 1,10,11
 1261 965 1261 965 1229 704.5 c 128,-1,12
 1197 444 1197 444 881 31 c 1,13,-1
 560 146 l 1,14,15
 569 -15 569 -15 599 -69 c 1,16,17
 486 -139 486 -139 375 -209 c 128,-1,18
 264 -279 264 -279 152 -350 c 1,19,20
 190 -240 190 -240 215.5 -95.5 c 128,-1,21
 241 49 241 49 254 255 c 1,22,-1
 49 329 l 1,23,-1
 264 534 l 1,24,25
 267 826 267 826 251 1217 c 1,26,27
 199 1241 199 1241 145.5 1265.5 c 128,-1,28
 92 1290 92 1290 40 1316 c 1,0,1
566 780 m 1,29,30
 561 737 561 737 556 484 c 1,31,-1
 885 331 l 1,32,33
 1010 327 1010 327 1014.5 498 c 128,-1,34
 1019 669 1019 669 841 799.5 c 128,-1,35
 663 930 663 930 566 780 c 1,29,30
EndSplineSet
EndChar

StartChar: thorn
Encoding: 254 254 133
Width: 877
Flags: W
HStem: 1081 20G<530.849 594> 1515 20G<356 503.308>
VStem: 141 253<-219.108 66 349.378 850 969 1247.54>
LayerCount: 2
Fore
SplineSet
31 1294 m 1,0,-1
 42 1341 l 1,1,2
 241 1411 241 1411 471 1535 c 1,3,-1
 534 1496 l 1,4,5
 392 1411 392 1411 391 1175 c 2,6,-1
 390 969 l 1,7,-1
 556 1101 l 1,8,9
 632 1069 632 1069 696 977 c 128,-1,10
 760 885 760 885 799.5 779.5 c 128,-1,11
 839 674 839 674 849 578 c 128,-1,12
 859 482 859 482 830 445 c 2,13,-1
 499 14 l 1,14,-1
 394 66 l 1,15,16
 395 -59 395 -59 399 -117 c 0,17,18
 404 -203 404 -203 407 -264 c 1,19,20
 310 -279 310 -279 222.5 -318.5 c 128,-1,21
 135 -358 135 -358 56 -411 c 1,22,-1
 6 -357 l 1,23,24
 36 -339 36 -339 88.5 -235.5 c 128,-1,25
 141 -132 141 -132 141 -49 c 2,26,-1
 131 1170 l 2,27,28
 131 1244 131 1244 31 1294 c 1,0,-1
390 850 m 1,29,-1
 387 417 l 1,30,31
 396 367 396 367 463 336 c 128,-1,32
 530 305 530 305 564 314 c 0,33,34
 671 341 671 341 645 474 c 0,35,36
 611 642 611 642 546.5 728 c 128,-1,37
 482 814 482 814 390 850 c 1,29,-1
EndSplineSet
EndChar

StartChar: plus
Encoding: 43 43 134
Width: 1275
Flags: W
HStem: 469 302<316.801 484 787 949.859>
VStem: 484 301<301.562 469 771 939.496>
LayerCount: 2
Fore
SplineSet
311 861 m 1,0,1
 314 764 314 764 369 771 c 1,2,-1
 486 771 l 1,3,-1
 486 887 l 1,4,5
 495 940 495 940 396 946 c 1,6,-1
 792 1294 l 1,7,-1
 787 771 l 1,8,-1
 1267 771 l 1,9,-1
 957 347 l 1,10,11
 967 471 967 471 879 469 c 1,12,-1
 785 469 l 1,13,-1
 785 375 l 1,14,15
 779 285 779 285 905 295 c 1,16,-1
 479 -14 l 1,17,-1
 484 469 l 1,18,-1
 7 469 l 1,19,-1
 311 861 l 1,0,1
EndSplineSet
EndChar

StartChar: plusminus
Encoding: 177 177 135
Width: 1024
Flags: W
HStem: 10 156<106 920> 596 156<106 430 598 920>
VStem: 430 168<311 596 752 1018>
LayerCount: 2
Fore
SplineSet
430 311 m 1,0,-1
 430 596 l 1,1,-1
 106 596 l 1,2,-1
 106 752 l 1,3,-1
 430 752 l 1,4,-1
 430 1018 l 1,5,-1
 598 1018 l 1,6,-1
 598 752 l 1,7,-1
 920 752 l 1,8,-1
 920 596 l 1,9,-1
 598 596 l 1,10,-1
 598 311 l 1,11,-1
 430 311 l 1,0,-1
920 166 m 1,12,-1
 920 10 l 1,13,-1
 106 10 l 1,14,-1
 106 166 l 1,15,-1
 920 166 l 1,12,-1
EndSplineSet
EndChar

StartChar: paragraph
Encoding: 182 182 136
Width: 1575
Flags: W
HStem: 114 108<991.002 1172.88 1304.22 1502.2> 1261 110<1346.41 1481.37> 1284 96<1047.25 1124.67 1347.16 1481.37>
VStem: 41 558<525.413 968.5> 820 221<701.711 1263.72 1388.28 1508.44> 848.5 161.5<262.429 1259.15> 874 106.5<-92.2812 113.994 233.22 692.992> 1134 203<719.229 1266.78> 1154.5 161<262.429 1254.36> 1173 124<-90.4731 114.431 236.22 710.457>
LayerCount: 2
Fore
SplineSet
771 1379 m 0,0,1
 776 1379 776 1379 782.5 1379 c 128,-1,2
 789 1379 789 1379 796 1379 c 0,3,4
 807 1379 807 1379 813 1386 c 0,5,6
 820 1394 820 1394 820 1405 c 1,7,8
 815 1454 815 1454 815 1468 c 1,9,10
 811 1491 811 1491 831 1509 c 0,11,12
 849 1524 849 1524 874 1520 c 1,13,14
 934 1506 934 1506 986 1519 c 0,15,16
 1009 1524 1009 1524 1029 1509 c 1,17,18
 1047 1492 1047 1492 1046 1468 c 1,19,20
 1042 1433 1042 1433 1041 1406 c 1,21,22
 1039 1397 1039 1397 1047 1388 c 0,23,24
 1055 1380 1055 1380 1065 1380 c 0,25,26
 1074 1380 1074 1380 1083 1380 c 128,-1,27
 1092 1380 1092 1380 1101 1380 c 0,28,29
 1111 1380 1111 1380 1118 1388 c 0,30,31
 1125 1395 1125 1395 1125 1406 c 1,32,33
 1123 1423 1123 1423 1122 1438.5 c 128,-1,34
 1121 1454 1121 1454 1120 1468 c 0,35,36
 1118 1492 1118 1492 1136 1509 c 1,37,38
 1154 1524 1154 1524 1179 1520 c 1,39,40
 1240 1506 1240 1506 1292 1519 c 0,41,42
 1314 1524 1314 1524 1335 1509 c 1,43,44
 1352 1492 1352 1492 1351 1468 c 1,45,46
 1348 1438 1348 1438 1345 1397 c 0,47,48
 1343 1372 1343 1372 1367 1371 c 1,49,50
 1422 1366 1422 1366 1461 1359 c 0,51,52
 1501 1352 1501 1352 1501 1311 c 2,53,-1
 1501 1308 l 2,54,55
 1501 1285 1501 1285 1482 1270 c 0,56,57
 1462 1255 1462 1255 1441 1261 c 1,58,59
 1408 1268 1408 1268 1363 1273 c 0,60,61
 1353 1274 1353 1274 1345 1267 c 256,62,63
 1337 1260 1337 1260 1337 1250 c 0,64,65
 1325 1040 1325 1040 1315.5 760.5 c 128,-1,66
 1306 481 1306 481 1297 254 c 0,67,68
 1297 243 1297 243 1304 236 c 256,69,70
 1311 229 1311 229 1323 229 c 0,71,72
 1433 235 1433 235 1483 248 c 1,73,74
 1506 252 1506 252 1525 239 c 1,75,76
 1543 224 1543 224 1543 201 c 2,77,-1
 1543 186 l 2,78,79
 1543 146 1543 146 1504 138 c 0,80,81
 1447 127 1447 127 1313 120 c 1,82,83
 1291 120 1291 120 1290 97 c 0,84,85
 1288 54 1288 54 1286 17.5 c 128,-1,86
 1284 -19 1284 -19 1283 -48 c 1,87,88
 1279 -93 1279 -93 1234 -93 c 0,89,90
 1187 -93 1187 -93 1186 -47 c 1,91,92
 1182 -4 1182 -4 1179 92 c 1,93,94
 1177 116 1177 116 1154 115 c 0,95,96
 1117 114 1117 114 1080.5 114 c 128,-1,97
 1044 114 1044 114 1009 114 c 0,98,99
 985 114 985 114 985 91 c 1,100,101
 982 49 982 49 980.5 14 c 128,-1,102
 979 -21 979 -21 977 -48 c 0,103,104
 975 -93 975 -93 929 -93 c 0,105,106
 881 -93 881 -93 880 -47 c 1,107,108
 877 4 877 4 874 91 c 1,109,110
 872 114 872 114 849 114 c 256,111,112
 826 114 826 114 806 114 c 128,-1,113
 786 114 786 114 771 114 c 0,114,115
 468 114 468 114 254.5 299.5 c 128,-1,116
 41 485 41 485 41 746 c 0,117,118
 41 1008 41 1008 254.5 1193.5 c 128,-1,119
 468 1379 468 1379 771 1379 c 0,0,1
1109 1284 m 1,120,121
 1095 1284 1095 1284 1081.5 1284 c 128,-1,122
 1068 1284 1068 1284 1056 1284 c 0,123,124
 1032 1282 1032 1282 1032 1261 c 1,125,126
 1020 1049 1020 1049 1010 763.5 c 128,-1,127
 1000 478 1000 478 991 248 c 0,128,129
 991 237 991 237 998 230 c 0,130,131
 1006 222 1006 222 1015 222 c 0,132,133
 1045 222 1045 222 1079 222 c 128,-1,134
 1113 222 1113 222 1149 223 c 0,135,136
 1159 223 1159 223 1166 231 c 0,137,138
 1173 238 1173 238 1173 248 c 0,139,140
 1164 478 1164 478 1154.5 763.5 c 128,-1,141
 1145 1049 1145 1049 1134 1261 c 0,142,143
 1132 1282 1132 1282 1109 1284 c 1,120,121
797 1267 m 0,144,145
 710 1237 710 1237 654.5 1124.5 c 128,-1,146
 599 1012 599 1012 599 752 c 0,147,148
 599 461 599 461 667.5 353 c 128,-1,149
 736 245 736 245 839 228 c 1,150,151
 849 225 849 225 859 233 c 0,152,153
 868 240 868 240 867 253 c 0,154,155
 858 478 858 478 848.5 756.5 c 128,-1,156
 839 1035 839 1035 829 1245 c 0,157,158
 829 1255 829 1255 819 1264 c 1,159,160
 808 1270 808 1270 797 1267 c 0,144,145
EndSplineSet
EndChar

StartChar: dagger
Encoding: 8224 8224 137
Width: 1024
Flags: W
HStem: 780 248<68.6401 308.512 717.547 946.9> 883 57<372.854 469 555 653.916>
VStem: 375 282<1177.02 1441.22> 469 86<-271.358 167.98 715.109 883 940 1136.65>
LayerCount: 2
Fore
SplineSet
492 -276 m 2,0,1
 482 -276 482 -276 479.5 -270 c 128,-1,2
 477 -264 477 -264 477 -252 c 0,3,4
 477 -204 477 -204 470 -127.5 c 128,-1,5
 463 -51 463 -51 452 38 c 128,-1,6
 441 127 441 127 427.5 220 c 128,-1,7
 414 313 414 313 400.5 394 c 128,-1,8
 387 475 387 475 374 535 c 128,-1,9
 361 595 361 595 352 618 c 1,10,11
 361 628 361 628 380 649 c 128,-1,12
 399 670 399 670 419 702.5 c 128,-1,13
 439 735 439 735 454 779.5 c 128,-1,14
 469 824 469 824 469 883 c 1,15,16
 440 883 440 883 401.5 867 c 128,-1,17
 363 851 363 851 322.5 831.5 c 128,-1,18
 282 812 282 812 242 796 c 128,-1,19
 202 780 202 780 170 780 c 0,20,21
 140 780 140 780 116 790 c 128,-1,22
 92 800 92 800 75.5 816.5 c 128,-1,23
 59 833 59 833 50 855.5 c 128,-1,24
 41 878 41 878 41 903 c 0,25,26
 41 934 41 934 52 957 c 128,-1,27
 63 980 63 980 81 996 c 128,-1,28
 99 1012 99 1012 122 1020 c 128,-1,29
 145 1028 145 1028 170 1028 c 0,30,31
 202 1028 202 1028 241.5 1014 c 128,-1,32
 281 1000 281 1000 321 983.5 c 128,-1,33
 361 967 361 967 399.5 953.5 c 128,-1,34
 438 940 438 940 469 940 c 1,35,36
 469 994 469 994 454.5 1050.5 c 128,-1,37
 440 1107 440 1107 422 1160 c 128,-1,38
 404 1213 404 1213 389.5 1259 c 128,-1,39
 375 1305 375 1305 375 1339 c 0,40,41
 375 1362 375 1362 384.5 1387 c 128,-1,42
 394 1412 394 1412 412 1433 c 128,-1,43
 430 1454 430 1454 456 1467.5 c 128,-1,44
 482 1481 482 1481 516 1481 c 0,45,46
 556 1481 556 1481 583 1467.5 c 128,-1,47
 610 1454 610 1454 626.5 1433 c 128,-1,48
 643 1412 643 1412 650 1387 c 128,-1,49
 657 1362 657 1362 657 1339 c 0,50,51
 657 1305 657 1305 641 1259 c 128,-1,52
 625 1213 625 1213 606 1160 c 128,-1,53
 587 1107 587 1107 571 1050.5 c 128,-1,54
 555 994 555 994 555 940 c 1,55,56
 586 940 586 940 624 953.5 c 128,-1,57
 662 967 662 967 701.5 983.5 c 128,-1,58
 741 1000 741 1000 780.5 1014 c 128,-1,59
 820 1028 820 1028 854 1028 c 0,60,61
 913 1028 913 1028 948 993.5 c 128,-1,62
 983 959 983 959 983 903 c 0,63,64
 983 879 983 879 974.5 857 c 128,-1,65
 966 835 966 835 949 818 c 128,-1,66
 932 801 932 801 906 790.5 c 128,-1,67
 880 780 880 780 846 780 c 0,68,69
 818 780 818 780 780.5 796 c 128,-1,70
 743 812 743 812 703.5 831.5 c 128,-1,71
 664 851 664 851 625 867 c 128,-1,72
 586 883 586 883 555 883 c 1,73,74
 555 824 555 824 570 780 c 128,-1,75
 585 736 585 736 604.5 703.5 c 128,-1,76
 624 671 624 671 643.5 650.5 c 128,-1,77
 663 630 663 630 672 618 c 1,78,79
 662 595 662 595 649.5 536 c 128,-1,80
 637 477 637 477 623.5 397.5 c 128,-1,81
 610 318 610 318 597 225.5 c 128,-1,82
 584 133 584 133 573.5 43.5 c 128,-1,83
 563 -46 563 -46 556 -125.5 c 128,-1,84
 549 -205 549 -205 549 -258 c 0,85,86
 549 -267 549 -267 546.5 -271.5 c 128,-1,87
 544 -276 544 -276 535 -276 c 2,88,-1
 492 -276 l 2,0,1
EndSplineSet
EndChar

